MavenPro-Regular.ufo
<glyph name="exclam" format="2">
  <advance width="372"/>
  <unicode hex="0021"/>
  <outline>
    <contour>
      <point x="159" y="168" type="line"/>
      <point x="217" y="168" type="line"/>
      <point x="224" y="667" type="line"/>
      <point x="152" y="667" type="line"/>
    </contour>
    <contour>
      <point x="148" y="0" type="line"/>
      <point x="228" y="0" type="line"/>
      <point x="228" y="80" type="line"/>
      <point x="148" y="80" type="line"/>
    </contour>
  </outline>
</glyph>
<glyph name="quotedbl" format="2">
  <advance width="381"/>
  <unicode hex="0022"/>
  <outline>
    <contour>
      <point x="232" y="475" type="line"/>
      <point x="280" y="475" type="line"/>
      <point x="298" y="676" type="line"/>
      <point x="215" y="676" type="line"/>
    </contour>
    <contour>
      <point x="99" y="475" type="line"/>
      <point x="147" y="475" type="line"/>
      <point x="164" y="676" type="line"/>
      <point x="81" y="676" type="line"/>
    </contour>
  </outline>
</glyph>
<glyph name="numbersign" format="2">
  <advance width="591"/>
  <unicode hex="0023"/>
  <outline>
    <contour>
      <point x="134" y="19" type="line"/>
      <point x="195" y="19" type="line"/>
      <point x="214" y="126" type="line"/>
      <point x="346" y="126" type="line"/>
      <point x="328" y="19" type="line"/>
      <point x="389" y="19" type="line"/>
      <point x="407" y="126" type="line"/>
      <point x="498" y="126" type="line"/>
      <point x="498" y="186" type="line"/>
      <point x="417" y="186" type="line"/>
      <point x="445" y="345" type="line"/>
      <point x="527" y="345" type="line"/>
      <point x="527" y="405" type="line"/>
      <point x="455" y="405" type="line"/>
      <point x="476" y="523" type="line"/>
      <point x="415" y="523" type="line"/>
      <point x="394" y="405" type="line"/>
      <point x="262" y="405" type="line"/>
      <point x="282" y="523" type="line"/>
      <point x="221" y="523" type="line"/>
      <point x="201" y="405" type="line"/>
      <point x="99" y="405" type="line"/>
      <point x="99" y="345" type="line"/>
      <point x="190" y="345" type="line"/>
      <point x="163" y="186" type="line"/>
      <point x="71" y="186" type="line"/>
      <point x="71" y="126" type="line"/>
      <point x="153" y="126" type="line"/>
    </contour>
    <contour>
      <point x="224" y="186" type="line"/>
      <point x="251" y="345" type="line"/>
      <point x="384" y="345" type="line"/>
      <point x="356" y="186" type="line"/>
    </contour>
  </outline>
</glyph>
<glyph name="dollar" format="2">
  <advance width="555"/>
  <unicode hex="0024"/>
  <anchor x="279" y="0" name="bottom"/>
  <anchor x="279" y="667" name="top"/>
  <outline>
    <contour>
      <point x="251" y="643" type="line"/>
      <point x="323" y="643" type="line"/>
      <point x="323" y="753" type="line"/>
      <point x="251" y="753" type="line"/>
    </contour>
    <contour>
      <point x="251" y="-93" type="line"/>
      <point x="323" y="-93" type="line"/>
      <point x="323" y="27" type="line"/>
      <point x="251" y="27" type="line"/>
    </contour>
    <component base="S"/>
  </outline>
</glyph>
<glyph name="ampersand" format="2">
  <advance width="640"/>
  <unicode hex="0026"/>
  <outline>
    <contour>
      <point x="512" y="0" type="line"/>
      <point x="606" y="0" type="line"/>
      <point x="265" y="406" type="line"/>
      <point x="235" y="439"/>
      <point x="193" y="497"/>
      <point x="193" y="522" type="curve" smooth="yes"/>
      <point x="193" y="566"/>
      <point x="230" y="602"/>
      <point x="276" y="602" type="curve" smooth="yes"/>
      <point x="323" y="602"/>
      <point x="359" y="570"/>
      <point x="359" y="526" type="curve" smooth="yes"/>
      <point x="359" y="491"/>
      <point x="348" y="456"/>
      <point x="256" y="407" type="curve"/>
      <point x="292" y="363" type="line"/>
      <point x="375" y="411"/>
      <point x="426" y="453"/>
      <point x="426" y="527" type="curve" smooth="yes"/>
      <point x="426" y="609"/>
      <point x="359" y="674"/>
      <point x="274" y="674" type="curve" smooth="yes"/>
      <point x="191" y="674"/>
      <point x="123" y="606"/>
      <point x="123" y="523" type="curve" smooth="yes"/>
      <point x="123" y="476"/>
      <point x="160" y="421"/>
      <point x="189" y="385" type="curve"/>
    </contour>
    <contour>
      <point x="263" y="-8" type="curve" smooth="yes"/>
      <point x="344" y="-8"/>
      <point x="417" y="37"/>
      <point x="463" y="85" type="curve"/>
      <point x="418" y="136" type="line"/>
      <point x="385" y="100"/>
      <point x="329" y="62"/>
      <point x="266" y="62" type="curve" smooth="yes"/>
      <point x="150" y="62"/>
      <point x="125" y="152"/>
      <point x="125" y="186" type="curve" smooth="yes"/>
      <point x="125" y="221"/>
      <point x="141" y="286"/>
      <point x="250" y="344" type="curve"/>
      <point x="203" y="393" type="line"/>
      <point x="85" y="328"/>
      <point x="54" y="248"/>
      <point x="54" y="184" type="curve" smooth="yes"/>
      <point x="54" y="110"/>
      <point x="111" y="-8"/>
    </contour>
    <contour>
      <point x="448" y="182" type="curve"/>
      <point x="493" y="131" type="line"/>
      <point x="526" y="185"/>
      <point x="546" y="246"/>
      <point x="554" y="290" type="curve"/>
      <point x="489" y="290" type="line"/>
      <point x="483" y="267"/>
      <point x="470" y="221"/>
    </contour>
  </outline>
</glyph>
<glyph name="quotesingle" format="2">
  <advance width="249"/>
  <unicode hex="0027"/>
  <outline>
    <contour>
      <point x="99" y="475" type="line"/>
      <point x="147" y="475" type="line"/>
      <point x="164" y="676" type="line"/>
      <point x="81" y="676" type="line"/>
    </contour>
  </outline>
</glyph>
<glyph name="parenleft" format="2">
  <advance width="345"/>
  <unicode hex="0028"/>
  <outline>
    <contour>
      <point x="204" y="-113" type="curve"/>
      <point x="280" y="-113" type="line"/>
      <point x="256" y="-74"/>
      <point x="165" y="94"/>
      <point x="165" y="305" type="curve" smooth="yes"/>
      <point x="165" y="517"/>
      <point x="256" y="684"/>
      <point x="280" y="724" type="curve"/>
      <point x="204" y="724" type="line"/>
      <point x="165" y="654"/>
      <point x="93" y="498"/>
      <point x="93" y="305" type="curve" smooth="yes"/>
      <point x="93" y="113"/>
      <point x="165" y="-43"/>
    </contour>
  </outline>
</glyph>
<glyph name="parenright" format="2">
  <advance width="345"/>
  <unicode hex="0029"/>
  <outline>
    <contour>
      <point x="65" y="-113" type="curve"/>
      <point x="142" y="-113" type="line"/>
      <point x="181" y="-43"/>
      <point x="253" y="113"/>
      <point x="253" y="306" type="curve" smooth="yes"/>
      <point x="253" y="498"/>
      <point x="181" y="654"/>
      <point x="142" y="724" type="curve"/>
      <point x="65" y="724" type="line"/>
      <point x="89" y="685"/>
      <point x="181" y="517"/>
      <point x="181" y="306" type="curve" smooth="yes"/>
      <point x="181" y="94"/>
      <point x="89" y="-73"/>
    </contour>
  </outline>
</glyph>
<glyph name="asterisk" format="2">
  <advance width="411"/>
  <unicode hex="002A"/>
  <outline>
    <contour>
      <point x="177" y="460" type="line"/>
      <point x="231" y="460" type="line"/>
      <point x="223" y="550" type="line"/>
      <point x="298" y="495" type="line"/>
      <point x="325" y="543" type="line"/>
      <point x="239" y="581" type="line"/>
      <point x="325" y="620" type="line"/>
      <point x="298" y="666" type="line"/>
      <point x="223" y="612" type="line"/>
      <point x="231" y="703" type="line"/>
      <point x="177" y="703" type="line"/>
      <point x="187" y="612" type="line"/>
      <point x="111" y="666" type="line"/>
      <point x="84" y="620" type="line"/>
      <point x="171" y="581" type="line"/>
      <point x="84" y="543" type="line"/>
      <point x="111" y="495" type="line"/>
      <point x="187" y="550" type="line"/>
    </contour>
  </outline>
</glyph>
<glyph name="plus" format="2">
  <advance width="551"/>
  <unicode hex="002B"/>
  <outline>
    <contour>
      <point x="245" y="122" type="line"/>
      <point x="305" y="122" type="line"/>
      <point x="305" y="269" type="line"/>
      <point x="452" y="269" type="line"/>
      <point x="452" y="329" type="line"/>
      <point x="305" y="329" type="line"/>
      <point x="305" y="477" type="line"/>
      <point x="245" y="477" type="line"/>
      <point x="245" y="329" type="line"/>
      <point x="97" y="329" type="line"/>
      <point x="97" y="269" type="line"/>
      <point x="245" y="269" type="line"/>
    </contour>
  </outline>
</glyph>
<glyph name="comma" format="2">
  <advance width="313"/>
  <unicode hex="002C"/>
  <outline>
    <contour>
      <point x="74" y="-112" type="line"/>
      <point x="146" y="-112" type="line"/>
      <point x="230" y="84" type="line"/>
      <point x="148" y="84" type="line"/>
    </contour>
  </outline>
</glyph>
<glyph name="hyphen" format="2">
  <advance width="464"/>
  <unicode hex="002D"/>
  <outline>
    <contour>
      <point x="79" y="263" type="line"/>
      <point x="384" y="263" type="line"/>
      <point x="384" y="333" type="line"/>
      <point x="79" y="333" type="line"/>
    </contour>
  </outline>
</glyph>
<glyph name="period" format="2">
  <advance width="260"/>
  <unicode hex="002E"/>
  <outline>
    <contour>
      <point x="80" y="0" type="line"/>
      <point x="180" y="0" type="line"/>
      <point x="180" y="100" type="line"/>
      <point x="80" y="100" type="line"/>
    </contour>
  </outline>
</glyph>
<glyph name="slash" format="2">
  <advance width="404"/>
  <unicode hex="002F"/>
  <outline>
    <contour>
      <point x="-14" y="-98" type="line"/>
      <point x="51" y="-98" type="line"/>
      <point x="419" y="756" type="line"/>
      <point x="353" y="756" type="line"/>
    </contour>
  </outline>
</glyph>
<glyph name="zero" format="2">
  <advance width="646"/>
  <unicode hex="0030"/>
  <outline>
    <contour>
      <point x="323" y="-11" type="curve" smooth="yes"/>
      <point x="498" y="-11"/>
      <point x="586" y="104"/>
      <point x="586" y="331" type="curve" smooth="yes"/>
      <point x="586" y="558"/>
      <point x="498" y="673"/>
      <point x="323" y="673" type="curve" smooth="yes"/>
      <point x="149" y="673"/>
      <point x="60" y="558"/>
      <point x="60" y="331" type="curve" smooth="yes"/>
      <point x="60" y="104"/>
      <point x="149" y="-11"/>
    </contour>
    <contour>
      <point x="323" y="55" type="curve" smooth="yes"/>
      <point x="234" y="55"/>
      <point x="132" y="86"/>
      <point x="132" y="331" type="curve" smooth="yes"/>
      <point x="132" y="575"/>
      <point x="234" y="607"/>
      <point x="323" y="607" type="curve" smooth="yes"/>
      <point x="412" y="607"/>
      <point x="514" y="575"/>
      <point x="514" y="331" type="curve" smooth="yes"/>
      <point x="514" y="86"/>
      <point x="412" y="55"/>
    </contour>
  </outline>
</glyph>
<glyph name="one" format="2">
  <advance width="451"/>
  <unicode hex="0031"/>
  <outline>
    <contour>
      <point x="236" y="0" type="line"/>
      <point x="308" y="0" type="line"/>
      <point x="308" y="667" type="line"/>
      <point x="226" y="667" type="line"/>
      <point x="103" y="589" type="line"/>
      <point x="103" y="504" type="line"/>
      <point x="236" y="592" type="line"/>
    </contour>
  </outline>
</glyph>
<glyph name="two" format="2">
  <advance width="581"/>
  <unicode hex="0032"/>
  <outline>
    <contour>
      <point x="77" y="0" type="line"/>
      <point x="498" y="0" type="line"/>
      <point x="498" y="72" type="line"/>
      <point x="137" y="72" type="line"/>
      <point x="158" y="47" type="line"/>
      <point x="279" y="145"/>
      <point x="488" y="337"/>
      <point x="488" y="488" type="curve" smooth="yes"/>
      <point x="488" y="579"/>
      <point x="429" y="676"/>
      <point x="265" y="676" type="curve" smooth="yes"/>
      <point x="188" y="676"/>
      <point x="127" y="651"/>
      <point x="84" y="625" type="curve"/>
      <point x="84" y="546" type="line"/>
      <point x="118" y="570"/>
      <point x="179" y="604"/>
      <point x="259" y="604" type="curve" smooth="yes"/>
      <point x="389" y="604"/>
      <point x="416" y="541"/>
      <point x="416" y="488" type="curve" smooth="yes"/>
      <point x="416" y="342"/>
      <point x="191" y="147"/>
      <point x="77" y="63" type="curve"/>
    </contour>
  </outline>
</glyph>
<glyph name="three" format="2">
  <advance width="583"/>
  <unicode hex="0033"/>
  <outline>
    <contour>
      <point x="259" y="-8" type="curve" smooth="yes"/>
      <point x="440" y="-8"/>
      <point x="505" y="94"/>
      <point x="505" y="190" type="curve" smooth="yes"/>
      <point x="505" y="313"/>
      <point x="385" y="361"/>
      <point x="385" y="361" type="curve" smooth="yes"/>
      <point x="385" y="361"/>
      <point x="471" y="396"/>
      <point x="471" y="496" type="curve" smooth="yes"/>
      <point x="471" y="583"/>
      <point x="413" y="676"/>
      <point x="249" y="676" type="curve" smooth="yes"/>
      <point x="188" y="676"/>
      <point x="137" y="661"/>
      <point x="97" y="642" type="curve"/>
      <point x="97" y="569" type="line"/>
      <point x="133" y="587"/>
      <point x="181" y="604"/>
      <point x="241" y="604" type="curve" smooth="yes"/>
      <point x="343" y="604"/>
      <point x="399" y="566"/>
      <point x="399" y="496" type="curve" smooth="yes"/>
      <point x="399" y="427"/>
      <point x="346" y="389"/>
      <point x="249" y="389" type="curve" smooth="yes"/>
      <point x="173" y="389" type="line"/>
      <point x="173" y="320" type="line"/>
      <point x="246" y="320" type="line" smooth="yes"/>
      <point x="367" y="320"/>
      <point x="433" y="275"/>
      <point x="433" y="192" type="curve" smooth="yes"/>
      <point x="433" y="109"/>
      <point x="368" y="64"/>
      <point x="250" y="64" type="curve" smooth="yes"/>
      <point x="179" y="64"/>
      <point x="122" y="85"/>
      <point x="81" y="108" type="curve"/>
      <point x="81" y="34" type="line"/>
      <point x="126" y="11"/>
      <point x="186" y="-8"/>
    </contour>
  </outline>
</glyph>
<glyph name="four" format="2">
  <advance width="591"/>
  <unicode hex="0034"/>
  <outline>
    <contour>
      <point x="362" y="0" type="line"/>
      <point x="434" y="0" type="line"/>
      <point x="434" y="200" type="line"/>
      <point x="529" y="200" type="line"/>
      <point x="529" y="267" type="line"/>
      <point x="434" y="267" type="line"/>
      <point x="434" y="667" type="line"/>
      <point x="353" y="667" type="line"/>
      <point x="38" y="277" type="line"/>
      <point x="38" y="200" type="line"/>
      <point x="362" y="200" type="line"/>
    </contour>
    <contour>
      <point x="118" y="267" type="line"/>
      <point x="362" y="564" type="line"/>
      <point x="362" y="267" type="line"/>
    </contour>
  </outline>
</glyph>
<glyph name="five" format="2">
  <advance width="566"/>
  <unicode hex="0035"/>
  <outline>
    <contour>
      <point x="294" y="-8" type="curve" smooth="yes"/>
      <point x="391" y="-8"/>
      <point x="506" y="29"/>
      <point x="506" y="204" type="curve" smooth="yes"/>
      <point x="506" y="379"/>
      <point x="391" y="416"/>
      <point x="294" y="416" type="curve" smooth="yes"/>
      <point x="220" y="416"/>
      <point x="143" y="399"/>
      <point x="93" y="369" type="curve"/>
      <point x="164" y="381" type="line"/>
      <point x="183" y="596" type="line"/>
      <point x="464" y="596" type="line"/>
      <point x="464" y="667" type="line"/>
      <point x="121" y="667" type="line"/>
      <point x="87" y="359" type="line"/>
      <point x="132" y="313" type="line"/>
      <point x="132" y="313"/>
      <point x="183" y="344"/>
      <point x="289" y="344" type="curve" smooth="yes"/>
      <point x="360" y="344"/>
      <point x="435" y="329"/>
      <point x="435" y="204" type="curve" smooth="yes"/>
      <point x="435" y="143"/>
      <point x="426" y="62"/>
      <point x="289" y="62" type="curve" smooth="yes"/>
      <point x="191" y="62"/>
      <point x="130" y="91"/>
      <point x="103" y="108" type="curve"/>
      <point x="103" y="33" type="line"/>
      <point x="144" y="11"/>
      <point x="205" y="-8"/>
    </contour>
  </outline>
</glyph>
<glyph name="six" format="2">
  <advance width="583"/>
  <unicode hex="0036"/>
  <outline>
    <contour>
      <point x="292" y="-8" type="curve"/>
      <point x="459" y="-8"/>
      <point x="519" y="113"/>
      <point x="519" y="217" type="curve"/>
      <point x="519" y="346"/>
      <point x="432" y="427"/>
      <point x="292" y="427" type="curve"/>
      <point x="215" y="427"/>
      <point x="150" y="389"/>
      <point x="125" y="372" type="curve"/>
      <point x="124" y="292" type="line"/>
      <point x="141" y="309"/>
      <point x="203" y="360"/>
      <point x="292" y="360" type="curve"/>
      <point x="392" y="360"/>
      <point x="447" y="309"/>
      <point x="447" y="218" type="curve"/>
      <point x="447" y="181"/>
      <point x="436" y="60"/>
      <point x="292" y="60" type="curve"/>
      <point x="204" y="60"/>
      <point x="137" y="99"/>
      <point x="137" y="329" type="curve"/>
      <point x="137" y="574"/>
      <point x="320" y="608"/>
      <point x="377" y="608" type="curve"/>
      <point x="411" y="608"/>
      <point x="441" y="602"/>
      <point x="466" y="596" type="curve"/>
      <point x="466" y="663" type="line"/>
      <point x="439" y="671"/>
      <point x="406" y="676"/>
      <point x="369" y="676" type="curve"/>
      <point x="278" y="676"/>
      <point x="65" y="640"/>
      <point x="65" y="305" type="curve"/>
      <point x="65" y="97"/>
      <point x="141" y="-8"/>
    </contour>
  </outline>
</glyph>
<glyph name="seven" format="2">
  <advance width="574"/>
  <unicode hex="0037"/>
  <outline>
    <contour>
      <point x="156" y="0" type="line"/>
      <point x="236" y="0" type="line"/>
      <point x="525" y="600" type="line"/>
      <point x="525" y="667" type="line"/>
      <point x="70" y="667" type="line"/>
      <point x="70" y="595" type="line"/>
      <point x="462" y="595" type="line"/>
      <point x="455" y="618" type="line"/>
    </contour>
  </outline>
</glyph>
<glyph name="eight" format="2">
  <advance width="582"/>
  <unicode hex="0038"/>
  <outline>
    <contour>
      <point x="292" y="-8" type="curve" smooth="yes"/>
      <point x="463" y="-8"/>
      <point x="523" y="103"/>
      <point x="523" y="198" type="curve" smooth="yes"/>
      <point x="523" y="320"/>
      <point x="411" y="361"/>
      <point x="411" y="361" type="curve" smooth="yes"/>
      <point x="411" y="361"/>
      <point x="498" y="395"/>
      <point x="498" y="503" type="curve" smooth="yes"/>
      <point x="498" y="587"/>
      <point x="444" y="676"/>
      <point x="292" y="676" type="curve" smooth="yes"/>
      <point x="141" y="676"/>
      <point x="86" y="587"/>
      <point x="86" y="503" type="curve" smooth="yes"/>
      <point x="86" y="398"/>
      <point x="176" y="360"/>
      <point x="176" y="360" type="curve" smooth="yes"/>
      <point x="176" y="360"/>
      <point x="61" y="321"/>
      <point x="61" y="198" type="curve" smooth="yes"/>
      <point x="61" y="103"/>
      <point x="122" y="-8"/>
    </contour>
    <contour>
      <point x="292" y="60" type="curve" smooth="yes"/>
      <point x="145" y="60"/>
      <point x="133" y="166"/>
      <point x="133" y="198" type="curve" smooth="yes"/>
      <point x="133" y="278"/>
      <point x="190" y="322"/>
      <point x="292" y="322" type="curve" smooth="yes"/>
      <point x="395" y="322"/>
      <point x="451" y="278"/>
      <point x="451" y="198" type="curve" smooth="yes"/>
      <point x="451" y="166"/>
      <point x="440" y="60"/>
    </contour>
    <contour>
      <point x="292" y="388" type="curve" smooth="yes"/>
      <point x="208" y="388"/>
      <point x="158" y="431"/>
      <point x="158" y="503" type="curve" smooth="yes"/>
      <point x="158" y="588"/>
      <point x="231" y="605"/>
      <point x="292" y="605" type="curve" smooth="yes"/>
      <point x="353" y="605"/>
      <point x="426" y="588"/>
      <point x="426" y="503" type="curve" smooth="yes"/>
      <point x="426" y="431"/>
      <point x="376" y="388"/>
    </contour>
  </outline>
</glyph>
<glyph name="nine" format="2">
  <advance width="587"/>
  <unicode hex="0039"/>
  <outline>
    <contour>
      <point x="215" y="-8" type="curve"/>
      <point x="306" y="-8"/>
      <point x="519" y="28"/>
      <point x="519" y="363" type="curve"/>
      <point x="519" y="571"/>
      <point x="443" y="676"/>
      <point x="292" y="676" type="curve"/>
      <point x="125" y="676"/>
      <point x="65" y="555"/>
      <point x="65" y="451" type="curve"/>
      <point x="65" y="322"/>
      <point x="152" y="241"/>
      <point x="292" y="241" type="curve"/>
      <point x="369" y="241"/>
      <point x="434" y="279"/>
      <point x="459" y="296" type="curve"/>
      <point x="460" y="376" type="line"/>
      <point x="443" y="359"/>
      <point x="381" y="308"/>
      <point x="292" y="308" type="curve"/>
      <point x="192" y="308"/>
      <point x="137" y="359"/>
      <point x="137" y="450" type="curve"/>
      <point x="137" y="487"/>
      <point x="148" y="608"/>
      <point x="292" y="608" type="curve"/>
      <point x="380" y="608"/>
      <point x="447" y="569"/>
      <point x="447" y="339" type="curve"/>
      <point x="447" y="94"/>
      <point x="264" y="60"/>
      <point x="207" y="60" type="curve"/>
      <point x="173" y="60"/>
      <point x="143" y="66"/>
      <point x="118" y="72" type="curve"/>
      <point x="118" y="5" type="line"/>
      <point x="145" y="-3"/>
      <point x="178" y="-8"/>
    </contour>
  </outline>
</glyph>
<glyph name="colon" format="2">
  <advance width="391"/>
  <unicode hex="003A"/>
  <outline>
    <contour>
      <point x="158" y="368" type="line"/>
      <point x="238" y="368" type="line"/>
      <point x="238" y="448" type="line"/>
      <point x="158" y="448" type="line"/>
    </contour>
    <contour>
      <point x="158" y="48" type="line"/>
      <point x="238" y="48" type="line"/>
      <point x="238" y="128" type="line"/>
      <point x="158" y="128" type="line"/>
    </contour>
  </outline>
</glyph>
<glyph name="semicolon" format="2">
  <advance width="285"/>
  <unicode hex="003B"/>
  <outline>
    <contour>
      <point x="40" y="-112" type="line"/>
      <point x="112" y="-112" type="line"/>
      <point x="196" y="84" type="line"/>
      <point x="104" y="84" type="line"/>
    </contour>
    <contour>
      <point x="105" y="348" type="line"/>
      <point x="205" y="348" type="line"/>
      <point x="205" y="448" type="line"/>
      <point x="105" y="448" type="line"/>
    </contour>
  </outline>
</glyph>
<glyph name="less" format="2">
  <advance width="660"/>
  <unicode hex="003C"/>
  <outline>
    <contour>
      <point x="532" y="48" type="line"/>
      <point x="532" y="127" type="line"/>
      <point x="204" y="269" type="line"/>
      <point x="532" y="410" type="line"/>
      <point x="532" y="490" type="line"/>
      <point x="120" y="303" type="line"/>
      <point x="120" y="235" type="line"/>
    </contour>
  </outline>
</glyph>
<glyph name="equal" format="2">
  <advance width="638"/>
  <unicode hex="003D"/>
  <outline>
    <contour>
      <point x="127" y="341" type="line"/>
      <point x="512" y="341" type="line"/>
      <point x="512" y="410" type="line"/>
      <point x="127" y="410" type="line"/>
    </contour>
    <contour>
      <point x="127" y="186" type="line"/>
      <point x="512" y="186" type="line"/>
      <point x="512" y="256" type="line"/>
      <point x="127" y="256" type="line"/>
    </contour>
  </outline>
</glyph>
<glyph name="greater" format="2">
  <advance width="649"/>
  <unicode hex="003E"/>
  <outline>
    <contour>
      <point x="132" y="48" type="line"/>
      <point x="543" y="235" type="line"/>
      <point x="543" y="303" type="line"/>
      <point x="132" y="490" type="line"/>
      <point x="132" y="410" type="line"/>
      <point x="459" y="269" type="line"/>
      <point x="132" y="127" type="line"/>
    </contour>
  </outline>
</glyph>
<glyph name="question" format="2">
  <advance width="485"/>
  <unicode hex="003F"/>
  <outline>
    <contour>
      <point x="195" y="168" type="line"/>
      <point x="267" y="168" type="line"/>
      <point x="267" y="212" type="line" smooth="yes"/>
      <point x="267" y="367"/>
      <point x="417" y="344"/>
      <point x="417" y="490" type="curve" smooth="yes"/>
      <point x="417" y="652"/>
      <point x="283" y="675"/>
      <point x="219" y="675" type="curve" smooth="yes"/>
      <point x="135" y="675"/>
      <point x="80" y="637"/>
      <point x="80" y="637" type="curve"/>
      <point x="80" y="559" type="line"/>
      <point x="101" y="575"/>
      <point x="149" y="603"/>
      <point x="214" y="603" type="curve" smooth="yes"/>
      <point x="301" y="603"/>
      <point x="345" y="563"/>
      <point x="345" y="490" type="curve" smooth="yes"/>
      <point x="345" y="388"/>
      <point x="195" y="401"/>
      <point x="195" y="217" type="curve" smooth="yes"/>
    </contour>
    <contour>
      <point x="191" y="0" type="line"/>
      <point x="271" y="0" type="line"/>
      <point x="271" y="80" type="line"/>
      <point x="191" y="80" type="line"/>
    </contour>
  </outline>
</glyph>
<glyph name="at" format="2">
  <advance width="913"/>
  <unicode hex="0040"/>
  <outline>
    <contour>
      <point x="409" y="-149" type="curve" smooth="yes"/>
      <point x="490" y="-149"/>
      <point x="559" y="-137"/>
      <point x="618" y="-109" type="curve"/>
      <point x="627" y="-64" type="line"/>
      <point x="571" y="-96"/>
      <point x="505" y="-113"/>
      <point x="417" y="-113" type="curve" smooth="yes"/>
      <point x="354" y="-113"/>
      <point x="122" y="-85"/>
      <point x="122" y="181" type="curve" smooth="yes"/>
      <point x="122" y="397"/>
      <point x="313" y="564"/>
      <point x="511" y="564" type="curve" smooth="yes"/>
      <point x="642" y="564"/>
      <point x="803" y="473"/>
      <point x="803" y="275" type="curve" smooth="yes"/>
      <point x="803" y="134"/>
      <point x="733" y="67"/>
      <point x="682" y="67" type="curve" smooth="yes"/>
      <point x="630" y="67"/>
      <point x="621" y="100"/>
      <point x="625" y="148" type="curve" smooth="yes"/>
      <point x="628" y="192"/>
      <point x="641" y="250"/>
      <point x="641" y="307" type="curve" smooth="yes"/>
      <point x="641" y="396"/>
      <point x="587" y="443"/>
      <point x="486" y="443" type="curve" smooth="yes"/>
      <point x="442" y="443"/>
      <point x="402" y="434"/>
      <point x="369" y="423" type="curve"/>
      <point x="361" y="365" type="line"/>
      <point x="390" y="376"/>
      <point x="430" y="386"/>
      <point x="486" y="386" type="curve" smooth="yes"/>
      <point x="576" y="386"/>
      <point x="583" y="345"/>
      <point x="583" y="307" type="curve" smooth="yes"/>
      <point x="583" y="300"/>
      <point x="583" y="293"/>
      <point x="582" y="286" type="curve"/>
      <point x="559" y="289"/>
      <point x="534" y="291"/>
      <point x="508" y="291" type="curve" smooth="yes"/>
      <point x="320" y="291"/>
      <point x="291" y="200"/>
      <point x="291" y="146" type="curve" smooth="yes"/>
      <point x="291" y="75"/>
      <point x="347" y="32"/>
      <point x="441" y="32" type="curve" smooth="yes"/>
      <point x="515" y="32"/>
      <point x="558" y="53"/>
      <point x="585" y="81" type="curve"/>
      <point x="600" y="53"/>
      <point x="627" y="32"/>
      <point x="678" y="32" type="curve" smooth="yes"/>
      <point x="778" y="32"/>
      <point x="841" y="137"/>
      <point x="841" y="278" type="curve" smooth="yes"/>
      <point x="841" y="514"/>
      <point x="639" y="602"/>
      <point x="511" y="602" type="curve" smooth="yes"/>
      <point x="309" y="602"/>
      <point x="83" y="429"/>
      <point x="83" y="181" type="curve" smooth="yes"/>
      <point x="83" y="-60"/>
      <point x="276" y="-149"/>
    </contour>
    <contour>
      <point x="441" y="90" type="curve" smooth="yes"/>
      <point x="399" y="90"/>
      <point x="349" y="99"/>
      <point x="349" y="146" type="curve" smooth="yes"/>
      <point x="349" y="204"/>
      <point x="402" y="233"/>
      <point x="508" y="233" type="curve" smooth="yes"/>
      <point x="532" y="233"/>
      <point x="554" y="232"/>
      <point x="574" y="229" type="curve"/>
      <point x="566" y="167"/>
      <point x="573" y="90"/>
    </contour>
  </outline>
</glyph>
<glyph name="A" format="2">
  <advance width="643"/>
  <unicode hex="0041"/>
  <anchor x="323" y="0" name="bottom"/>
  <anchor x="643" y="10" name="ogonek"/>
  <anchor x="323" y="667" name="top"/>
  <outline>
    <contour>
      <point x="20" y="0" type="line"/>
      <point x="98" y="0" type="line"/>
      <point x="330" y="602" type="line"/>
      <point x="315" y="600" type="line"/>
      <point x="546" y="0" type="line"/>
      <point x="623" y="0" type="line"/>
      <point x="358" y="667" type="line"/>
      <point x="286" y="667" type="line"/>
    </contour>
    <contour>
      <point x="137" y="208" type="line"/>
      <point x="500" y="208" type="line"/>
      <point x="495" y="277" type="line"/>
      <point x="168" y="277" type="line"/>
    </contour>
  </outline>
</glyph>
<glyph name="B" format="2">
  <advance width="628"/>
  <unicode hex="0042"/>
  <outline>
    <contour>
      <point x="85" y="0" type="line"/>
      <point x="326" y="0" type="line" smooth="yes"/>
      <point x="476" y="0"/>
      <point x="568" y="56"/>
      <point x="568" y="189" type="curve" smooth="yes"/>
      <point x="568" y="296"/>
      <point x="492" y="344"/>
      <point x="440" y="363" type="curve"/>
      <point x="448" y="350" type="line"/>
      <point x="481" y="382"/>
      <point x="528" y="402"/>
      <point x="528" y="488" type="curve" smooth="yes"/>
      <point x="528" y="585"/>
      <point x="479" y="667"/>
      <point x="306" y="667" type="curve" smooth="yes"/>
      <point x="85" y="667" type="line"/>
    </contour>
    <contour>
      <point x="157" y="67" type="line"/>
      <point x="157" y="310" type="line"/>
      <point x="329" y="310" type="line" smooth="yes"/>
      <point x="407" y="310"/>
      <point x="496" y="300"/>
      <point x="496" y="193" type="curve" smooth="yes"/>
      <point x="496" y="86"/>
      <point x="418" y="67"/>
      <point x="332" y="67" type="curve" smooth="yes"/>
    </contour>
    <contour>
      <point x="157" y="378" type="line"/>
      <point x="157" y="598" type="line"/>
      <point x="313" y="598" type="line" smooth="yes"/>
      <point x="402" y="598"/>
      <point x="456" y="574"/>
      <point x="456" y="483" type="curve" smooth="yes"/>
      <point x="456" y="389"/>
      <point x="387" y="378"/>
      <point x="322" y="378" type="curve" smooth="yes"/>
    </contour>
  </outline>
</glyph>
<glyph name="C" format="2">
  <advance width="622"/>
  <unicode hex="0043"/>
  <anchor x="314" y="0" name="bottom"/>
  <anchor x="346" y="667" name="top"/>
  <outline>
    <contour>
      <point x="364" y="-8" type="curve" smooth="yes"/>
      <point x="434" y="-8"/>
      <point x="503" y="10"/>
      <point x="567" y="40" type="curve"/>
      <point x="567" y="109" type="line"/>
      <point x="505" y="75"/>
      <point x="440" y="60"/>
      <point x="372" y="60" type="curve" smooth="yes"/>
      <point x="203" y="60"/>
      <point x="130" y="144"/>
      <point x="130" y="334" type="curve" smooth="yes"/>
      <point x="130" y="523"/>
      <point x="203" y="608"/>
      <point x="372" y="608" type="curve" smooth="yes"/>
      <point x="440" y="608"/>
      <point x="505" y="591"/>
      <point x="567" y="558" type="curve"/>
      <point x="567" y="627" type="line"/>
      <point x="503" y="658"/>
      <point x="435" y="676"/>
      <point x="364" y="676" type="curve" smooth="yes"/>
      <point x="159" y="676"/>
      <point x="55" y="561"/>
      <point x="55" y="334" type="curve" smooth="yes"/>
      <point x="55" y="107"/>
      <point x="159" y="-8"/>
    </contour>
  </outline>
</glyph>
<glyph name="D" format="2">
  <advance width="667"/>
  <unicode hex="0044"/>
  <anchor x="333" y="0" name="bottom"/>
  <anchor x="129" y="334" name="center"/>
  <anchor x="273" y="667" name="top"/>
  <outline>
    <contour>
      <point x="85" y="0" type="line"/>
      <point x="294" y="0" type="line" smooth="yes"/>
      <point x="502" y="0"/>
      <point x="607" y="112"/>
      <point x="607" y="334" type="curve" smooth="yes"/>
      <point x="607" y="555"/>
      <point x="502" y="667"/>
      <point x="294" y="667" type="curve" smooth="yes"/>
      <point x="85" y="667" type="line"/>
    </contour>
    <contour>
      <point x="157" y="68" type="line"/>
      <point x="157" y="600" type="line"/>
      <point x="289" y="600" type="line" smooth="yes"/>
      <point x="459" y="600"/>
      <point x="533" y="518"/>
      <point x="533" y="334" type="curve" smooth="yes"/>
      <point x="533" y="150"/>
      <point x="459" y="68"/>
      <point x="289" y="68" type="curve" smooth="yes"/>
    </contour>
  </outline>
</glyph>
<glyph name="E" format="2">
  <advance width="581"/>
  <unicode hex="0045"/>
  <anchor x="281" y="0" name="bottom"/>
  <anchor x="527" y="10" name="ogonek"/>
  <anchor x="307" y="667" name="top"/>
  <anchor x="18" y="667" name="topleft"/>
  <outline>
    <contour>
      <point x="85" y="0" type="line"/>
      <point x="506" y="0" type="line"/>
      <point x="506" y="68" type="line"/>
      <point x="157" y="68" type="line"/>
      <point x="157" y="299" type="line"/>
      <point x="464" y="299" type="line"/>
      <point x="464" y="369" type="line"/>
      <point x="157" y="369" type="line"/>
      <point x="157" y="599" type="line"/>
      <point x="506" y="599" type="line"/>
      <point x="506" y="667" type="line"/>
      <point x="85" y="667" type="line"/>
    </contour>
  </outline>
</glyph>
<glyph name="F" format="2">
  <advance width="539"/>
  <unicode hex="0046"/>
  <anchor x="124" y="138" name="center"/>
  <outline>
    <contour>
      <point x="85" y="0" type="line"/>
      <point x="157" y="0" type="line"/>
      <point x="157" y="299" type="line"/>
      <point x="453" y="299" type="line"/>
      <point x="453" y="369" type="line"/>
      <point x="157" y="369" type="line"/>
      <point x="157" y="599" type="line"/>
      <point x="494" y="599" type="line"/>
      <point x="494" y="667" type="line"/>
      <point x="85" y="667" type="line"/>
    </contour>
  </outline>
</glyph>
<glyph name="G" format="2">
  <advance width="687"/>
  <unicode hex="0047"/>
  <anchor x="331" y="0" name="bottom"/>
  <anchor x="364" y="667" name="top"/>
  <outline>
    <contour>
      <point x="369" y="-10" type="curve" smooth="yes"/>
      <point x="451" y="-10"/>
      <point x="529" y="7"/>
      <point x="602" y="42" type="curve"/>
      <point x="602" y="343" type="line"/>
      <point x="369" y="343" type="line"/>
      <point x="369" y="273" type="line"/>
      <point x="530" y="273" type="line"/>
      <point x="530" y="83" type="line"/>
      <point x="481" y="67"/>
      <point x="430" y="59"/>
      <point x="377" y="59" type="curve" smooth="yes"/>
      <point x="208" y="59"/>
      <point x="132" y="145"/>
      <point x="132" y="334" type="curve" smooth="yes"/>
      <point x="132" y="522"/>
      <point x="208" y="608"/>
      <point x="377" y="608" type="curve" smooth="yes"/>
      <point x="448" y="608"/>
      <point x="516" y="584"/>
      <point x="579" y="556" type="curve"/>
      <point x="579" y="631" type="line"/>
      <point x="513" y="662"/>
      <point x="442" y="676"/>
      <point x="369" y="676" type="curve" smooth="yes"/>
      <point x="164" y="676"/>
      <point x="60" y="561"/>
      <point x="60" y="334" type="curve" smooth="yes"/>
      <point x="60" y="107"/>
      <point x="164" y="-10"/>
    </contour>
  </outline>
</glyph>
<glyph name="H" format="2">
  <advance width="669"/>
  <unicode hex="0048"/>
  <anchor x="335" y="0" name="bottom"/>
  <anchor x="335" y="525" name="center"/>
  <anchor x="335" y="667" name="top"/>
  <anchor x="18" y="667" name="topleft"/>
  <outline>
    <contour>
      <point x="85" y="0" type="line"/>
      <point x="157" y="0" type="line"/>
      <point x="157" y="299" type="line"/>
      <point x="512" y="299" type="line"/>
      <point x="512" y="0" type="line"/>
      <point x="584" y="0" type="line"/>
      <point x="584" y="667" type="line"/>
      <point x="512" y="667" type="line"/>
      <point x="512" y="367" type="line"/>
      <point x="157" y="367" type="line"/>
      <point x="157" y="667" type="line"/>
      <point x="85" y="667" type="line"/>
    </contour>
  </outline>
</glyph>
<glyph name="I" format="2">
  <advance width="242"/>
  <unicode hex="0049"/>
  <anchor x="121" y="0" name="bottom"/>
  <anchor x="179" y="10" name="ogonek"/>
  <anchor x="121" y="667" name="top"/>
  <anchor x="18" y="667" name="topleft"/>
  <outline>
    <contour>
      <point x="85" y="0" type="line"/>
      <point x="157" y="0" type="line"/>
      <point x="157" y="667" type="line"/>
      <point x="85" y="667" type="line"/>
    </contour>
  </outline>
</glyph>
<glyph name="J" format="2">
  <advance width="453"/>
  <unicode hex="004A"/>
  <anchor x="227" y="0" name="bottom"/>
  <anchor x="337" y="667" name="top"/>
  <outline>
    <contour>
      <point x="177" y="-8" type="curve" smooth="yes"/>
      <point x="264" y="-8"/>
      <point x="368" y="28"/>
      <point x="368" y="199" type="curve" smooth="yes"/>
      <point x="368" y="667" type="line"/>
      <point x="296" y="667" type="line"/>
      <point x="296" y="205" type="line" smooth="yes"/>
      <point x="296" y="103"/>
      <point x="259" y="62"/>
      <point x="168" y="62" type="curve" smooth="yes"/>
      <point x="118" y="62"/>
      <point x="78" y="79"/>
      <point x="45" y="102" type="curve"/>
      <point x="45" y="27" type="line"/>
      <point x="81" y="6"/>
      <point x="125" y="-8"/>
    </contour>
  </outline>
</glyph>
<glyph name="K" format="2">
  <advance width="613"/>
  <unicode hex="004B"/>
  <anchor x="317" y="0" name="bottom"/>
  <anchor x="317" y="667" name="top"/>
  <outline>
    <contour>
      <point x="149" y="213" type="line"/>
      <point x="565" y="667" type="line"/>
      <point x="473" y="667" type="line"/>
      <point x="149" y="307" type="line"/>
    </contour>
    <contour>
      <point x="85" y="0" type="line"/>
      <point x="157" y="0" type="line"/>
      <point x="157" y="667" type="line"/>
      <point x="85" y="667" type="line"/>
    </contour>
    <contour>
      <point x="261" y="376" type="line"/>
      <point x="207" y="327" type="line"/>
      <point x="488" y="0" type="line"/>
      <point x="588" y="0" type="line"/>
    </contour>
  </outline>
</glyph>
<glyph name="L" format="2">
  <advance width="523"/>
  <unicode hex="004C"/>
  <anchor x="269" y="0" name="bottom"/>
  <anchor x="321" y="334" name="center"/>
  <anchor x="125" y="667" name="top"/>
  <anchor x="518" y="667" name="topright"/>
  <outline>
    <contour>
      <point x="85" y="0" type="line"/>
      <point x="498" y="0" type="line"/>
      <point x="498" y="70" type="line"/>
      <point x="157" y="70" type="line"/>
      <point x="157" y="667" type="line"/>
      <point x="85" y="667" type="line"/>
    </contour>
  </outline>
</glyph>
<glyph name="M" format="2">
  <advance width="785"/>
  <unicode hex="004D"/>
  <anchor x="393" y="0" name="bottom"/>
  <anchor x="393" y="667" name="top"/>
  <outline>
    <contour>
      <point x="85" y="0" type="line"/>
      <point x="157" y="0" type="line"/>
      <point x="157" y="624" type="line"/>
      <point x="131" y="587" type="line"/>
      <point x="385" y="209" type="line"/>
      <point x="660" y="595" type="line"/>
      <point x="628" y="595" type="line"/>
      <point x="628" y="0" type="line"/>
      <point x="700" y="0" type="line"/>
      <point x="700" y="667" type="line"/>
      <point x="622" y="667" type="line"/>
      <point x="361" y="277" type="line"/>
      <point x="410" y="288" type="line"/>
      <point x="163" y="667" type="line"/>
      <point x="85" y="667" type="line"/>
    </contour>
  </outline>
</glyph>
<glyph name="N" format="2">
  <advance width="722"/>
  <unicode hex="004E"/>
  <anchor x="362" y="0" name="bottom"/>
  <anchor x="362" y="667" name="top"/>
  <outline>
    <contour>
      <point x="85" y="0" type="line"/>
      <point x="157" y="0" type="line"/>
      <point x="157" y="640" type="line"/>
      <point x="124" y="609" type="line"/>
      <point x="556" y="0" type="line"/>
      <point x="637" y="0" type="line"/>
      <point x="637" y="667" type="line"/>
      <point x="565" y="667" type="line"/>
      <point x="565" y="52" type="line"/>
      <point x="583" y="80" type="line"/>
      <point x="167" y="667" type="line"/>
      <point x="85" y="667" type="line"/>
    </contour>
  </outline>
</glyph>
<glyph name="O" format="2">
  <advance width="719"/>
  <unicode hex="004F"/>
  <anchor x="367" y="0" name="bottom"/>
  <anchor x="367" y="334" name="center"/>
  <anchor x="665" y="10" name="ogonek"/>
  <anchor x="367" y="667" name="top"/>
  <anchor x="13" y="667" name="topleft"/>
  <anchor x="439" y="667" name="topright"/>
  <outline>
    <contour>
      <point x="359" y="-10" type="curve"/>
      <point x="558" y="-10"/>
      <point x="659" y="106"/>
      <point x="659" y="333" type="curve"/>
      <point x="659" y="560"/>
      <point x="558" y="676"/>
      <point x="359" y="676" type="curve"/>
      <point x="161" y="676"/>
      <point x="60" y="560"/>
      <point x="60" y="333" type="curve"/>
      <point x="60" y="106"/>
      <point x="161" y="-10"/>
    </contour>
    <contour>
      <point x="359" y="58" type="curve"/>
      <point x="202" y="58"/>
      <point x="134" y="143"/>
      <point x="134" y="333" type="curve"/>
      <point x="134" y="522"/>
      <point x="202" y="608"/>
      <point x="359" y="608" type="curve"/>
      <point x="517" y="608"/>
      <point x="585" y="522"/>
      <point x="585" y="333" type="curve"/>
      <point x="585" y="143"/>
      <point x="517" y="58"/>
    </contour>
  </outline>
</glyph>
<glyph name="P" format="2">
  <advance width="613"/>
  <unicode hex="0050"/>
  <outline>
    <contour>
      <point x="157" y="255" type="line"/>
      <point x="322" y="255" type="line" smooth="yes"/>
      <point x="471" y="255"/>
      <point x="553" y="328"/>
      <point x="553" y="461" type="curve" smooth="yes"/>
      <point x="553" y="594"/>
      <point x="471" y="667"/>
      <point x="322" y="667" type="curve" smooth="yes"/>
      <point x="85" y="667" type="line"/>
      <point x="85" y="0" type="line"/>
      <point x="157" y="0" type="line"/>
    </contour>
    <contour>
      <point x="157" y="324" type="line"/>
      <point x="157" y="598" type="line"/>
      <point x="313" y="598" type="line" smooth="yes"/>
      <point x="462" y="598"/>
      <point x="481" y="525"/>
      <point x="481" y="461" type="curve" smooth="yes"/>
      <point x="481" y="397"/>
      <point x="462" y="324"/>
      <point x="313" y="324" type="curve" smooth="yes"/>
    </contour>
  </outline>
</glyph>
<glyph name="Q" format="2">
  <advance width="719"/>
  <unicode hex="0051"/>
  <outline>
    <contour>
      <point x="359" y="-10" type="curve"/>
      <point x="558" y="-10"/>
      <point x="659" y="106"/>
      <point x="659" y="333" type="curve"/>
      <point x="659" y="560"/>
      <point x="558" y="676"/>
      <point x="359" y="676" type="curve"/>
      <point x="161" y="676"/>
      <point x="60" y="560"/>
      <point x="60" y="333" type="curve"/>
      <point x="60" y="106"/>
      <point x="161" y="-10"/>
    </contour>
    <contour>
      <point x="359" y="58" type="curve"/>
      <point x="202" y="58"/>
      <point x="134" y="143"/>
      <point x="134" y="333" type="curve"/>
      <point x="134" y="522"/>
      <point x="202" y="608"/>
      <point x="359" y="608" type="curve"/>
      <point x="517" y="608"/>
      <point x="585" y="522"/>
      <point x="585" y="333" type="curve"/>
      <point x="585" y="143"/>
      <point x="519" y="64"/>
    </contour>
    <contour>
      <point x="599" y="-28" type="curve"/>
      <point x="570" y="-28"/>
      <point x="545" y="-7"/>
      <point x="514" y="52" type="curve" smooth="yes"/>
      <point x="478" y="121"/>
      <point x="421" y="199"/>
      <point x="328" y="199" type="curve" smooth="yes"/>
      <point x="268" y="199"/>
      <point x="230" y="170"/>
      <point x="208" y="153" type="curve"/>
      <point x="208" y="81" type="line"/>
      <point x="236" y="112"/>
      <point x="269" y="138"/>
      <point x="320" y="138" type="curve"/>
      <point x="393" y="138"/>
      <point x="421" y="76"/>
      <point x="451" y="16" type="curve" smooth="yes"/>
      <point x="483" y="-47"/>
      <point x="530" y="-90"/>
      <point x="591" y="-90" type="curve" smooth="yes"/>
      <point x="603" y="-90"/>
      <point x="628" y="-88"/>
      <point x="658" y="-72" type="curve"/>
      <point x="658" y="-8" type="line"/>
      <point x="630" y="-25"/>
      <point x="616" y="-28"/>
    </contour>
  </outline>
</glyph>
<glyph name="R" format="2">
  <advance width="631"/>
  <unicode hex="0052"/>
  <anchor x="316" y="0" name="bottom"/>
  <anchor x="296" y="667" name="top"/>
  <outline>
    <contour>
      <point x="85" y="0" type="line"/>
      <point x="157" y="0" type="line"/>
      <point x="157" y="269" type="line"/>
      <point x="339" y="269" type="line"/>
      <point x="303" y="306" type="line"/>
      <point x="501" y="0" type="line"/>
      <point x="586" y="0" type="line"/>
      <point x="394" y="293" type="line"/>
      <point x="364" y="273" type="line"/>
      <point x="479" y="273"/>
      <point x="556" y="357"/>
      <point x="556" y="473" type="curve" smooth="yes"/>
      <point x="556" y="601"/>
      <point x="489" y="667"/>
      <point x="359" y="667" type="curve" smooth="yes"/>
      <point x="85" y="667" type="line"/>
    </contour>
    <contour>
      <point x="157" y="337" type="line"/>
      <point x="157" y="599" type="line"/>
      <point x="351" y="599" type="line" smooth="yes"/>
      <point x="453" y="599"/>
      <point x="484" y="548"/>
      <point x="484" y="468" type="curve" smooth="yes"/>
      <point x="484" y="383"/>
      <point x="437" y="337"/>
      <point x="326" y="337" type="curve" smooth="yes"/>
    </contour>
  </outline>
</glyph>
<glyph name="S" format="2">
  <advance width="555"/>
  <unicode hex="0053"/>
  <anchor x="279" y="0" name="bottom"/>
  <anchor x="279" y="667" name="top"/>
  <outline>
    <contour>
      <point x="274" y="-10" type="curve" smooth="yes"/>
      <point x="443" y="-10"/>
      <point x="495" y="89"/>
      <point x="495" y="179" type="curve" smooth="yes"/>
      <point x="495" y="306"/>
      <point x="391" y="344"/>
      <point x="298" y="376" type="curve" smooth="yes"/>
      <point x="210" y="406"/>
      <point x="150" y="429"/>
      <point x="150" y="511" type="curve" smooth="yes"/>
      <point x="150" y="563"/>
      <point x="187" y="611"/>
      <point x="285" y="611" type="curve" smooth="yes"/>
      <point x="366" y="611"/>
      <point x="404" y="585"/>
      <point x="456" y="556" type="curve"/>
      <point x="456" y="630" type="line"/>
      <point x="394" y="660"/>
      <point x="359" y="677"/>
      <point x="281" y="677" type="curve" smooth="yes"/>
      <point x="128" y="677"/>
      <point x="77" y="579"/>
      <point x="77" y="506" type="curve" smooth="yes"/>
      <point x="77" y="375"/>
      <point x="173" y="343"/>
      <point x="264" y="312" type="curve"/>
      <point x="344" y="281"/>
      <point x="422" y="255"/>
      <point x="422" y="171" type="curve" smooth="yes"/>
      <point x="422" y="104"/>
      <point x="378" y="56"/>
      <point x="277" y="56" type="curve" smooth="yes"/>
      <point x="181" y="56"/>
      <point x="108" y="89"/>
      <point x="65" y="125" type="curve"/>
      <point x="65" y="47" type="line"/>
      <point x="130" y="12"/>
      <point x="173" y="-10"/>
    </contour>
  </outline>
</glyph>
<glyph name="T" format="2">
  <advance width="583"/>
  <unicode hex="0054"/>
  <anchor x="292" y="0" name="bottom"/>
  <anchor x="292" y="334" name="center"/>
  <anchor x="292" y="667" name="top"/>
  <outline>
    <contour>
      <point x="256" y="0" type="line"/>
      <point x="328" y="0" type="line"/>
      <point x="328" y="599" type="line"/>
      <point x="563" y="599" type="line"/>
      <point x="563" y="667" type="line"/>
      <point x="20" y="667" type="line"/>
      <point x="20" y="599" type="line"/>
      <point x="256" y="599" type="line"/>
    </contour>
  </outline>
</glyph>
<glyph name="U" format="2">
  <advance width="692"/>
  <unicode hex="0055"/>
  <anchor x="346" y="0" name="bottom"/>
  <anchor x="453" y="10" name="ogonek"/>
  <anchor x="346" y="667" name="top"/>
  <anchor x="599" y="559" name="topright"/>
  <outline>
    <contour>
      <point x="346" y="-10" type="curve" smooth="yes"/>
      <point x="511" y="-10"/>
      <point x="607" y="90"/>
      <point x="607" y="272" type="curve" smooth="yes"/>
      <point x="607" y="667" type="line"/>
      <point x="537" y="667" type="line"/>
      <point x="537" y="268" type="line" smooth="yes"/>
      <point x="537" y="125"/>
      <point x="470" y="58"/>
      <point x="346" y="58" type="curve" smooth="yes"/>
      <point x="222" y="58"/>
      <point x="157" y="125"/>
      <point x="157" y="268" type="curve" smooth="yes"/>
      <point x="157" y="667" type="line"/>
      <point x="85" y="667" type="line"/>
      <point x="85" y="272" type="line" smooth="yes"/>
      <point x="85" y="90"/>
      <point x="181" y="-10"/>
    </contour>
  </outline>
</glyph>
<glyph name="V" format="2">
  <advance width="623"/>
  <unicode hex="0056"/>
  <outline>
    <contour>
      <point x="276" y="0" type="line"/>
      <point x="347" y="0" type="line"/>
      <point x="603" y="667" type="line"/>
      <point x="529" y="665" type="line"/>
      <point x="302" y="61" type="line"/>
      <point x="328" y="61" type="line"/>
      <point x="97" y="667" type="line"/>
      <point x="20" y="667" type="line"/>
    </contour>
  </outline>
</glyph>
<glyph name="W" format="2">
  <advance width="976"/>
  <unicode hex="0057"/>
  <anchor x="489" y="0" name="bottom"/>
  <anchor x="489" y="667" name="top"/>
  <outline>
    <contour>
      <point x="239" y="0" type="line"/>
      <point x="313" y="0" type="line"/>
      <point x="500" y="591" type="line"/>
      <point x="476" y="591" type="line"/>
      <point x="663" y="0" type="line"/>
      <point x="736" y="0" type="line"/>
      <point x="951" y="667" type="line"/>
      <point x="875" y="667" type="line"/>
      <point x="684" y="53" type="line"/>
      <point x="712" y="53" type="line"/>
      <point x="524" y="667" type="line"/>
      <point x="452" y="667" type="line"/>
      <point x="270" y="62" type="line"/>
      <point x="292" y="62" type="line"/>
      <point x="101" y="667" type="line"/>
      <point x="25" y="667" type="line"/>
    </contour>
  </outline>
</glyph>
<glyph name="X" format="2">
  <advance width="589"/>
  <unicode hex="0058"/>
  <outline>
    <contour>
      <point x="573" y="0" type="line"/>
      <point x="104" y="667" type="line"/>
      <point x="18" y="667" type="line"/>
      <point x="487" y="0" type="line"/>
    </contour>
    <contour>
      <point x="285" y="388" type="line"/>
      <point x="331" y="328" type="line"/>
      <point x="569" y="667" type="line"/>
      <point x="481" y="667" type="line"/>
    </contour>
    <contour>
      <point x="314" y="305" type="line"/>
      <point x="255" y="347" type="line"/>
      <point x="12" y="0" type="line"/>
      <point x="100" y="0" type="line"/>
    </contour>
  </outline>
</glyph>
<glyph name="Y" format="2">
  <advance width="598"/>
  <unicode hex="0059"/>
  <anchor x="299" y="0" name="bottom"/>
  <anchor x="305" y="667" name="top"/>
  <anchor x="20" y="667" name="topleft"/>
  <outline>
    <contour>
      <point x="261" y="0" type="line"/>
      <point x="333" y="0" type="line"/>
      <point x="333" y="335" type="line"/>
      <point x="321" y="289" type="line"/>
      <point x="581" y="667" type="line"/>
      <point x="494" y="667" type="line"/>
      <point x="287" y="361" type="line"/>
      <point x="310" y="355" type="line"/>
      <point x="99" y="667" type="line"/>
      <point x="12" y="667" type="line"/>
      <point x="261" y="306" type="line"/>
    </contour>
  </outline>
</glyph>
<glyph name="Z" format="2">
  <advance width="609"/>
  <unicode hex="005A"/>
  <anchor x="305" y="0" name="bottom"/>
  <anchor x="305" y="667" name="top"/>
  <outline>
    <contour>
      <point x="64" y="0" type="line"/>
      <point x="539" y="0" type="line"/>
      <point x="539" y="68" type="line"/>
      <point x="125" y="68" type="line"/>
      <point x="134" y="41" type="line"/>
      <point x="539" y="606" type="line"/>
      <point x="539" y="667" type="line"/>
      <point x="74" y="667" type="line"/>
      <point x="74" y="599" type="line"/>
      <point x="492" y="599" type="line"/>
      <point x="478" y="632" type="line"/>
      <point x="64" y="63" type="line"/>
    </contour>
  </outline>
</glyph>
<glyph name="bracketleft" format="2">
  <advance width="383"/>
  <unicode hex="005B"/>
  <outline>
    <contour>
      <point x="119" y="-116" type="line"/>
      <point x="300" y="-116" type="line"/>
      <point x="300" y="-48" type="line"/>
      <point x="191" y="-48" type="line"/>
      <point x="191" y="628" type="line"/>
      <point x="300" y="628" type="line"/>
      <point x="300" y="696" type="line"/>
      <point x="119" y="696" type="line"/>
    </contour>
  </outline>
</glyph>
<glyph name="backslash" format="2">
  <advance width="368"/>
  <unicode hex="005C"/>
  <outline>
    <contour>
      <point x="331" y="-98" type="line"/>
      <point x="396" y="-98" type="line"/>
      <point x="29" y="756" type="line"/>
      <point x="-37" y="756" type="line"/>
    </contour>
  </outline>
</glyph>
<glyph name="bracketright" format="2">
  <advance width="381"/>
  <unicode hex="005D"/>
  <outline>
    <contour>
      <point x="84" y="-116" type="line"/>
      <point x="264" y="-116" type="line"/>
      <point x="264" y="696" type="line"/>
      <point x="84" y="696" type="line"/>
      <point x="84" y="628" type="line"/>
      <point x="192" y="628" type="line"/>
      <point x="192" y="-48" type="line"/>
      <point x="84" y="-48" type="line"/>
    </contour>
  </outline>
</glyph>
<glyph name="asciicircum" format="2">
  <advance width="560"/>
  <unicode hex="005E"/>
  <outline>
    <contour>
      <point x="134" y="473" type="line"/>
      <point x="194" y="473" type="line"/>
      <point x="266" y="632" type="line"/>
      <point x="337" y="473" type="line"/>
      <point x="397" y="473" type="line"/>
      <point x="293" y="690" type="line"/>
      <point x="238" y="690" type="line"/>
    </contour>
  </outline>
</glyph>
<glyph name="underscore" format="2">
  <advance width="546"/>
  <unicode hex="005F"/>
  <outline>
    <contour>
      <point x="0" y="-68" type="line"/>
      <point x="546" y="-68" type="line"/>
      <point x="546" y="-24" type="line"/>
      <point x="0" y="-24" type="line"/>
    </contour>
  </outline>
</glyph>
<glyph name="grave" format="2">
  <advance width="219"/>
  <unicode hex="0060"/>
  <outline>
    <contour>
      <point x="129" y="564" type="line"/>
      <point x="176" y="564" type="line"/>
      <point x="119" y="679" type="line"/>
      <point x="46" y="679" type="line"/>
    </contour>
  </outline>
</glyph>
<glyph name="a" format="2">
  <advance width="554"/>
  <unicode hex="0061"/>
  <anchor x="271" y="0" name="bottom"/>
  <anchor x="468" y="40" name="ogonek"/>
  <anchor x="291" y="499" name="top"/>
  <outline>
    <contour>
      <point x="252" y="-15" type="curve"/>
      <point x="368" y="-15"/>
      <point x="474" y="0"/>
      <point x="474" y="106" type="curve"/>
      <point x="474" y="348" type="line"/>
      <point x="474" y="455"/>
      <point x="402" y="508"/>
      <point x="293" y="508" type="curve"/>
      <point x="227" y="508"/>
      <point x="150" y="493"/>
      <point x="109" y="467" type="curve"/>
      <point x="109" y="395" type="line"/>
      <point x="151" y="428"/>
      <point x="216" y="443"/>
      <point x="270" y="443" type="curve" smooth="yes"/>
      <point x="354" y="443"/>
      <point x="401" y="408"/>
      <point x="401" y="331" type="curve"/>
      <point x="401" y="102" type="line"/>
      <point x="401" y="57"/>
      <point x="355" y="49"/>
      <point x="269" y="49" type="curve"/>
      <point x="203" y="49"/>
      <point x="132" y="73"/>
      <point x="132" y="148" type="curve"/>
      <point x="132" y="209"/>
      <point x="179" y="242"/>
      <point x="263" y="242" type="curve"/>
      <point x="332" y="242"/>
      <point x="394" y="222"/>
      <point x="425" y="200" type="curve"/>
      <point x="411" y="266" type="line"/>
      <point x="373" y="290"/>
      <point x="325" y="307"/>
      <point x="244" y="307" type="curve"/>
      <point x="136" y="307"/>
      <point x="60" y="261"/>
      <point x="60" y="137" type="curve"/>
      <point x="60" y="17"/>
      <point x="165" y="-15"/>
    </contour>
  </outline>
</glyph>
<glyph name="b" format="2">
  <advance width="569"/>
  <unicode hex="0062"/>
  <outline>
    <contour>
      <point x="277" y="-15" type="curve"/>
      <point x="377" y="-16"/>
      <point x="513" y="27"/>
      <point x="514" y="256" type="curve"/>
      <point x="514" y="410"/>
      <point x="440" y="507"/>
      <point x="286" y="507" type="curve"/>
      <point x="242" y="507"/>
      <point x="166" y="487"/>
      <point x="127" y="467" type="curve"/>
      <point x="152" y="442" type="line"/>
      <point x="152" y="710" type="line"/>
      <point x="80" y="710" type="line"/>
      <point x="80" y="85" type="line" smooth="yes"/>
      <point x="80" y="6"/>
      <point x="173" y="-15"/>
    </contour>
    <contour>
      <point x="270" y="51" type="curve"/>
      <point x="222" y="51"/>
      <point x="152" y="58"/>
      <point x="152" y="102" type="curve"/>
      <point x="152" y="406" type="line"/>
      <point x="193" y="430"/>
      <point x="244" y="441"/>
      <point x="286" y="441" type="curve"/>
      <point x="395" y="441"/>
      <point x="438" y="365"/>
      <point x="438" y="256" type="curve"/>
      <point x="438" y="148"/>
      <point x="411" y="51"/>
    </contour>
  </outline>
</glyph>
<glyph name="c" format="2">
  <advance width="492"/>
  <unicode hex="0063"/>
  <anchor x="246" y="0" name="bottom"/>
  <anchor x="266" y="499" name="top"/>
  <outline>
    <contour>
      <point x="289" y="-8" type="curve" smooth="yes"/>
      <point x="340" y="-8"/>
      <point x="390" y="1"/>
      <point x="437" y="19" type="curve"/>
      <point x="437" y="89" type="line"/>
      <point x="393" y="70"/>
      <point x="346" y="61"/>
      <point x="297" y="61" type="curve" smooth="yes"/>
      <point x="178" y="61"/>
      <point x="127" y="117"/>
      <point x="127" y="250" type="curve" smooth="yes"/>
      <point x="127" y="382"/>
      <point x="178" y="439"/>
      <point x="297" y="439" type="curve" smooth="yes"/>
      <point x="346" y="439"/>
      <point x="393" y="429"/>
      <point x="437" y="411" type="curve"/>
      <point x="437" y="480" type="line"/>
      <point x="390" y="498"/>
      <point x="340" y="508"/>
      <point x="289" y="508" type="curve" smooth="yes"/>
      <point x="182" y="508"/>
      <point x="55" y="463"/>
      <point x="55" y="250" type="curve" smooth="yes"/>
      <point x="55" y="36"/>
      <point x="182" y="-8"/>
    </contour>
  </outline>
</glyph>
<glyph name="d" format="2">
  <advance width="569"/>
  <unicode hex="0064"/>
  <anchor x="296" y="0" name="bottom"/>
  <anchor x="432" y="604" name="center"/>
  <anchor x="296" y="499" name="top"/>
  <anchor x="557" y="499" name="topright"/>
  <outline>
    <contour>
      <point x="287" y="-15" type="curve"/>
      <point x="369" y="-14"/>
      <point x="489" y="11"/>
      <point x="489" y="86" type="curve"/>
      <point x="489" y="710" type="line"/>
      <point x="417" y="710" type="line"/>
      <point x="417" y="442" type="line"/>
      <point x="442" y="467" type="line"/>
      <point x="403" y="487"/>
      <point x="327" y="507"/>
      <point x="283" y="507" type="curve"/>
      <point x="129" y="507"/>
      <point x="55" y="410"/>
      <point x="55" y="256" type="curve"/>
      <point x="56" y="27"/>
      <point x="192" y="-16"/>
    </contour>
    <contour>
      <point x="288" y="51" type="curve"/>
      <point x="158" y="51"/>
      <point x="131" y="148"/>
      <point x="131" y="256" type="curve"/>
      <point x="131" y="365"/>
      <point x="174" y="441"/>
      <point x="283" y="441" type="curve"/>
      <point x="325" y="441"/>
      <point x="376" y="430"/>
      <point x="417" y="406" type="curve"/>
      <point x="417" y="93" type="line"/>
      <point x="417" y="69"/>
      <point x="357" y="51"/>
    </contour>
  </outline>
</glyph>
<glyph name="e" format="2">
  <advance width="547"/>
  <unicode hex="0065"/>
  <anchor x="283" y="0" name="bottom"/>
  <anchor x="481" y="32" name="ogonek"/>
  <anchor x="283" y="499" name="top"/>
  <outline>
    <contour>
      <point x="286" y="-15" type="curve"/>
      <point x="355" y="-15"/>
      <point x="413" y="-3"/>
      <point x="461" y="20" type="curve"/>
      <point x="461" y="94" type="line"/>
      <point x="420" y="69"/>
      <point x="363" y="51"/>
      <point x="290" y="51" type="curve"/>
      <point x="187" y="51"/>
      <point x="128" y="116"/>
      <point x="128" y="237" type="curve"/>
      <point x="128" y="397"/>
      <point x="175" y="442"/>
      <point x="274" y="442" type="curve"/>
      <point x="368" y="442"/>
      <point x="413" y="393"/>
      <point x="417" y="293" type="curve"/>
      <point x="445" y="303" type="line"/>
      <point x="96" y="303" type="line"/>
      <point x="91" y="237" type="line"/>
      <point x="492" y="237" type="line"/>
      <point x="494" y="390"/>
      <point x="434" y="508"/>
      <point x="274" y="508" type="curve"/>
      <point x="138" y="508"/>
      <point x="55" y="422"/>
      <point x="55" y="250" type="curve"/>
      <point x="55" y="74"/>
      <point x="143" y="-15"/>
    </contour>
  </outline>
</glyph>
<glyph name="f" format="2">
  <advance width="375"/>
  <unicode hex="0066"/>
  <outline>
    <contour>
      <point x="126" y="0" type="line"/>
      <point x="198" y="0" type="line"/>
      <point x="198" y="433" type="line"/>
      <point x="335" y="433" type="line"/>
      <point x="335" y="499" type="line"/>
      <point x="198" y="499" type="line"/>
      <point x="198" y="527" type="line" smooth="yes"/>
      <point x="198" y="643"/>
      <point x="253" y="643"/>
      <point x="299" y="643" type="curve" smooth="yes"/>
      <point x="313" y="643"/>
      <point x="325" y="641"/>
      <point x="335" y="639" type="curve"/>
      <point x="335" y="703" type="line"/>
      <point x="321" y="707"/>
      <point x="305" y="709"/>
      <point x="287" y="709" type="curve" smooth="yes"/>
      <point x="247" y="709"/>
      <point x="126" y="709"/>
      <point x="126" y="526" type="curve" smooth="yes"/>
      <point x="126" y="499" type="line"/>
      <point x="40" y="499" type="line"/>
      <point x="40" y="433" type="line"/>
      <point x="126" y="433" type="line"/>
    </contour>
  </outline>
</glyph>
<glyph name="g" format="2">
  <advance width="569"/>
  <unicode hex="0067"/>
  <anchor x="290" y="0" name="bottom"/>
  <anchor x="311" y="499" name="top"/>
  <outline>
    <contour>
      <point x="283" y="-15" type="curve"/>
      <point x="327" y="-15"/>
      <point x="403" y="5"/>
      <point x="442" y="25" type="curve"/>
      <point x="417" y="50" type="line"/>
      <point x="417" y="-23" type="line" smooth="yes"/>
      <point x="417" y="-73"/>
      <point x="399" y="-130"/>
      <point x="264" y="-130" type="curve" smooth="yes"/>
      <point x="208" y="-130"/>
      <point x="162" y="-116"/>
      <point x="130" y="-107" type="curve"/>
      <point x="130" y="-175" type="line"/>
      <point x="166" y="-184"/>
      <point x="214" y="-198"/>
      <point x="272" y="-198" type="curve" smooth="yes"/>
      <point x="451" y="-198"/>
      <point x="489" y="-100"/>
      <point x="489" y="-21" type="curve"/>
      <point x="489" y="383" type="line"/>
      <point x="489" y="472"/>
      <point x="395" y="507"/>
      <point x="302" y="507" type="curve"/>
      <point x="192" y="508"/>
      <point x="56" y="465"/>
      <point x="55" y="236" type="curve"/>
      <point x="55" y="82"/>
      <point x="129" y="-15"/>
    </contour>
    <contour>
      <point x="283" y="51" type="curve"/>
      <point x="174" y="51"/>
      <point x="131" y="127"/>
      <point x="131" y="236" type="curve"/>
      <point x="131" y="344"/>
      <point x="158" y="441"/>
      <point x="304" y="441" type="curve"/>
      <point x="364" y="441"/>
      <point x="417" y="429"/>
      <point x="417" y="373" type="curve"/>
      <point x="417" y="86" type="line"/>
      <point x="376" y="62"/>
      <point x="325" y="51"/>
    </contour>
  </outline>
</glyph>
<glyph name="h" format="2">
  <advance width="575"/>
  <unicode hex="0068"/>
  <anchor x="284" y="0" name="bottom"/>
  <anchor x="112" y="604" name="center"/>
  <anchor x="113" y="720" name="top"/>
  <outline>
    <contour>
      <point x="80" y="0" type="line"/>
      <point x="152" y="0" type="line"/>
      <point x="152" y="402" type="line"/>
      <point x="201" y="429"/>
      <point x="248" y="442"/>
      <point x="295" y="442" type="curve"/>
      <point x="380" y="442"/>
      <point x="423" y="389"/>
      <point x="423" y="296" type="curve"/>
      <point x="423" y="0" type="line"/>
      <point x="495" y="0" type="line"/>
      <point x="495" y="296" type="line"/>
      <point x="495" y="441"/>
      <point x="426" y="508"/>
      <point x="303" y="508" type="curve"/>
      <point x="253" y="508"/>
      <point x="195" y="490"/>
      <point x="144" y="462" type="curve"/>
      <point x="152" y="443" type="line"/>
      <point x="152" y="720" type="line"/>
      <point x="80" y="720" type="line"/>
    </contour>
  </outline>
</glyph>
<glyph name="i" format="2">
  <advance width="240"/>
  <unicode hex="0069"/>
  <anchor x="118" y="0" name="bottom"/>
  <anchor x="178" y="10" name="ogonek"/>
  <outline>
    <contour>
      <point x="84" y="0" type="line"/>
      <point x="156" y="0" type="line"/>
      <point x="156" y="499" type="line"/>
      <point x="84" y="499" type="line"/>
    </contour>
    <contour>
      <point x="80" y="588" type="line"/>
      <point x="160" y="588" type="line"/>
      <point x="160" y="667" type="line"/>
      <point x="80" y="667" type="line"/>
    </contour>
  </outline>
</glyph>
<glyph name="j" format="2">
  <advance width="268"/>
  <unicode hex="006A"/>
  <outline>
    <contour>
      <point x="10" y="-193" type="line"/>
      <point x="127" y="-193"/>
      <point x="184" y="-139"/>
      <point x="184" y="-29" type="curve" smooth="yes"/>
      <point x="184" y="499" type="line"/>
      <point x="112" y="499" type="line"/>
      <point x="112" y="-25" type="line" smooth="yes"/>
      <point x="112" y="-90"/>
      <point x="97" y="-124"/>
      <point x="10" y="-126" type="curve"/>
    </contour>
    <contour>
      <point x="108" y="588" type="line"/>
      <point x="188" y="588" type="line"/>
      <point x="188" y="667" type="line"/>
      <point x="108" y="667" type="line"/>
    </contour>
  </outline>
</glyph>
<glyph name="k" format="2">
  <advance width="511"/>
  <unicode hex="006B"/>
  <outline>
    <contour>
      <point x="136" y="299" type="line"/>
      <point x="152" y="240" type="line"/>
      <point x="445" y="499" type="line"/>
      <point x="355" y="499" type="line"/>
    </contour>
    <contour>
      <point x="152" y="0" type="line"/>
      <point x="152" y="689" type="line"/>
      <point x="80" y="689" type="line"/>
      <point x="80" y="0" type="line"/>
    </contour>
    <contour>
      <point x="172" y="311" type="line"/>
      <point x="123" y="265" type="line"/>
      <point x="385" y="0" type="line"/>
      <point x="481" y="0" type="line"/>
    </contour>
  </outline>
</glyph>
<glyph name="l" format="2">
  <advance width="232"/>
  <unicode hex="006C"/>
  <anchor x="116" y="0" name="bottom"/>
  <anchor x="256" y="320" name="center"/>
  <anchor x="116" y="689" name="top"/>
  <anchor x="207" y="499" name="topright"/>
  <outline>
    <contour>
      <point x="152" y="0" type="line"/>
      <point x="152" y="689" type="line"/>
      <point x="80" y="689" type="line"/>
      <point x="80" y="0" type="line"/>
    </contour>
  </outline>
</glyph>
<glyph name="m" format="2">
  <advance width="883"/>
  <unicode hex="006D"/>
  <anchor x="442" y="0" name="bottom"/>
  <anchor x="442" y="499" name="top"/>
  <outline>
    <contour>
      <point x="489" y="325" type="line"/>
      <point x="489" y="441"/>
      <point x="436" y="508"/>
      <point x="291" y="508" type="curve"/>
      <point x="216" y="508"/>
      <point x="145" y="492"/>
      <point x="80" y="459" type="curve"/>
      <point x="80" y="0" type="line"/>
      <point x="152" y="0" type="line"/>
      <point x="152" y="423" type="line"/>
      <point x="197" y="436"/>
      <point x="241" y="443"/>
      <point x="283" y="443" type="curve"/>
      <point x="403" y="443"/>
      <point x="417" y="372"/>
      <point x="417" y="325" type="curve"/>
      <point x="417" y="0" type="line"/>
      <point x="489" y="0" type="line"/>
    </contour>
    <contour>
      <point x="394" y="439" type="curve"/>
      <point x="466" y="403" type="line"/>
      <point x="511" y="432"/>
      <point x="555" y="443"/>
      <point x="597" y="443" type="curve"/>
      <point x="717" y="443"/>
      <point x="731" y="372"/>
      <point x="731" y="325" type="curve"/>
      <point x="731" y="0" type="line"/>
      <point x="803" y="0" type="line"/>
      <point x="803" y="325" type="line"/>
      <point x="803" y="441"/>
      <point x="750" y="508"/>
      <point x="605" y="508" type="curve"/>
      <point x="530" y="508"/>
      <point x="459" y="488"/>
    </contour>
  </outline>
</glyph>
<glyph name="n" format="2">
  <advance width="569"/>
  <unicode hex="006E"/>
  <anchor x="286" y="0" name="bottom"/>
  <anchor x="286" y="499" name="top"/>
  <outline>
    <contour>
      <point x="80" y="459" type="curve"/>
      <point x="80" y="0" type="line"/>
      <point x="152" y="0" type="line"/>
      <point x="152" y="423" type="line"/>
      <point x="197" y="436"/>
      <point x="241" y="443"/>
      <point x="283" y="443" type="curve"/>
      <point x="403" y="443"/>
      <point x="417" y="372"/>
      <point x="417" y="325" type="curve"/>
      <point x="417" y="0" type="line"/>
      <point x="489" y="0" type="line"/>
      <point x="489" y="325" type="line"/>
      <point x="489" y="441"/>
      <point x="436" y="508"/>
      <point x="291" y="508" type="curve"/>
      <point x="216" y="508"/>
      <point x="145" y="492"/>
    </contour>
  </outline>
</glyph>
<glyph name="o" format="2">
  <advance width="569"/>
  <unicode hex="006F"/>
  <anchor x="287" y="0" name="bottom"/>
  <anchor x="287" y="250" name="center"/>
  <anchor x="402" y="10" name="ogonek"/>
  <anchor x="287" y="499" name="top"/>
  <anchor x="415" y="522" name="topright"/>
  <outline>
    <contour>
      <point x="285" y="-15" type="curve"/>
      <point x="432" y="-15"/>
      <point x="514" y="84"/>
      <point x="514" y="248" type="curve"/>
      <point x="514" y="403"/>
      <point x="444" y="508"/>
      <point x="283" y="508" type="curve"/>
      <point x="137" y="508"/>
      <point x="55" y="421"/>
      <point x="55" y="248" type="curve"/>
      <point x="55" y="82"/>
      <point x="129" y="-15"/>
    </contour>
    <contour>
      <point x="284" y="51" type="curve"/>
      <point x="168" y="51"/>
      <point x="127" y="130"/>
      <point x="127" y="248" type="curve"/>
      <point x="127" y="357"/>
      <point x="164" y="442"/>
      <point x="284" y="442" type="curve"/>
      <point x="401" y="442"/>
      <point x="442" y="366"/>
      <point x="442" y="248" type="curve"/>
      <point x="442" y="138"/>
      <point x="405" y="51"/>
    </contour>
  </outline>
</glyph>
<glyph name="q" format="2">
  <advance width="569"/>
  <unicode hex="0071"/>
  <outline>
    <contour>
      <point x="309" y="508" type="curve"/>
      <point x="192" y="509"/>
      <point x="56" y="466"/>
      <point x="55" y="237" type="curve"/>
      <point x="55" y="83"/>
      <point x="139" y="-14"/>
      <point x="293" y="-14" type="curve"/>
      <point x="337" y="-14"/>
      <point x="403" y="6"/>
      <point x="442" y="26" type="curve"/>
      <point x="417" y="51" type="line"/>
      <point x="417" y="-217" type="line"/>
      <point x="489" y="-217" type="line"/>
      <point x="489" y="389" type="line"/>
      <point x="489" y="483"/>
      <point x="400" y="508"/>
    </contour>
    <contour>
      <point x="302" y="442" type="curve"/>
      <point x="352" y="442"/>
      <point x="417" y="426"/>
      <point x="417" y="389" type="curve"/>
      <point x="417" y="87" type="line"/>
      <point x="376" y="63"/>
      <point x="335" y="52"/>
      <point x="293" y="52" type="curve"/>
      <point x="184" y="52"/>
      <point x="131" y="128"/>
      <point x="131" y="237" type="curve"/>
      <point x="131" y="345"/>
      <point x="158" y="442"/>
    </contour>
  </outline>
</glyph>
<glyph name="r" format="2">
  <advance width="377"/>
  <unicode hex="0072"/>
  <anchor x="98" y="0" name="bottom"/>
  <anchor x="181" y="499" name="top"/>
  <outline>
    <contour>
      <point x="80" y="0" type="line"/>
      <point x="152" y="0" type="line"/>
      <point x="152" y="424" type="line"/>
      <point x="213" y="435"/>
      <point x="273" y="446"/>
      <point x="342" y="438" type="curve"/>
      <point x="342" y="502" type="line"/>
      <point x="331" y="505"/>
      <point x="320" y="508"/>
      <point x="310" y="508" type="curve" smooth="yes"/>
      <point x="205" y="508"/>
      <point x="104" y="469"/>
      <point x="80" y="459" type="curve"/>
    </contour>
  </outline>
</glyph>
<glyph name="s" format="2">
  <advance width="456"/>
  <unicode hex="0073"/>
  <anchor x="203" y="0" name="bottom"/>
  <anchor x="233" y="499" name="top"/>
  <outline>
    <contour>
      <point x="221" y="-15" type="curve"/>
      <point x="307" y="-15"/>
      <point x="401" y="32"/>
      <point x="401" y="139" type="curve"/>
      <point x="401" y="242"/>
      <point x="314" y="265"/>
      <point x="247" y="286" type="curve"/>
      <point x="185" y="303"/>
      <point x="129" y="319"/>
      <point x="129" y="375" type="curve"/>
      <point x="129" y="420"/>
      <point x="180" y="442"/>
      <point x="235" y="442" type="curve"/>
      <point x="289" y="442"/>
      <point x="323" y="423"/>
      <point x="374" y="397" type="curve"/>
      <point x="374" y="469" type="line"/>
      <point x="329" y="489"/>
      <point x="291" y="508"/>
      <point x="231" y="508" type="curve"/>
      <point x="148" y="508"/>
      <point x="57" y="466"/>
      <point x="57" y="365" type="curve"/>
      <point x="57" y="262"/>
      <point x="146" y="241"/>
      <point x="224" y="219" type="curve"/>
      <point x="275" y="196"/>
      <point x="329" y="186"/>
      <point x="329" y="130" type="curve"/>
      <point x="329" y="83"/>
      <point x="283" y="51"/>
      <point x="216" y="51" type="curve"/>
      <point x="152" y="51"/>
      <point x="116" y="68"/>
      <point x="55" y="103" type="curve"/>
      <point x="55" y="27" type="line"/>
      <point x="107" y="0"/>
      <point x="149" y="-15"/>
    </contour>
  </outline>
</glyph>
<glyph name="t" format="2">
  <advance width="363"/>
  <unicode hex="0074"/>
  <anchor x="174" y="0" name="bottom"/>
  <anchor x="154" y="250" name="center"/>
  <anchor x="144" y="639" name="top"/>
  <anchor x="343" y="499" name="topright"/>
  <outline>
    <contour>
      <point x="237" y="-8" type="curve" smooth="yes"/>
      <point x="262" y="-8"/>
      <point x="294" y="-3"/>
      <point x="313" y="4" type="curve"/>
      <point x="313" y="72" type="line"/>
      <point x="298" y="65"/>
      <point x="274" y="60"/>
      <point x="250" y="60" type="curve" smooth="yes"/>
      <point x="197" y="60"/>
      <point x="184" y="88"/>
      <point x="184" y="144" type="curve" smooth="yes"/>
      <point x="184" y="433" type="line"/>
      <point x="313" y="433" type="line"/>
      <point x="313" y="499" type="line"/>
      <point x="184" y="499" type="line"/>
      <point x="184" y="640" type="line"/>
      <point x="112" y="640" type="line"/>
      <point x="112" y="499" type="line"/>
      <point x="25" y="499" type="line"/>
      <point x="25" y="433" type="line"/>
      <point x="112" y="433" type="line"/>
      <point x="112" y="121" type="line" smooth="yes"/>
      <point x="112" y="36"/>
      <point x="166" y="-8"/>
    </contour>
  </outline>
</glyph>
<glyph name="u" format="2">
  <advance width="578"/>
  <unicode hex="0075"/>
  <anchor x="289" y="0" name="bottom"/>
  <anchor x="410" y="10" name="ogonek"/>
  <anchor x="289" y="499" name="top"/>
  <anchor x="513" y="522" name="topright"/>
  <outline>
    <contour>
      <point x="289" y="-15" type="curve"/>
      <point x="422" y="-15"/>
      <point x="498" y="56"/>
      <point x="498" y="183" type="curve"/>
      <point x="498" y="499" type="line"/>
      <point x="426" y="499" type="line"/>
      <point x="426" y="199" type="line"/>
      <point x="426" y="98"/>
      <point x="382" y="52"/>
      <point x="289" y="52" type="curve"/>
      <point x="195" y="52"/>
      <point x="152" y="98"/>
      <point x="152" y="199" type="curve"/>
      <point x="152" y="499" type="line"/>
      <point x="80" y="499" type="line"/>
      <point x="80" y="183" type="line"/>
      <point x="80" y="56"/>
      <point x="156" y="-15"/>
    </contour>
  </outline>
</glyph>
<glyph name="v" format="2">
  <advance width="566"/>
  <unicode hex="0076"/>
  <outline>
    <contour>
      <point x="246" y="0" type="line"/>
      <point x="319" y="0" type="line"/>
      <point x="531" y="499" type="line"/>
      <point x="459" y="499" type="line"/>
      <point x="280" y="58" type="line"/>
      <point x="296" y="62" type="line"/>
      <point x="112" y="499" type="line"/>
      <point x="35" y="499" type="line"/>
    </contour>
  </outline>
</glyph>
<glyph name="w" format="2">
  <advance width="796"/>
  <unicode hex="0077"/>
  <anchor x="399" y="0" name="bottom"/>
  <anchor x="399" y="499" name="top"/>
  <outline>
    <contour>
      <point x="201" y="0" type="line"/>
      <point x="274" y="0" type="line"/>
      <point x="402" y="430" type="line"/>
      <point x="389" y="442" type="line"/>
      <point x="522" y="0" type="line"/>
      <point x="595" y="0" type="line"/>
      <point x="761" y="499" type="line"/>
      <point x="690" y="499" type="line"/>
      <point x="551" y="58" type="line"/>
      <point x="565" y="58" type="line"/>
      <point x="432" y="499" type="line"/>
      <point x="363" y="499" type="line"/>
      <point x="231" y="46" type="line"/>
      <point x="250" y="54" type="line"/>
      <point x="111" y="499" type="line"/>
      <point x="35" y="499" type="line"/>
    </contour>
  </outline>
</glyph>
<glyph name="x" format="2">
  <advance width="532"/>
  <unicode hex="0078"/>
  <outline>
    <contour>
      <point x="280" y="218" type="line"/>
      <point x="237" y="272" type="line"/>
      <point x="35" y="0" type="line"/>
      <point x="116" y="0" type="line"/>
    </contour>
    <contour>
      <point x="497" y="0" type="line"/>
      <point x="131" y="499" type="line"/>
      <point x="40" y="499" type="line"/>
      <point x="405" y="0" type="line"/>
    </contour>
    <contour>
      <point x="247" y="279" type="line"/>
      <point x="287" y="218" type="line"/>
      <point x="495" y="499" type="line"/>
      <point x="412" y="499" type="line"/>
    </contour>
  </outline>
</glyph>
<glyph name="y" format="2">
  <advance width="540"/>
  <unicode hex="0079"/>
  <anchor x="398" y="0" name="bottom"/>
  <anchor x="275" y="499" name="top"/>
  <outline>
    <contour>
      <point x="134" y="-193" type="curve" smooth="yes"/>
      <point x="181" y="-193"/>
      <point x="245" y="-167"/>
      <point x="291" y="-49" type="curve" smooth="yes"/>
      <point x="505" y="499" type="line"/>
      <point x="433" y="499" type="line"/>
      <point x="268" y="73" type="line"/>
      <point x="283" y="73" type="line"/>
      <point x="117" y="499" type="line"/>
      <point x="35" y="499" type="line"/>
      <point x="247" y="-15" type="line"/>
      <point x="247" y="14" type="line"/>
      <point x="222" y="-65"/>
      <point x="198" y="-127"/>
      <point x="130" y="-127" type="curve" smooth="yes"/>
      <point x="111" y="-127"/>
      <point x="96" y="-122"/>
      <point x="87" y="-118" type="curve"/>
      <point x="87" y="-184" type="line"/>
      <point x="97" y="-188"/>
      <point x="114" y="-193"/>
    </contour>
  </outline>
</glyph>
<glyph name="z" format="2">
  <advance width="455"/>
  <unicode hex="007A"/>
  <anchor x="228" y="0" name="bottom"/>
  <anchor x="228" y="499" name="top"/>
  <outline>
    <contour>
      <point x="45" y="0" type="line"/>
      <point x="410" y="0" type="line"/>
      <point x="410" y="64" type="line"/>
      <point x="114" y="64" type="line"/>
      <point x="114" y="45" type="line"/>
      <point x="410" y="436" type="line"/>
      <point x="410" y="499" type="line"/>
      <point x="52" y="499" type="line"/>
      <point x="52" y="437" type="line"/>
      <point x="356" y="437" type="line"/>
      <point x="341" y="459" type="line"/>
      <point x="45" y="65" type="line"/>
    </contour>
  </outline>
</glyph>
<glyph name="braceleft" format="2">
  <advance width="373"/>
  <unicode hex="007B"/>
  <outline>
    <contour>
      <point x="304" y="-110" type="curve"/>
      <point x="312" y="-110" type="line"/>
      <point x="312" y="-43" type="line"/>
      <point x="304" y="-43" type="line"/>
      <point x="255" y="-41"/>
      <point x="226" y="-26"/>
      <point x="226" y="35" type="curve" smooth="yes"/>
      <point x="226" y="196" type="line" smooth="yes"/>
      <point x="226" y="239"/>
      <point x="202" y="270"/>
      <point x="168" y="293" type="curve"/>
      <point x="202" y="316"/>
      <point x="226" y="348"/>
      <point x="226" y="390" type="curve" smooth="yes"/>
      <point x="226" y="551" type="line" smooth="yes"/>
      <point x="226" y="613"/>
      <point x="255" y="627"/>
      <point x="304" y="629" type="curve"/>
      <point x="312" y="629" type="line"/>
      <point x="312" y="697" type="line"/>
      <point x="304" y="697" type="line"/>
      <point x="207" y="697"/>
      <point x="154" y="643"/>
      <point x="154" y="546" type="curve" smooth="yes"/>
      <point x="154" y="390" type="line" smooth="yes"/>
      <point x="154" y="344"/>
      <point x="118" y="325"/>
      <point x="91" y="318" type="curve"/>
      <point x="91" y="269" type="line"/>
      <point x="118" y="261"/>
      <point x="154" y="242"/>
      <point x="154" y="196" type="curve" smooth="yes"/>
      <point x="154" y="40" type="line" smooth="yes"/>
      <point x="154" y="-57"/>
      <point x="207" y="-110"/>
    </contour>
  </outline>
</glyph>
<glyph name="bar" format="2">
  <advance width="443"/>
  <unicode hex="007C"/>
  <outline>
    <contour>
      <point x="185" y="-99" type="line"/>
      <point x="257" y="-99" type="line"/>
      <point x="257" y="665" type="line"/>
      <point x="185" y="665" type="line"/>
    </contour>
  </outline>
</glyph>
<glyph name="braceright" format="2">
  <advance width="368"/>
  <unicode hex="007D"/>
  <outline>
    <contour>
      <point x="70" y="-110" type="line"/>
      <point x="76" y="-110" type="line"/>
      <point x="173" y="-110"/>
      <point x="226" y="-57"/>
      <point x="226" y="40" type="curve" smooth="yes"/>
      <point x="226" y="196" type="line" smooth="yes"/>
      <point x="226" y="242"/>
      <point x="262" y="261"/>
      <point x="289" y="269" type="curve"/>
      <point x="289" y="318" type="line"/>
      <point x="262" y="325"/>
      <point x="226" y="344"/>
      <point x="226" y="390" type="curve" smooth="yes"/>
      <point x="226" y="546" type="line" smooth="yes"/>
      <point x="226" y="643"/>
      <point x="173" y="697"/>
      <point x="76" y="697" type="curve"/>
      <point x="70" y="697" type="line"/>
      <point x="70" y="629" type="line"/>
      <point x="76" y="629" type="line"/>
      <point x="126" y="627"/>
      <point x="154" y="613"/>
      <point x="154" y="551" type="curve" smooth="yes"/>
      <point x="154" y="390" type="line" smooth="yes"/>
      <point x="154" y="348"/>
      <point x="179" y="316"/>
      <point x="213" y="293" type="curve"/>
      <point x="179" y="270"/>
      <point x="154" y="239"/>
      <point x="154" y="196" type="curve" smooth="yes"/>
      <point x="154" y="35" type="line" smooth="yes"/>
      <point x="154" y="-26"/>
      <point x="126" y="-41"/>
      <point x="76" y="-43" type="curve"/>
      <point x="70" y="-43" type="line"/>
    </contour>
  </outline>
</glyph>
<glyph name="asciitilde" format="2">
  <advance width="500"/>
  <unicode hex="007E"/>
  <outline>
    <contour>
      <point x="98" y="231" type="line"/>
      <point x="199" y="358"/>
      <point x="301" y="125"/>
      <point x="402" y="252" type="curve"/>
      <point x="402" y="312" type="line"/>
      <point x="301" y="185"/>
      <point x="199" y="419"/>
      <point x="98" y="292" type="curve"/>
    </contour>
  </outline>
</glyph>
<glyph name="exclamdown" format="2">
  <advance width="362"/>
  <unicode hex="00A1"/>
  <outline>
    <contour>
      <point x="152" y="-168" type="line"/>
      <point x="224" y="-168" type="line"/>
      <point x="217" y="331" type="line"/>
      <point x="159" y="331" type="line"/>
    </contour>
    <contour>
      <point x="148" y="420" type="line"/>
      <point x="228" y="420" type="line"/>
      <point x="228" y="499" type="line"/>
      <point x="148" y="499" type="line"/>
    </contour>
  </outline>
</glyph>
<glyph name="cent" format="2">
  <advance width="492"/>
  <unicode hex="00A2"/>
  <anchor x="246" y="61" name="bottom"/>
  <anchor x="266" y="560" name="top"/>
  <outline>
    <contour>
      <point x="245" y="527" type="line"/>
      <point x="317" y="527" type="line"/>
      <point x="317" y="628" type="line"/>
      <point x="245" y="628" type="line"/>
    </contour>
    <contour>
      <point x="245" y="0" type="line"/>
      <point x="317" y="0" type="line"/>
      <point x="317" y="81" type="line"/>
      <point x="245" y="81" type="line"/>
    </contour>
    <component base="c" yOffset="61"/>
  </outline>
</glyph>
<glyph name="sterling" format="2">
  <advance width="555"/>
  <unicode hex="00A3"/>
  <outline>
    <contour>
      <point x="137" y="490" type="curve" smooth="yes"/>
      <point x="137" y="80" type="line"/>
      <point x="108" y="78"/>
      <point x="80" y="72"/>
      <point x="51" y="58" type="curve"/>
      <point x="51" y="-15" type="line"/>
      <point x="201" y="58"/>
      <point x="351" y="-68"/>
      <point x="500" y="-11" type="curve"/>
      <point x="500" y="62" type="line"/>
      <point x="403" y="25"/>
      <point x="306" y="65"/>
      <point x="209" y="78" type="curve"/>
      <point x="209" y="493" type="line" smooth="yes"/>
      <point x="209" y="545"/>
      <point x="234" y="607"/>
      <point x="355" y="607" type="curve" smooth="yes"/>
      <point x="417" y="607"/>
      <point x="467" y="585"/>
      <point x="500" y="564" type="curve"/>
      <point x="500" y="637" type="line"/>
      <point x="461" y="658"/>
      <point x="410" y="676"/>
      <point x="349" y="676" type="curve" smooth="yes"/>
      <point x="192" y="676"/>
      <point x="137" y="580"/>
    </contour>
    <contour>
      <point x="51" y="281" type="line"/>
      <point x="410" y="281" type="line"/>
      <point x="410" y="347" type="line"/>
      <point x="51" y="347" type="line"/>
    </contour>
  </outline>
</glyph>
<glyph name="currency" format="2">
  <advance width="494"/>
  <unicode hex="00A4"/>
  <outline>
    <contour>
      <point x="249" y="156" type="curve" smooth="yes"/>
      <point x="350" y="156"/>
      <point x="432" y="238"/>
      <point x="432" y="339" type="curve" smooth="yes"/>
      <point x="432" y="440"/>
      <point x="350" y="522"/>
      <point x="249" y="522" type="curve" smooth="yes"/>
      <point x="148" y="522"/>
      <point x="66" y="440"/>
      <point x="66" y="339" type="curve" smooth="yes"/>
      <point x="66" y="238"/>
      <point x="148" y="156"/>
    </contour>
    <contour>
      <point x="249" y="220" type="curve" smooth="yes"/>
      <point x="186" y="220"/>
      <point x="138" y="268"/>
      <point x="138" y="339" type="curve" smooth="yes"/>
      <point x="138" y="410"/>
      <point x="186" y="458"/>
      <point x="249" y="458" type="curve" smooth="yes"/>
      <point x="311" y="458"/>
      <point x="359" y="410"/>
      <point x="359" y="339" type="curve" smooth="yes"/>
      <point x="359" y="268"/>
      <point x="311" y="220"/>
    </contour>
    <contour>
      <point x="123" y="260" type="line"/>
      <point x="50" y="186" type="line"/>
      <point x="95" y="141" type="line"/>
      <point x="169" y="214" type="line"/>
    </contour>
    <contour>
      <point x="399" y="535" type="line"/>
      <point x="325" y="462" type="line"/>
      <point x="371" y="416" type="line"/>
      <point x="444" y="490" type="line"/>
    </contour>
    <contour>
      <point x="169" y="462" type="line"/>
      <point x="95" y="535" type="line"/>
      <point x="50" y="490" type="line"/>
      <point x="123" y="416" type="line"/>
    </contour>
    <contour>
      <point x="444" y="186" type="line"/>
      <point x="371" y="260" type="line"/>
      <point x="325" y="214" type="line"/>
      <point x="399" y="141" type="line"/>
    </contour>
  </outline>
</glyph>
<glyph name="yen" format="2">
  <advance width="602"/>
  <unicode hex="00A5"/>
  <outline>
    <contour>
      <point x="267" y="0" type="line"/>
      <point x="339" y="0" type="line"/>
      <point x="339" y="138" type="line"/>
      <point x="496" y="138" type="line"/>
      <point x="496" y="198" type="line"/>
      <point x="339" y="198" type="line"/>
      <point x="339" y="292" type="line"/>
      <point x="496" y="292" type="line"/>
      <point x="496" y="352" type="line"/>
      <point x="371" y="352" type="line"/>
      <point x="588" y="667" type="line"/>
      <point x="500" y="667" type="line"/>
      <point x="303" y="380" type="line"/>
      <point x="106" y="667" type="line"/>
      <point x="18" y="667" type="line"/>
      <point x="235" y="352" type="line"/>
      <point x="110" y="352" type="line"/>
      <point x="110" y="292" type="line"/>
      <point x="267" y="292" type="line"/>
      <point x="267" y="198" type="line"/>
      <point x="110" y="198" type="line"/>
      <point x="110" y="138" type="line"/>
      <point x="267" y="138" type="line"/>
    </contour>
  </outline>
</glyph>
<glyph name="brokenbar" format="2">
  <advance width="443"/>
  <unicode hex="00A6"/>
  <outline>
    <contour>
      <point x="257" y="219" type="line"/>
      <point x="185" y="219" type="line"/>
      <point x="185" y="-99" type="line"/>
      <point x="257" y="-99" type="line"/>
    </contour>
    <contour>
      <point x="185" y="347" type="line"/>
      <point x="257" y="347" type="line"/>
      <point x="257" y="665" type="line"/>
      <point x="185" y="665" type="line"/>
    </contour>
  </outline>
</glyph>
<glyph name="section" format="2">
  <advance width="543"/>
  <unicode hex="00A7"/>
  <outline>
    <contour>
      <point x="235" y="-8" type="curve" smooth="yes"/>
      <point x="364" y="-8"/>
      <point x="441" y="43"/>
      <point x="441" y="128" type="curve" smooth="yes"/>
      <point x="441" y="164"/>
      <point x="425" y="189"/>
      <point x="406" y="205" type="curve"/>
      <point x="450" y="219"/>
      <point x="492" y="254"/>
      <point x="492" y="307" type="curve" smooth="yes"/>
      <point x="492" y="414"/>
      <point x="396" y="445"/>
      <point x="306" y="466" type="curve" smooth="yes"/>
      <point x="181" y="495"/>
      <point x="181" y="525"/>
      <point x="181" y="545" type="curve" smooth="yes"/>
      <point x="181" y="599"/>
      <point x="265" y="609"/>
      <point x="315" y="609" type="curve" smooth="yes"/>
      <point x="375" y="609"/>
      <point x="422" y="592"/>
      <point x="454" y="575" type="curve"/>
      <point x="454" y="646" type="line"/>
      <point x="417" y="662"/>
      <point x="368" y="676"/>
      <point x="309" y="676" type="curve" smooth="yes"/>
      <point x="161" y="676"/>
      <point x="109" y="602"/>
      <point x="109" y="534" type="curve" smooth="yes"/>
      <point x="109" y="500"/>
      <point x="127" y="478"/>
      <point x="149" y="464" type="curve"/>
      <point x="105" y="450"/>
      <point x="58" y="420"/>
      <point x="58" y="355" type="curve" smooth="yes"/>
      <point x="58" y="266"/>
      <point x="140" y="240"/>
      <point x="239" y="217" type="curve" smooth="yes"/>
      <point x="360" y="189"/>
      <point x="369" y="162"/>
      <point x="369" y="128" type="curve" smooth="yes"/>
      <point x="369" y="67"/>
      <point x="272" y="61"/>
      <point x="230" y="61" type="curve" smooth="yes"/>
      <point x="150" y="61"/>
      <point x="96" y="82"/>
      <point x="64" y="102" type="curve"/>
      <point x="64" y="28" type="line"/>
      <point x="104" y="8"/>
      <point x="161" y="-8"/>
    </contour>
    <contour>
      <point x="363" y="251" type="curve"/>
      <point x="331" y="268"/>
      <point x="293" y="279"/>
      <point x="256" y="287" type="curve" smooth="yes"/>
      <point x="130" y="316"/>
      <point x="130" y="337"/>
      <point x="130" y="355" type="curve" smooth="yes"/>
      <point x="130" y="396"/>
      <point x="166" y="413"/>
      <point x="204" y="420" type="curve"/>
      <point x="230" y="411"/>
      <point x="259" y="403"/>
      <point x="290" y="396" type="curve" smooth="yes"/>
      <point x="410" y="368"/>
      <point x="420" y="340"/>
      <point x="420" y="307" type="curve" smooth="yes"/>
      <point x="420" y="276"/>
      <point x="394" y="260"/>
    </contour>
  </outline>
</glyph>
<glyph name="dieresis" format="2">
  <advance width="385"/>
  <unicode hex="00A8"/>
  <outline>
    <contour>
      <point x="227" y="564" type="line"/>
      <point x="306" y="564" type="line"/>
      <point x="306" y="643" type="line"/>
      <point x="227" y="643" type="line"/>
    </contour>
    <contour>
      <point x="79" y="564" type="line"/>
      <point x="158" y="564" type="line"/>
      <point x="158" y="643" type="line"/>
      <point x="79" y="643" type="line"/>
    </contour>
  </outline>
</glyph>
<glyph name="copyright" format="2">
  <advance width="778"/>
  <unicode hex="00A9"/>
  <outline>
    <contour>
      <point x="390" y="-8" type="curve" smooth="yes"/>
      <point x="579" y="-8"/>
      <point x="732" y="145"/>
      <point x="732" y="333" type="curve" smooth="yes"/>
      <point x="732" y="522"/>
      <point x="579" y="675"/>
      <point x="390" y="675" type="curve" smooth="yes"/>
      <point x="202" y="675"/>
      <point x="48" y="522"/>
      <point x="48" y="333" type="curve" smooth="yes"/>
      <point x="48" y="145"/>
      <point x="202" y="-8"/>
    </contour>
    <contour>
      <point x="399" y="134" type="curve" smooth="yes"/>
      <point x="440" y="134"/>
      <point x="480" y="141"/>
      <point x="518" y="156" type="curve"/>
      <point x="518" y="196" type="line"/>
      <point x="482" y="181"/>
      <point x="444" y="173"/>
      <point x="404" y="173" type="curve" smooth="yes"/>
      <point x="305" y="173"/>
      <point x="261" y="223"/>
      <point x="261" y="333" type="curve" smooth="yes"/>
      <point x="261" y="444"/>
      <point x="305" y="493"/>
      <point x="404" y="493" type="curve" smooth="yes"/>
      <point x="444" y="493"/>
      <point x="482" y="486"/>
      <point x="518" y="471" type="curve"/>
      <point x="518" y="511" type="line"/>
      <point x="480" y="526"/>
      <point x="440" y="533"/>
      <point x="399" y="533" type="curve" smooth="yes"/>
      <point x="279" y="533"/>
      <point x="219" y="466"/>
      <point x="219" y="333" type="curve" smooth="yes"/>
      <point x="219" y="201"/>
      <point x="279" y="134"/>
    </contour>
    <contour>
      <point x="390" y="27" type="curve" smooth="yes"/>
      <point x="222" y="27"/>
      <point x="84" y="165"/>
      <point x="84" y="333" type="curve" smooth="yes"/>
      <point x="84" y="502"/>
      <point x="222" y="640"/>
      <point x="390" y="640" type="curve" smooth="yes"/>
      <point x="559" y="640"/>
      <point x="696" y="502"/>
      <point x="696" y="333" type="curve" smooth="yes"/>
      <point x="696" y="165"/>
      <point x="559" y="27"/>
    </contour>
  </outline>
</glyph>
<glyph name="ordfeminine" format="2">
  <advance width="394"/>
  <unicode hex="00AA"/>
  <outline>
    <contour>
      <point x="192" y="389" type="curve" smooth="yes"/>
      <point x="228" y="389"/>
      <point x="306" y="400"/>
      <point x="306" y="476" type="curve" smooth="yes"/>
      <point x="306" y="560" type="line" smooth="yes"/>
      <point x="306" y="636"/>
      <point x="269" y="675"/>
      <point x="190" y="675" type="curve" smooth="yes"/>
      <point x="156" y="675"/>
      <point x="124" y="666"/>
      <point x="104" y="658" type="curve"/>
      <point x="104" y="619" type="line"/>
      <point x="114" y="623"/>
      <point x="148" y="636"/>
      <point x="188" y="636" type="curve" smooth="yes"/>
      <point x="239" y="636"/>
      <point x="266" y="612"/>
      <point x="266" y="559" type="curve"/>
      <point x="266" y="559"/>
      <point x="233" y="569"/>
      <point x="192" y="569" type="curve" smooth="yes"/>
      <point x="125" y="569"/>
      <point x="76" y="549"/>
      <point x="76" y="478" type="curve" smooth="yes"/>
      <point x="76" y="400"/>
      <point x="156" y="389"/>
    </contour>
    <contour>
      <point x="192" y="426" type="curve" smooth="yes"/>
      <point x="158" y="426"/>
      <point x="116" y="434"/>
      <point x="116" y="479" type="curve" smooth="yes"/>
      <point x="116" y="529"/>
      <point x="166" y="533"/>
      <point x="200" y="533" type="curve" smooth="yes"/>
      <point x="231" y="533"/>
      <point x="266" y="523"/>
      <point x="266" y="523" type="curve"/>
      <point x="266" y="477" type="line" smooth="yes"/>
      <point x="266" y="434"/>
      <point x="227" y="426"/>
    </contour>
  </outline>
</glyph>
<glyph name="guillemotleft" format="2">
  <advance width="553"/>
  <unicode hex="00AB"/>
  <outline>
    <contour>
      <point x="390" y="64" type="line"/>
      <point x="487" y="64" type="line"/>
      <point x="309" y="255" type="line"/>
      <point x="487" y="445" type="line"/>
      <point x="390" y="445" type="line"/>
      <point x="221" y="255" type="line"/>
    </contour>
    <contour>
      <point x="200" y="64" type="line"/>
      <point x="297" y="64" type="line"/>
      <point x="119" y="255" type="line"/>
      <point x="297" y="445" type="line"/>
      <point x="200" y="445" type="line"/>
      <point x="31" y="255" type="line"/>
    </contour>
  </outline>
</glyph>
<glyph name="logicalnot" format="2">
  <advance width="622"/>
  <unicode hex="00AC"/>
  <outline>
    <contour>
      <point x="459" y="158" type="line"/>
      <point x="525" y="158" type="line"/>
      <point x="525" y="324" type="line"/>
      <point x="97" y="324" type="line"/>
      <point x="97" y="258" type="line"/>
      <point x="459" y="258" type="line"/>
    </contour>
  </outline>
</glyph>
<glyph name="registered" format="2">
  <advance width="778"/>
  <unicode hex="00AE"/>
  <outline>
    <contour>
      <point x="390" y="-8" type="curve" smooth="yes"/>
      <point x="579" y="-8"/>
      <point x="732" y="145"/>
      <point x="732" y="333" type="curve" smooth="yes"/>
      <point x="732" y="522"/>
      <point x="579" y="675"/>
      <point x="390" y="675" type="curve" smooth="yes"/>
      <point x="202" y="675"/>
      <point x="48" y="522"/>
      <point x="48" y="333" type="curve" smooth="yes"/>
      <point x="48" y="145"/>
      <point x="202" y="-8"/>
    </contour>
    <contour>
      <point x="390" y="27" type="curve" smooth="yes"/>
      <point x="222" y="27"/>
      <point x="84" y="165"/>
      <point x="84" y="333" type="curve" smooth="yes"/>
      <point x="84" y="502"/>
      <point x="222" y="640"/>
      <point x="390" y="640" type="curve" smooth="yes"/>
      <point x="559" y="640"/>
      <point x="696" y="502"/>
      <point x="696" y="333" type="curve" smooth="yes"/>
      <point x="696" y="165"/>
      <point x="559" y="27"/>
    </contour>
    <contour>
      <point x="266" y="138" type="line"/>
      <point x="308" y="138" type="line"/>
      <point x="308" y="296" type="line"/>
      <point x="408" y="296" type="line"/>
      <point x="509" y="138" type="line"/>
      <point x="559" y="138" type="line"/>
      <point x="452" y="302" type="line"/>
      <point x="470" y="306"/>
      <point x="542" y="325"/>
      <point x="542" y="415" type="curve" smooth="yes"/>
      <point x="542" y="490"/>
      <point x="493" y="528"/>
      <point x="409" y="528" type="curve" smooth="yes"/>
      <point x="266" y="528" type="line"/>
    </contour>
    <contour>
      <point x="308" y="336" type="line"/>
      <point x="308" y="488" type="line"/>
      <point x="407" y="488" type="line" smooth="yes"/>
      <point x="489" y="488"/>
      <point x="499" y="448"/>
      <point x="499" y="412" type="curve" smooth="yes"/>
      <point x="499" y="376"/>
      <point x="489" y="336"/>
      <point x="407" y="336" type="curve" smooth="yes"/>
    </contour>
  </outline>
</glyph>
<glyph name="macron" format="2">
  <advance width="403"/>
  <unicode hex="00AF"/>
  <outline>
    <contour>
      <point x="86" y="576" type="line"/>
      <point x="320" y="576" type="line"/>
      <point x="320" y="629" type="line"/>
      <point x="86" y="629" type="line"/>
    </contour>
  </outline>
</glyph>
<glyph name="degree" format="2">
  <advance width="387"/>
  <unicode hex="00B0"/>
  <outline>
    <contour>
      <point x="191" y="447" type="curve" smooth="yes"/>
      <point x="262" y="447"/>
      <point x="300" y="485"/>
      <point x="300" y="558" type="curve" smooth="yes"/>
      <point x="300" y="630"/>
      <point x="262" y="669"/>
      <point x="191" y="669" type="curve" smooth="yes"/>
      <point x="119" y="669"/>
      <point x="82" y="630"/>
      <point x="82" y="558" type="curve" smooth="yes"/>
      <point x="82" y="485"/>
      <point x="119" y="447"/>
    </contour>
    <contour>
      <point x="191" y="483" type="curve" smooth="yes"/>
      <point x="139" y="483"/>
      <point x="118" y="505"/>
      <point x="118" y="558" type="curve" smooth="yes"/>
      <point x="118" y="610"/>
      <point x="139" y="633"/>
      <point x="191" y="633" type="curve" smooth="yes"/>
      <point x="242" y="633"/>
      <point x="264" y="610"/>
      <point x="264" y="558" type="curve" smooth="yes"/>
      <point x="264" y="505"/>
      <point x="242" y="483"/>
    </contour>
  </outline>
</glyph>
<glyph name="plusminus" format="2">
  <advance width="585"/>
  <unicode hex="00B1"/>
  <outline>
    <contour>
      <point x="261" y="144" type="line"/>
      <point x="321" y="144" type="line"/>
      <point x="321" y="292" type="line"/>
      <point x="468" y="292" type="line"/>
      <point x="468" y="352" type="line"/>
      <point x="321" y="352" type="line"/>
      <point x="321" y="499" type="line"/>
      <point x="261" y="499" type="line"/>
      <point x="261" y="352" type="line"/>
      <point x="113" y="352" type="line"/>
      <point x="113" y="292" type="line"/>
      <point x="261" y="292" type="line"/>
    </contour>
    <contour>
      <point x="113" y="33" type="line"/>
      <point x="468" y="33" type="line"/>
      <point x="468" y="93" type="line"/>
      <point x="113" y="93" type="line"/>
    </contour>
  </outline>
</glyph>
<glyph name="acute" format="2">
  <advance width="236"/>
  <unicode hex="00B4"/>
  <outline>
    <contour>
      <point x="60" y="564" type="line"/>
      <point x="108" y="564" type="line"/>
      <point x="191" y="679" type="line"/>
      <point x="117" y="679" type="line"/>
    </contour>
  </outline>
</glyph>
<glyph name="mu" format="2">
  <advance width="609"/>
  <unicode hex="00B5"/>
  <outline>
    <contour>
      <point x="99" y="-210" type="line"/>
      <point x="171" y="-210" type="line"/>
      <point x="171" y="32" type="line"/>
      <point x="171" y="32"/>
      <point x="220" y="-8"/>
      <point x="297" y="-8" type="curve" smooth="yes"/>
      <point x="400" y="-8"/>
      <point x="484" y="29"/>
      <point x="507" y="41" type="curve"/>
      <point x="507" y="499" type="line"/>
      <point x="435" y="499" type="line"/>
      <point x="435" y="83" type="line"/>
      <point x="401" y="73"/>
      <point x="356" y="64"/>
      <point x="304" y="64" type="curve" smooth="yes"/>
      <point x="184" y="64"/>
      <point x="171" y="127"/>
      <point x="171" y="175" type="curve" smooth="yes"/>
      <point x="171" y="499" type="line"/>
      <point x="99" y="499" type="line"/>
    </contour>
  </outline>
</glyph>
<glyph name="paragraph" format="2">
  <advance width="445"/>
  <unicode hex="00B6"/>
  <outline>
    <contour>
      <point x="301" y="0" type="line"/>
      <point x="367" y="0" type="line"/>
      <point x="367" y="667" type="line"/>
      <point x="268" y="667" type="line" smooth="yes"/>
      <point x="119" y="667"/>
      <point x="38" y="594"/>
      <point x="38" y="462" type="curve" smooth="yes"/>
      <point x="38" y="329"/>
      <point x="119" y="256"/>
      <point x="268" y="256" type="curve" smooth="yes"/>
      <point x="301" y="256" type="line"/>
    </contour>
  </outline>
</glyph>
<glyph name="periodcentered" format="2">
  <advance width="311"/>
  <unicode hex="00B7"/>
  <anchor x="163" y="275" name="_center"/>
  <outline>
    <contour>
      <point x="116" y="232" type="line"/>
      <point x="195" y="232" type="line"/>
      <point x="195" y="312" type="line"/>
      <point x="116" y="312" type="line"/>
    </contour>
  </outline>
</glyph>
<glyph name="cedilla" format="2">
  <advance width="253"/>
  <unicode hex="00B8"/>
  <outline>
    <contour>
      <point x="56" y="-120" type="line"/>
      <point x="132" y="-120" type="line"/>
      <point x="195" y="-5" type="line"/>
      <point x="138" y="-5" type="line"/>
    </contour>
  </outline>
</glyph>
<glyph name="ordmasculine" format="2">
  <advance width="417"/>
  <unicode hex="00BA"/>
  <outline>
    <contour>
      <point x="206" y="389" type="curve" smooth="yes"/>
      <point x="266" y="389"/>
      <point x="336" y="414"/>
      <point x="336" y="532" type="curve" smooth="yes"/>
      <point x="336" y="651"/>
      <point x="266" y="676"/>
      <point x="206" y="676" type="curve" smooth="yes"/>
      <point x="147" y="676"/>
      <point x="76" y="651"/>
      <point x="76" y="532" type="curve" smooth="yes"/>
      <point x="76" y="414"/>
      <point x="147" y="389"/>
    </contour>
    <contour>
      <point x="206" y="426" type="curve" smooth="yes"/>
      <point x="143" y="426"/>
      <point x="116" y="458"/>
      <point x="116" y="532" type="curve" smooth="yes"/>
      <point x="116" y="607"/>
      <point x="143" y="639"/>
      <point x="206" y="639" type="curve" smooth="yes"/>
      <point x="270" y="639"/>
      <point x="296" y="607"/>
      <point x="296" y="532" type="curve" smooth="yes"/>
      <point x="296" y="458"/>
      <point x="270" y="426"/>
    </contour>
  </outline>
</glyph>
<glyph name="guillemotright" format="2">
  <advance width="553"/>
  <unicode hex="00BB"/>
  <outline>
    <contour>
      <point x="257" y="64" type="line"/>
      <point x="353" y="64" type="line"/>
      <point x="523" y="255" type="line"/>
      <point x="353" y="445" type="line"/>
      <point x="257" y="445" type="line"/>
      <point x="434" y="255" type="line"/>
    </contour>
    <contour>
      <point x="67" y="64" type="line"/>
      <point x="163" y="64" type="line"/>
      <point x="333" y="255" type="line"/>
      <point x="163" y="445" type="line"/>
      <point x="67" y="445" type="line"/>
      <point x="244" y="255" type="line"/>
    </contour>
  </outline>
</glyph>
<glyph name="questiondown" format="2">
  <advance width="483"/>
  <unicode hex="00BF"/>
  <outline>
    <contour>
      <point x="270" y="-176" type="curve" smooth="yes"/>
      <point x="354" y="-176"/>
      <point x="410" y="-138"/>
      <point x="410" y="-138" type="curve"/>
      <point x="410" y="-60" type="line"/>
      <point x="388" y="-75"/>
      <point x="340" y="-104"/>
      <point x="276" y="-104" type="curve" smooth="yes"/>
      <point x="188" y="-104"/>
      <point x="144" y="-63"/>
      <point x="144" y="10" type="curve" smooth="yes"/>
      <point x="144" y="111"/>
      <point x="294" y="99"/>
      <point x="294" y="282" type="curve" smooth="yes"/>
      <point x="294" y="332" type="line"/>
      <point x="222" y="332" type="line"/>
      <point x="222" y="287" type="line" smooth="yes"/>
      <point x="222" y="132"/>
      <point x="72" y="155"/>
      <point x="72" y="10" type="curve" smooth="yes"/>
      <point x="72" y="-152"/>
      <point x="206" y="-176"/>
    </contour>
    <contour>
      <point x="218" y="420" type="line"/>
      <point x="298" y="420" type="line"/>
      <point x="298" y="499" type="line"/>
      <point x="218" y="499" type="line"/>
    </contour>
  </outline>
</glyph>
<glyph name="AE" format="2">
  <advance width="957"/>
  <unicode hex="00C6"/>
  <anchor x="479" y="0" name="bottom"/>
  <anchor x="676" y="667" name="top"/>
  <outline>
    <contour>
      <point x="473" y="651" type="line"/>
      <point x="473" y="0" type="line"/>
      <point x="882" y="0" type="line"/>
      <point x="882" y="69" type="line"/>
      <point x="545" y="69" type="line"/>
      <point x="545" y="298" type="line"/>
      <point x="841" y="298" type="line"/>
      <point x="841" y="368" type="line"/>
      <point x="545" y="368" type="line"/>
      <point x="545" y="598" type="line"/>
      <point x="882" y="598" type="line"/>
      <point x="882" y="667" type="line"/>
      <point x="476" y="667" type="line"/>
      <point x="20" y="0" type="line"/>
      <point x="103" y="0" type="line"/>
      <point x="544" y="651" type="line"/>
    </contour>
    <contour>
      <point x="493" y="209" type="line"/>
      <point x="497" y="281" type="line"/>
      <point x="229" y="281" type="line"/>
      <point x="171" y="209" type="line"/>
    </contour>
  </outline>
</glyph>
<glyph name="multiply" format="2">
  <advance width="481"/>
  <unicode hex="00D7"/>
  <outline>
    <contour>
      <point x="77" y="78" type="line"/>
      <point x="141" y="78" type="line"/>
      <point x="242" y="213" type="line"/>
      <point x="344" y="78" type="line"/>
      <point x="408" y="78" type="line"/>
      <point x="275" y="256" type="line"/>
      <point x="408" y="434" type="line"/>
      <point x="344" y="434" type="line"/>
      <point x="242" y="299" type="line"/>
      <point x="141" y="434" type="line"/>
      <point x="77" y="434" type="line"/>
      <point x="210" y="256" type="line"/>
    </contour>
  </outline>
</glyph>
<glyph name="Oslash" format="2">
  <advance width="719"/>
  <unicode hex="00D8"/>
  <anchor x="360" y="0" name="bottom"/>
  <anchor x="360" y="667" name="top"/>
  <anchor x="367" y="334" name="center"/>
  <anchor x="665" y="10" name="ogonek"/>
  <anchor x="13" y="667" name="topleft"/>
  <anchor x="439" y="667" name="topright"/>
  <outline>
    <contour>
      <point x="57" y="0" type="line"/>
      <point x="122" y="0" type="line"/>
      <point x="685" y="667" type="line"/>
      <point x="619" y="667" type="line"/>
    </contour>
    <component base="O"/>
  </outline>
</glyph>
<glyph name="Thorn" format="2">
  <advance width="570"/>
  <unicode hex="00DE"/>
  <outline>
    <contour>
      <point x="86" y="0" type="line"/>
      <point x="158" y="0" type="line"/>
      <point x="158" y="153" type="line"/>
      <point x="288" y="153" type="line" smooth="yes"/>
      <point x="436" y="153"/>
      <point x="518" y="226"/>
      <point x="518" y="359" type="curve" smooth="yes"/>
      <point x="518" y="492"/>
      <point x="436" y="566"/>
      <point x="288" y="566" type="curve" smooth="yes"/>
      <point x="158" y="566" type="line"/>
      <point x="158" y="667" type="line"/>
      <point x="86" y="667" type="line"/>
    </contour>
    <contour>
      <point x="158" y="222" type="line"/>
      <point x="158" y="496" type="line"/>
      <point x="278" y="496" type="line" smooth="yes"/>
      <point x="427" y="496"/>
      <point x="446" y="423"/>
      <point x="446" y="359" type="curve" smooth="yes"/>
      <point x="446" y="295"/>
      <point x="427" y="222"/>
      <point x="278" y="222" type="curve" smooth="yes"/>
    </contour>
  </outline>
</glyph>
<glyph name="germandbls" format="2">
  <advance width="585"/>
  <unicode hex="00DF"/>
  <outline>
    <contour>
      <point x="80" y="0" type="line"/>
      <point x="152" y="0" type="line"/>
      <point x="152" y="430" type="line" smooth="yes"/>
      <point x="152" y="542"/>
      <point x="190" y="612"/>
      <point x="288" y="612" type="curve" smooth="yes"/>
      <point x="359" y="612"/>
      <point x="423" y="584"/>
      <point x="423" y="510" type="curve" smooth="yes"/>
      <point x="423" y="440"/>
      <point x="386" y="391"/>
      <point x="295" y="391" type="curve"/>
      <point x="295" y="328" type="line"/>
      <point x="371" y="328"/>
      <point x="456" y="271"/>
      <point x="456" y="177" type="curve" smooth="yes"/>
      <point x="456" y="96"/>
      <point x="413" y="53"/>
      <point x="336" y="53" type="curve" smooth="yes"/>
      <point x="311" y="53"/>
      <point x="281" y="59"/>
      <point x="249" y="71" type="curve"/>
      <point x="249" y="0" type="line"/>
      <point x="280" y="-8"/>
      <point x="307" y="-13"/>
      <point x="333" y="-13" type="curve" smooth="yes"/>
      <point x="467" y="-13"/>
      <point x="530" y="74"/>
      <point x="530" y="173" type="curve" smooth="yes"/>
      <point x="530" y="284"/>
      <point x="455" y="354"/>
      <point x="404" y="370" type="curve"/>
      <point x="451" y="386"/>
      <point x="497" y="437"/>
      <point x="497" y="519" type="curve" smooth="yes"/>
      <point x="497" y="621"/>
      <point x="406" y="676"/>
      <point x="286" y="676" type="curve" smooth="yes"/>
      <point x="137" y="676"/>
      <point x="80" y="563"/>
      <point x="80" y="423" type="curve" smooth="yes"/>
    </contour>
  </outline>
</glyph>
<glyph name="ae" format="2">
  <advance width="893"/>
  <unicode hex="00E6"/>
  <anchor x="489" y="-15" name="bottom"/>
  <anchor x="455" y="499" name="top"/>
  <outline>
    <contour>
      <point x="465" y="62" type="curve"/>
      <point x="432" y="110" type="line"/>
      <point x="399" y="71"/>
      <point x="332" y="49"/>
      <point x="269" y="49" type="curve"/>
      <point x="201" y="49"/>
      <point x="132" y="73"/>
      <point x="132" y="143" type="curve"/>
      <point x="132" y="209"/>
      <point x="174" y="242"/>
      <point x="263" y="242" type="curve"/>
      <point x="332" y="242"/>
      <point x="394" y="222"/>
      <point x="425" y="200" type="curve"/>
      <point x="411" y="272" type="line"/>
      <point x="373" y="296"/>
      <point x="325" y="307"/>
      <point x="271" y="307" type="curve"/>
      <point x="156" y="307"/>
      <point x="60" y="267"/>
      <point x="60" y="137" type="curve"/>
      <point x="60" y="29"/>
      <point x="145" y="-15"/>
      <point x="269" y="-15" type="curve"/>
      <point x="364" y="-15"/>
      <point x="425" y="27"/>
    </contour>
    <contour>
      <point x="401" y="243" type="line"/>
      <point x="401" y="67"/>
      <point x="489" y="-15"/>
      <point x="632" y="-15" type="curve"/>
      <point x="701" y="-15"/>
      <point x="759" y="-3"/>
      <point x="807" y="20" type="curve"/>
      <point x="807" y="94" type="line"/>
      <point x="766" y="69"/>
      <point x="709" y="51"/>
      <point x="636" y="51" type="curve"/>
      <point x="533" y="51"/>
      <point x="474" y="116"/>
      <point x="474" y="237" type="curve"/>
      <point x="474" y="348" type="line"/>
      <point x="474" y="455"/>
      <point x="402" y="508"/>
      <point x="293" y="508" type="curve"/>
      <point x="227" y="508"/>
      <point x="150" y="493"/>
      <point x="109" y="467" type="curve"/>
      <point x="109" y="395" type="line"/>
      <point x="151" y="428"/>
      <point x="216" y="443"/>
      <point x="270" y="443" type="curve" smooth="yes"/>
      <point x="354" y="443"/>
      <point x="401" y="408"/>
      <point x="401" y="331" type="curve"/>
    </contour>
    <contour>
      <point x="401" y="250" type="curve"/>
      <point x="474" y="237" type="line"/>
      <point x="474" y="397"/>
      <point x="521" y="442"/>
      <point x="620" y="442" type="curve"/>
      <point x="714" y="442"/>
      <point x="759" y="393"/>
      <point x="763" y="293" type="curve"/>
      <point x="791" y="303" type="line"/>
      <point x="442" y="303" type="line"/>
      <point x="437" y="237" type="line"/>
      <point x="838" y="237" type="line"/>
      <point x="840" y="390"/>
      <point x="780" y="508"/>
      <point x="620" y="508" type="curve"/>
      <point x="484" y="508"/>
      <point x="401" y="422"/>
    </contour>
  </outline>
</glyph>
<glyph name="igrave" format="2">
  <advance width="270"/>
  <unicode hex="00EC"/>
  <outline>
    <contour>
      <point x="99" y="0" type="line"/>
      <point x="171" y="0" type="line"/>
      <point x="171" y="499" type="line"/>
      <point x="99" y="499" type="line"/>
    </contour>
    <contour>
      <point x="111" y="564" type="line"/>
      <point x="159" y="564" type="line"/>
      <point x="102" y="679" type="line"/>
      <point x="28" y="679" type="line"/>
    </contour>
  </outline>
</glyph>
<glyph name="iacute" format="2">
  <advance width="270"/>
  <unicode hex="00ED"/>
  <outline>
    <contour>
      <point x="99" y="0" type="line"/>
      <point x="171" y="0" type="line"/>
      <point x="171" y="499" type="line"/>
      <point x="99" y="499" type="line"/>
    </contour>
    <contour>
      <point x="111" y="564" type="line"/>
      <point x="158" y="564" type="line"/>
      <point x="241" y="679" type="line"/>
      <point x="167" y="679" type="line"/>
    </contour>
  </outline>
</glyph>
<glyph name="icircumflex" format="2">
  <advance width="270"/>
  <unicode hex="00EE"/>
  <outline>
    <contour>
      <point x="99" y="0" type="line"/>
      <point x="171" y="0" type="line"/>
      <point x="171" y="499" type="line"/>
      <point x="99" y="499" type="line"/>
    </contour>
    <contour>
      <point x="33" y="564" type="line"/>
      <point x="89" y="564" type="line"/>
      <point x="135" y="634" type="line"/>
      <point x="180" y="564" type="line"/>
      <point x="236" y="564" type="line"/>
      <point x="155" y="684" type="line"/>
      <point x="114" y="684" type="line"/>
    </contour>
  </outline>
</glyph>
<glyph name="idieresis" format="2">
  <advance width="270"/>
  <unicode hex="00EF"/>
  <outline>
    <contour>
      <point x="99" y="0" type="line"/>
      <point x="171" y="0" type="line"/>
      <point x="171" y="499" type="line"/>
      <point x="99" y="499" type="line"/>
    </contour>
    <contour>
      <point x="21" y="564" type="line"/>
      <point x="100" y="564" type="line"/>
      <point x="100" y="643" type="line"/>
      <point x="21" y="643" type="line"/>
    </contour>
    <contour>
      <point x="169" y="564" type="line"/>
      <point x="248" y="564" type="line"/>
      <point x="248" y="643" type="line"/>
      <point x="169" y="643" type="line"/>
    </contour>
  </outline>
</glyph>
<glyph name="eth" format="2">
  <advance width="567"/>
  <unicode hex="00F0"/>
  <outline>
    <contour>
      <point x="285" y="-15" type="curve"/>
      <point x="436" y="-15"/>
      <point x="512" y="97"/>
      <point x="512" y="271" type="curve" smooth="yes"/>
      <point x="512" y="481"/>
      <point x="355" y="624"/>
      <point x="288" y="689" type="curve"/>
      <point x="174" y="689" type="line"/>
      <point x="174" y="686" type="line"/>
      <point x="304" y="590"/>
      <point x="440" y="446"/>
      <point x="440" y="271" type="curve"/>
      <point x="438" y="86"/>
      <point x="370" y="51"/>
      <point x="284" y="51" type="curve"/>
      <point x="168" y="51"/>
      <point x="127" y="130"/>
      <point x="127" y="248" type="curve"/>
      <point x="127" y="357"/>
      <point x="164" y="442"/>
      <point x="284" y="442" type="curve"/>
      <point x="353" y="442"/>
      <point x="415" y="412"/>
      <point x="446" y="370" type="curve"/>
      <point x="432" y="436" type="line"/>
      <point x="394" y="480"/>
      <point x="349" y="508"/>
      <point x="283" y="508" type="curve"/>
      <point x="137" y="508"/>
      <point x="55" y="421"/>
      <point x="55" y="248" type="curve"/>
      <point x="55" y="82"/>
      <point x="129" y="-15"/>
    </contour>
    <contour>
      <point x="173" y="549" type="line"/>
      <point x="454" y="595" type="line"/>
      <point x="446" y="652" type="line"/>
      <point x="164" y="606" type="line"/>
    </contour>
  </outline>
</glyph>
<glyph name="divide" format="2">
  <advance width="628"/>
  <unicode hex="00F7"/>
  <outline>
    <contour>
      <point x="111" y="227" type="line"/>
      <point x="517" y="227" type="line"/>
      <point x="517" y="287" type="line"/>
      <point x="111" y="287" type="line"/>
    </contour>
    <contour>
      <point x="274" y="74" type="line"/>
      <point x="354" y="74" type="line"/>
      <point x="354" y="154" type="line"/>
      <point x="274" y="154" type="line"/>
    </contour>
    <contour>
      <point x="274" y="359" type="line"/>
      <point x="354" y="359" type="line"/>
      <point x="354" y="439" type="line"/>
      <point x="274" y="439" type="line"/>
    </contour>
  </outline>
</glyph>
<glyph name="oslash" format="2">
  <advance width="574"/>
  <unicode hex="00F8"/>
  <anchor x="287" y="499" name="top"/>
  <anchor x="287" y="0" name="bottom"/>
  <anchor x="287" y="250" name="center"/>
  <anchor x="402" y="10" name="ogonek"/>
  <anchor x="415" y="522" name="topright"/>
  <outline>
    <contour>
      <point x="115" y="0" type="line"/>
      <point x="536" y="499" type="line"/>
      <point x="458" y="499" type="line"/>
      <point x="37" y="0" type="line"/>
    </contour>
    <component base="o"/>
  </outline>
</glyph>
<glyph name="thorn" format="2">
  <advance width="569"/>
  <unicode hex="00FE"/>
  <outline>
    <contour>
      <point x="152" y="-200" type="line"/>
      <point x="152" y="689" type="line"/>
      <point x="80" y="689" type="line"/>
      <point x="80" y="-200" type="line"/>
    </contour>
    <contour>
      <point x="152" y="87" type="curve"/>
      <point x="127" y="26" type="line"/>
      <point x="166" y="6"/>
      <point x="232" y="-14"/>
      <point x="276" y="-14" type="curve"/>
      <point x="430" y="-14"/>
      <point x="514" y="83"/>
      <point x="514" y="237" type="curve"/>
      <point x="514" y="441"/>
      <point x="401" y="508"/>
      <point x="282" y="508" type="curve"/>
      <point x="200" y="507"/>
      <point x="80" y="491"/>
      <point x="80" y="409" type="curve"/>
      <point x="152" y="396" type="line"/>
      <point x="152" y="425"/>
      <point x="212" y="442"/>
      <point x="281" y="442" type="curve"/>
      <point x="411" y="442"/>
      <point x="438" y="345"/>
      <point x="438" y="237" type="curve"/>
      <point x="438" y="128"/>
      <point x="385" y="52"/>
      <point x="276" y="52" type="curve"/>
      <point x="234" y="52"/>
      <point x="193" y="63"/>
    </contour>
  </outline>
</glyph>
<glyph name="Hbar" format="2">
  <advance width="669"/>
  <unicode hex="0126"/>
  <anchor x="335" y="505" name="_center"/>
  <anchor x="335" y="0" name="bottom"/>
  <anchor x="335" y="525" name="center"/>
  <anchor x="335" y="667" name="top"/>
  <anchor x="18" y="667" name="topleft"/>
  <outline>
    <contour>
      <point x="35" y="478" type="line"/>
      <point x="634" y="478" type="line"/>
      <point x="634" y="531" type="line"/>
      <point x="35" y="531" type="line"/>
    </contour>
    <component base="H"/>
  </outline>
</glyph>
<glyph name="imacron" format="2">
  <advance width="270"/>
  <unicode hex="012B"/>
  <outline>
    <contour>
      <point x="99" y="0" type="line"/>
      <point x="171" y="0" type="line"/>
      <point x="171" y="499" type="line"/>
      <point x="99" y="499" type="line"/>
    </contour>
    <contour>
      <point x="18" y="576" type="line"/>
      <point x="251" y="576" type="line"/>
      <point x="251" y="629" type="line"/>
      <point x="18" y="629" type="line"/>
    </contour>
  </outline>
</glyph>
<glyph name="Iogonek" format="2">
  <advance width="242"/>
  <unicode hex="012E"/>
  <anchor x="179" y="10" name="_ogonek"/>
  <anchor x="121" y="0" name="bottom"/>
  <anchor x="179" y="10" name="ogonek"/>
  <anchor x="121" y="667" name="top"/>
  <anchor x="18" y="667" name="topleft"/>
  <outline>
    <contour>
      <point x="94" y="-173" type="curve" smooth="yes"/>
      <point x="119" y="-173"/>
      <point x="138" y="-164"/>
      <point x="154" y="-155" type="curve"/>
      <point x="154" y="-92" type="line"/>
      <point x="146" y="-100"/>
      <point x="125" y="-119"/>
      <point x="99" y="-119" type="curve" smooth="yes"/>
      <point x="77" y="-119"/>
      <point x="65" y="-109"/>
      <point x="65" y="-85" type="curve" smooth="yes"/>
      <point x="65" y="-56"/>
      <point x="104" y="-25"/>
      <point x="157" y="0" type="curve"/>
      <point x="90" y="11" type="line"/>
      <point x="42" y="-9"/>
      <point x="6" y="-57"/>
      <point x="6" y="-90" type="curve" smooth="yes"/>
      <point x="6" y="-143"/>
      <point x="40" y="-173"/>
    </contour>
    <component base="I"/>
  </outline>
</glyph>
<glyph name="iogonek" format="2">
  <advance width="240"/>
  <unicode hex="012F"/>
  <anchor x="178" y="10" name="_ogonek"/>
  <anchor x="118" y="0" name="bottom"/>
  <anchor x="178" y="10" name="ogonek"/>
  <outline>
    <contour>
      <point x="93" y="-173" type="curve" smooth="yes"/>
      <point x="118" y="-173"/>
      <point x="137" y="-164"/>
      <point x="153" y="-155" type="curve"/>
      <point x="153" y="-92" type="line"/>
      <point x="145" y="-100"/>
      <point x="124" y="-119"/>
      <point x="98" y="-119" type="curve" smooth="yes"/>
      <point x="76" y="-119"/>
      <point x="64" y="-109"/>
      <point x="64" y="-85" type="curve" smooth="yes"/>
      <point x="64" y="-56"/>
      <point x="103" y="-25"/>
      <point x="156" y="0" type="curve"/>
      <point x="87" y="10" type="line"/>
      <point x="39" y="-10"/>
      <point x="5" y="-57"/>
      <point x="5" y="-90" type="curve" smooth="yes"/>
      <point x="5" y="-143"/>
      <point x="39" y="-173"/>
    </contour>
    <component base="i"/>
  </outline>
</glyph>
<glyph name="dotlessi" format="2">
  <advance width="232"/>
  <unicode hex="0131"/>
  <anchor x="116" y="0" name="bottom"/>
  <anchor x="209" y="10" name="ogonek"/>
  <anchor x="116" y="499" name="top"/>
  <outline>
    <contour>
      <point x="80" y="0" type="line"/>
      <point x="152" y="0" type="line"/>
      <point x="152" y="499" type="line"/>
      <point x="80" y="499" type="line"/>
    </contour>
  </outline>
</glyph>
<glyph name="jcircumflex" format="2">
  <advance width="251"/>
  <unicode hex="0135"/>
  <outline>
    <contour>
      <point x="3" y="-193" type="line"/>
      <point x="120" y="-193"/>
      <point x="177" y="-139"/>
      <point x="177" y="-29" type="curve" smooth="yes"/>
      <point x="177" y="499" type="line"/>
      <point x="105" y="499" type="line"/>
      <point x="105" y="-25" type="line" smooth="yes"/>
      <point x="105" y="-90"/>
      <point x="90" y="-124"/>
      <point x="3" y="-126" type="curve"/>
    </contour>
    <contour>
      <point x="40" y="564" type="line"/>
      <point x="96" y="564" type="line"/>
      <point x="141" y="634" type="line"/>
      <point x="186" y="564" type="line"/>
      <point x="242" y="564" type="line"/>
      <point x="162" y="684" type="line"/>
      <point x="120" y="684" type="line"/>
    </contour>
  </outline>
</glyph>
<glyph name="kcommaaccent" format="2">
  <advance width="549"/>
  <unicode hex="0137"/>
  <outline>
    <contour>
      <point x="92" y="0" type="line"/>
      <point x="164" y="0" type="line"/>
      <point x="164" y="152" type="line"/>
      <point x="226" y="219" type="line"/>
      <point x="418" y="0" type="line"/>
      <point x="513" y="0" type="line"/>
      <point x="273" y="270" type="line"/>
      <point x="486" y="499" type="line"/>
      <point x="389" y="499" type="line"/>
      <point x="164" y="254" type="line"/>
      <point x="164" y="689" type="line"/>
      <point x="92" y="689" type="line"/>
    </contour>
    <contour>
      <point x="212" y="-193" type="line"/>
      <point x="257" y="-183"/>
      <point x="313" y="-145"/>
      <point x="313" y="-49" type="curve"/>
      <point x="253" y="-49" type="line"/>
      <point x="253" y="-78"/>
      <point x="250" y="-124"/>
      <point x="212" y="-139" type="curve"/>
    </contour>
  </outline>
</glyph>
<glyph name="kgreenlandic" format="2">
  <advance width="549"/>
  <unicode hex="0138"/>
  <outline>
    <contour>
      <point x="92" y="0" type="line"/>
      <point x="164" y="0" type="line"/>
      <point x="164" y="152" type="line"/>
      <point x="226" y="219" type="line"/>
      <point x="418" y="0" type="line"/>
      <point x="513" y="0" type="line"/>
      <point x="273" y="270" type="line"/>
      <point x="486" y="499" type="line"/>
      <point x="389" y="499" type="line"/>
      <point x="164" y="254" type="line"/>
      <point x="164" y="499" type="line"/>
      <point x="92" y="499" type="line"/>
    </contour>
  </outline>
</glyph>
<glyph name="lcaron" format="2">
  <advance width="270"/>
  <unicode hex="013E"/>
  <outline>
    <contour>
      <point x="101" y="0" type="line"/>
      <point x="173" y="0" type="line"/>
      <point x="173" y="689" type="line"/>
      <point x="101" y="689" type="line"/>
    </contour>
    <contour>
      <point x="207" y="546" type="line"/>
      <point x="251" y="556"/>
      <point x="307" y="594"/>
      <point x="307" y="689" type="curve"/>
      <point x="247" y="689" type="line"/>
      <point x="247" y="661"/>
      <point x="244" y="614"/>
      <point x="207" y="600" type="curve"/>
    </contour>
  </outline>
</glyph>
<glyph name="ldot" format="2">
  <advance width="325"/>
  <unicode hex="0140"/>
  <anchor x="116" y="0" name="bottom"/>
  <anchor x="274" y="329" name="center"/>
  <anchor x="116" y="689" name="top"/>
  <anchor x="207" y="499" name="topright"/>
  <outline>
    <contour>
      <point x="152" y="0" type="line"/>
      <point x="152" y="689" type="line"/>
      <point x="80" y="689" type="line"/>
      <point x="80" y="0" type="line"/>
    </contour>
    <contour>
      <point x="236" y="286" type="line"/>
      <point x="315" y="286" type="line"/>
      <point x="315" y="366" type="line"/>
      <point x="236" y="366" type="line"/>
    </contour>
  </outline>
</glyph>
<glyph name="Lslash" format="2">
  <advance width="521"/>
  <unicode hex="0141"/>
  <anchor x="269" y="0" name="bottom"/>
  <anchor x="321" y="334" name="center"/>
  <anchor x="125" y="667" name="top"/>
  <anchor x="518" y="667" name="topright"/>
  <outline>
    <contour>
      <point x="13" y="251" type="line"/>
      <point x="293" y="440" type="line"/>
      <point x="293" y="504" type="line"/>
      <point x="13" y="315" type="line"/>
    </contour>
    <component base="L"/>
  </outline>
</glyph>
<glyph name="lslash" format="2">
  <advance width="270"/>
  <unicode hex="0142"/>
  <outline>
    <contour>
      <point x="101" y="0" type="line"/>
      <point x="173" y="0" type="line"/>
      <point x="173" y="388" type="line"/>
      <point x="251" y="440" type="line"/>
      <point x="251" y="504" type="line"/>
      <point x="173" y="452" type="line"/>
      <point x="173" y="689" type="line"/>
      <point x="101" y="689" type="line"/>
      <point x="101" y="403" type="line"/>
      <point x="35" y="359" type="line"/>
      <point x="35" y="295" type="line"/>
      <point x="101" y="339" type="line"/>
    </contour>
  </outline>
</glyph>
<glyph name="napostrophe" format="2">
  <advance width="581"/>
  <unicode hex="0149"/>
  <outline>
    <contour>
      <point x="82" y="0" type="line"/>
      <point x="154" y="0" type="line"/>
      <point x="154" y="416" type="line"/>
      <point x="189" y="426"/>
      <point x="234" y="436"/>
      <point x="286" y="436" type="curve" smooth="yes"/>
      <point x="406" y="436"/>
      <point x="419" y="372"/>
      <point x="419" y="325" type="curve" smooth="yes"/>
      <point x="419" y="0" type="line"/>
      <point x="491" y="0" type="line"/>
      <point x="491" y="325" type="line" smooth="yes"/>
      <point x="491" y="441"/>
      <point x="419" y="508"/>
      <point x="293" y="508" type="curve" smooth="yes"/>
      <point x="190" y="508"/>
      <point x="106" y="471"/>
      <point x="82" y="459" type="curve"/>
    </contour>
    <contour>
      <point x="32" y="520" type="line"/>
      <point x="76" y="530"/>
      <point x="133" y="568"/>
      <point x="133" y="664" type="curve"/>
      <point x="73" y="664" type="line"/>
      <point x="73" y="635"/>
      <point x="70" y="589"/>
      <point x="32" y="574" type="curve"/>
    </contour>
  </outline>
</glyph>
<glyph name="Eng" format="2">
  <advance width="728"/>
  <unicode hex="014A"/>
  <outline>
    <contour>
      <point x="464" y="-172" type="line"/>
      <point x="581" y="-172"/>
      <point x="638" y="-119"/>
      <point x="638" y="-9" type="curve" smooth="yes"/>
      <point x="638" y="667" type="line"/>
      <point x="566" y="667" type="line"/>
      <point x="566" y="105" type="line"/>
      <point x="169" y="667" type="line"/>
      <point x="87" y="667" type="line"/>
      <point x="87" y="0" type="line"/>
      <point x="159" y="0" type="line"/>
      <point x="159" y="562" type="line"/>
      <point x="585" y="-35" type="line"/>
      <point x="566" y="29" type="line"/>
      <point x="566" y="-12" type="line"/>
      <point x="565" y="-72"/>
      <point x="548" y="-104"/>
      <point x="464" y="-105" type="curve"/>
    </contour>
  </outline>
</glyph>
<glyph name="eng" format="2">
  <advance width="581"/>
  <unicode hex="014B"/>
  <outline>
    <contour>
      <point x="82" y="0" type="line"/>
      <point x="154" y="0" type="line"/>
      <point x="154" y="416" type="line"/>
      <point x="189" y="426"/>
      <point x="234" y="436"/>
      <point x="286" y="436" type="curve" smooth="yes"/>
      <point x="406" y="436"/>
      <point x="419" y="372"/>
      <point x="419" y="325" type="curve" smooth="yes"/>
      <point x="419" y="-4" type="line" smooth="yes"/>
      <point x="419" y="-69"/>
      <point x="404" y="-104"/>
      <point x="317" y="-105" type="curve"/>
      <point x="317" y="-172" type="line"/>
      <point x="434" y="-172"/>
      <point x="491" y="-119"/>
      <point x="491" y="-9" type="curve" smooth="yes"/>
      <point x="491" y="325" type="line" smooth="yes"/>
      <point x="491" y="441"/>
      <point x="419" y="508"/>
      <point x="293" y="508" type="curve" smooth="yes"/>
      <point x="190" y="508"/>
      <point x="106" y="471"/>
      <point x="82" y="459" type="curve"/>
    </contour>
  </outline>
</glyph>
<glyph name="Tcaron" format="2">
  <advance width="568"/>
  <unicode hex="0164"/>
  <outline>
    <contour>
      <point x="248" y="0" type="line"/>
      <point x="320" y="0" type="line"/>
      <point x="320" y="597" type="line"/>
      <point x="555" y="597" type="line"/>
      <point x="555" y="667" type="line"/>
      <point x="12" y="667" type="line"/>
      <point x="12" y="597" type="line"/>
      <point x="248" y="597" type="line"/>
    </contour>
    <contour>
      <point x="263" y="724" type="line"/>
      <point x="304" y="724" type="line"/>
      <point x="385" y="845" type="line"/>
      <point x="329" y="845" type="line"/>
      <point x="284" y="774" type="line"/>
      <point x="238" y="845" type="line"/>
      <point x="182" y="845" type="line"/>
    </contour>
  </outline>
</glyph>
<glyph name="tbar" format="2">
  <advance width="345"/>
  <unicode hex="0167"/>
  <outline>
    <contour>
      <point x="246" y="-8" type="curve" smooth="yes"/>
      <point x="271" y="-8"/>
      <point x="293" y="-3"/>
      <point x="312" y="4" type="curve"/>
      <point x="312" y="72" type="line"/>
      <point x="298" y="65"/>
      <point x="279" y="60"/>
      <point x="255" y="60" type="curve" smooth="yes"/>
      <point x="202" y="60"/>
      <point x="183" y="79"/>
      <point x="183" y="129" type="curve" smooth="yes"/>
      <point x="183" y="244" type="line"/>
      <point x="297" y="244" type="line"/>
      <point x="297" y="304" type="line"/>
      <point x="183" y="304" type="line"/>
      <point x="183" y="433" type="line"/>
      <point x="312" y="433" type="line"/>
      <point x="312" y="499" type="line"/>
      <point x="183" y="499" type="line"/>
      <point x="183" y="640" type="line"/>
      <point x="111" y="640" type="line"/>
      <point x="111" y="499" type="line"/>
      <point x="24" y="499" type="line"/>
      <point x="24" y="433" type="line"/>
      <point x="111" y="433" type="line"/>
      <point x="111" y="304" type="line"/>
      <point x="37" y="304" type="line"/>
      <point x="37" y="244" type="line"/>
      <point x="111" y="244" type="line"/>
      <point x="111" y="133" type="line" smooth="yes"/>
      <point x="111" y="5"/>
      <point x="205" y="-8"/>
    </contour>
  </outline>
</glyph>
<glyph name="Schwa" format="2">
  <advance width="717"/>
  <unicode hex="018F"/>
  <outline>
    <contour>
      <point x="346" y="672" type="curve"/>
      <point x="245" y="672"/>
      <point x="155" y="645"/>
      <point x="91" y="610" type="curve"/>
      <point x="91" y="536" type="line"/>
      <point x="142" y="569"/>
      <point x="237" y="606"/>
      <point x="342" y="606" type="curve"/>
      <point x="493" y="606"/>
      <point x="584" y="517"/>
      <point x="584" y="340" type="curve"/>
      <point x="584" y="116"/>
      <point x="513" y="55"/>
      <point x="358" y="55" type="curve"/>
      <point x="208" y="55"/>
      <point x="139" y="128"/>
      <point x="135" y="284" type="curve"/>
      <point x="107" y="274" type="line"/>
      <point x="616" y="274" type="line"/>
      <point x="621" y="340" type="line"/>
      <point x="60" y="340" type="line"/>
      <point x="58" y="139"/>
      <point x="142" y="-11"/>
      <point x="358" y="-11" type="curve"/>
      <point x="542" y="-11"/>
      <point x="657" y="99"/>
      <point x="657" y="327" type="curve"/>
      <point x="657" y="559"/>
      <point x="537" y="672"/>
    </contour>
  </outline>
</glyph>
<glyph name="florin" format="2">
  <advance width="330"/>
  <unicode hex="0192"/>
  <outline>
    <contour>
      <point x="40" y="-122" type="curve" smooth="yes"/>
      <point x="80" y="-122"/>
      <point x="201" y="-122"/>
      <point x="201" y="61" type="curve" smooth="yes"/>
      <point x="201" y="433" type="line"/>
      <point x="322" y="433" type="line"/>
      <point x="322" y="499" type="line"/>
      <point x="201" y="499" type="line"/>
      <point x="201" y="509" type="line" smooth="yes"/>
      <point x="201" y="625"/>
      <point x="258" y="625"/>
      <point x="304" y="625" type="curve" smooth="yes"/>
      <point x="310" y="625"/>
      <point x="316" y="624"/>
      <point x="322" y="624" type="curve"/>
      <point x="322" y="689" type="line"/>
      <point x="313" y="690"/>
      <point x="303" y="691"/>
      <point x="292" y="691" type="curve" smooth="yes"/>
      <point x="252" y="691"/>
      <point x="131" y="691"/>
      <point x="131" y="508" type="curve" smooth="yes"/>
      <point x="131" y="499" type="line"/>
      <point x="44" y="499" type="line"/>
      <point x="44" y="433" type="line"/>
      <point x="131" y="433" type="line"/>
      <point x="131" y="60" type="line" smooth="yes"/>
      <point x="131" y="-56"/>
      <point x="74" y="-56"/>
      <point x="28" y="-56" type="curve" smooth="yes"/>
      <point x="21" y="-56"/>
      <point x="15" y="-56"/>
      <point x="10" y="-55" type="curve"/>
      <point x="10" y="-120" type="line"/>
      <point x="19" y="-122"/>
      <point x="29" y="-122"/>
    </contour>
  </outline>
</glyph>
<glyph name="Nhookleft" format="2">
  <advance width="749"/>
  <unicode hex="019D"/>
  <anchor x="389" y="0" name="bottom"/>
  <anchor x="389" y="667" name="top"/>
  <outline>
    <contour>
      <point x="184" y="-29" type="curve"/>
      <point x="184" y="640" type="line"/>
      <point x="151" y="609" type="line"/>
      <point x="583" y="0" type="line"/>
      <point x="664" y="0" type="line"/>
      <point x="664" y="667" type="line"/>
      <point x="592" y="667" type="line"/>
      <point x="592" y="52" type="line"/>
      <point x="610" y="80" type="line"/>
      <point x="194" y="667" type="line"/>
      <point x="112" y="667" type="line"/>
      <point x="112" y="-25" type="line"/>
      <point x="112" y="-90"/>
      <point x="97" y="-124"/>
      <point x="10" y="-126" type="curve"/>
      <point x="10" y="-193" type="line"/>
      <point x="127" y="-193"/>
      <point x="184" y="-139"/>
    </contour>
  </outline>
</glyph>
<glyph name="uni021B" format="2">
  <advance width="345"/>
  <unicode hex="021B"/>
  <outline>
    <contour>
      <point x="246" y="-8" type="curve" smooth="yes"/>
      <point x="271" y="-8"/>
      <point x="293" y="-3"/>
      <point x="312" y="4" type="curve"/>
      <point x="312" y="72" type="line"/>
      <point x="298" y="65"/>
      <point x="279" y="60"/>
      <point x="255" y="60" type="curve" smooth="yes"/>
      <point x="202" y="60"/>
      <point x="183" y="79"/>
      <point x="183" y="129" type="curve" smooth="yes"/>
      <point x="183" y="433" type="line"/>
      <point x="312" y="433" type="line"/>
      <point x="312" y="499" type="line"/>
      <point x="183" y="499" type="line"/>
      <point x="183" y="640" type="line"/>
      <point x="111" y="640" type="line"/>
      <point x="111" y="499" type="line"/>
      <point x="24" y="499" type="line"/>
      <point x="24" y="433" type="line"/>
      <point x="111" y="433" type="line"/>
      <point x="111" y="133" type="line" smooth="yes"/>
      <point x="111" y="5"/>
      <point x="205" y="-8"/>
    </contour>
    <contour>
      <point x="155" y="-193" type="line"/>
      <point x="199" y="-183"/>
      <point x="255" y="-145"/>
      <point x="255" y="-49" type="curve"/>
      <point x="196" y="-49" type="line"/>
      <point x="196" y="-78"/>
      <point x="192" y="-124"/>
      <point x="155" y="-139" type="curve"/>
    </contour>
  </outline>
</glyph>
<glyph name="dotlessj" format="2">
  <advance width="251"/>
  <unicode hex="0237"/>
  <outline>
    <contour>
      <point x="3" y="-193" type="line"/>
      <point x="120" y="-193"/>
      <point x="177" y="-139"/>
      <point x="177" y="-29" type="curve" smooth="yes"/>
      <point x="177" y="499" type="line"/>
      <point x="105" y="499" type="line"/>
      <point x="105" y="-25" type="line" smooth="yes"/>
      <point x="105" y="-90"/>
      <point x="90" y="-124"/>
      <point x="3" y="-126" type="curve"/>
    </contour>
  </outline>
</glyph>
<glyph name="nhookleft" format="2">
  <advance width="569"/>
  <unicode hex="0272"/>
  <anchor x="286" y="0" name="bottom"/>
  <anchor x="286" y="499" name="top"/>
  <outline>
    <contour>
      <point x="80" y="4" type="line"/>
      <point x="80" y="-61"/>
      <point x="65" y="-95"/>
      <point x="-22" y="-97" type="curve"/>
      <point x="-22" y="-164" type="line"/>
      <point x="95" y="-164"/>
      <point x="152" y="-110"/>
      <point x="152" y="0" type="curve"/>
      <point x="152" y="423" type="line"/>
      <point x="197" y="436"/>
      <point x="241" y="443"/>
      <point x="283" y="443" type="curve"/>
      <point x="403" y="443"/>
      <point x="417" y="372"/>
      <point x="417" y="325" type="curve"/>
      <point x="417" y="0" type="line"/>
      <point x="489" y="0" type="line"/>
      <point x="489" y="325" type="line"/>
      <point x="489" y="441"/>
      <point x="436" y="508"/>
      <point x="291" y="508" type="curve"/>
      <point x="216" y="508"/>
      <point x="145" y="492"/>
      <point x="80" y="459" type="curve"/>
    </contour>
  </outline>
</glyph>
<glyph name="circumflex" format="2">
  <advance width="402"/>
  <unicode hex="02C6"/>
  <outline>
    <contour>
      <point x="91" y="564" type="line"/>
      <point x="137" y="564" type="line"/>
      <point x="202" y="634" type="line"/>
      <point x="267" y="564" type="line"/>
      <point x="313" y="564" type="line"/>
      <point x="233" y="684" type="line"/>
      <point x="172" y="684" type="line"/>
    </contour>
  </outline>
</glyph>
<glyph name="caron" format="2">
  <advance width="406"/>
  <unicode hex="02C7"/>
  <outline>
    <contour>
      <point x="182" y="564" type="line"/>
      <point x="223" y="564" type="line"/>
      <point x="303" y="684" type="line"/>
      <point x="247" y="684" type="line"/>
      <point x="202" y="614" type="line"/>
      <point x="157" y="684" type="line"/>
      <point x="101" y="684" type="line"/>
    </contour>
  </outline>
</glyph>
<glyph name="breve" format="2">
  <advance width="428"/>
  <unicode hex="02D8"/>
  <outline>
    <contour>
      <point x="216" y="545" type="curve" smooth="yes"/>
      <point x="282" y="545"/>
      <point x="337" y="584"/>
      <point x="351" y="659" type="curve"/>
      <point x="299" y="659" type="line"/>
      <point x="283" y="619"/>
      <point x="256" y="597"/>
      <point x="216" y="597" type="curve" smooth="yes"/>
      <point x="176" y="597"/>
      <point x="148" y="619"/>
      <point x="133" y="659" type="curve"/>
      <point x="81" y="659" type="line"/>
      <point x="98" y="584"/>
      <point x="151" y="545"/>
    </contour>
  </outline>
</glyph>
<glyph name="dotaccent" format="2">
  <advance width="323"/>
  <unicode hex="02D9"/>
  <outline>
    <contour>
      <point x="125" y="564" type="line"/>
      <point x="204" y="564" type="line"/>
      <point x="204" y="643" type="line"/>
      <point x="125" y="643" type="line"/>
    </contour>
  </outline>
</glyph>
<glyph name="ring" format="2">
  <advance width="409"/>
  <unicode hex="02DA"/>
  <outline>
    <contour>
      <point x="197" y="535" type="curve" smooth="yes"/>
      <point x="269" y="535"/>
      <point x="298" y="564"/>
      <point x="298" y="627" type="curve" smooth="yes"/>
      <point x="298" y="690"/>
      <point x="269" y="719"/>
      <point x="197" y="719" type="curve" smooth="yes"/>
      <point x="124" y="719"/>
      <point x="96" y="690"/>
      <point x="96" y="627" type="curve" smooth="yes"/>
      <point x="96" y="564"/>
      <point x="124" y="535"/>
    </contour>
    <contour>
      <point x="197" y="578" type="curve" smooth="yes"/>
      <point x="154" y="578"/>
      <point x="142" y="592"/>
      <point x="142" y="627" type="curve" smooth="yes"/>
      <point x="142" y="662"/>
      <point x="154" y="675"/>
      <point x="197" y="675" type="curve" smooth="yes"/>
      <point x="239" y="675"/>
      <point x="251" y="662"/>
      <point x="251" y="627" type="curve" smooth="yes"/>
      <point x="251" y="592"/>
      <point x="239" y="578"/>
    </contour>
  </outline>
</glyph>
<glyph name="ogonek" format="2">
  <advance width="347"/>
  <unicode hex="02DB"/>
  <outline>
    <contour>
      <point x="176" y="-173" type="curve" smooth="yes"/>
      <point x="201" y="-173"/>
      <point x="220" y="-164"/>
      <point x="236" y="-155" type="curve"/>
      <point x="236" y="-92" type="line"/>
      <point x="228" y="-100"/>
      <point x="207" y="-119"/>
      <point x="181" y="-119" type="curve" smooth="yes"/>
      <point x="159" y="-119"/>
      <point x="147" y="-109"/>
      <point x="147" y="-85" type="curve" smooth="yes"/>
      <point x="147" y="-56"/>
      <point x="186" y="-25"/>
      <point x="239" y="0" type="curve"/>
      <point x="161" y="4" type="line"/>
      <point x="113" y="-16"/>
      <point x="88" y="-57"/>
      <point x="88" y="-90" type="curve" smooth="yes"/>
      <point x="88" y="-143"/>
      <point x="122" y="-173"/>
    </contour>
  </outline>
</glyph>
<glyph name="tilde" format="2">
  <advance width="391"/>
  <unicode hex="02DC"/>
  <outline>
    <contour>
      <point x="100" y="544" type="line"/>
      <point x="92" y="583"/>
      <point x="109" y="599"/>
      <point x="126" y="599" type="curve" smooth="yes"/>
      <point x="159" y="599"/>
      <point x="197" y="537"/>
      <point x="255" y="537" type="curve" smooth="yes"/>
      <point x="315" y="537"/>
      <point x="350" y="583"/>
      <point x="339" y="641" type="curve"/>
      <point x="287" y="641" type="line"/>
      <point x="294" y="610"/>
      <point x="282" y="593"/>
      <point x="263" y="593" type="curve" smooth="yes"/>
      <point x="224" y="593"/>
      <point x="192" y="656"/>
      <point x="127" y="656" type="curve" smooth="yes"/>
      <point x="84" y="656"/>
      <point x="36" y="615"/>
      <point x="54" y="544" type="curve"/>
    </contour>
  </outline>
</glyph>
<glyph name="hungarumlaut" format="2">
  <advance width="370"/>
  <unicode hex="02DD"/>
  <outline>
    <contour>
      <point x="180" y="564" type="line"/>
      <point x="228" y="564" type="line"/>
      <point x="311" y="679" type="line"/>
      <point x="237" y="679" type="line"/>
    </contour>
    <contour>
      <point x="60" y="564" type="line"/>
      <point x="108" y="564" type="line"/>
      <point x="191" y="679" type="line"/>
      <point x="117" y="679" type="line"/>
    </contour>
  </outline>
</glyph>
<glyph name="hookabovecomb" format="2">
  <unicode hex="0309"/>
  <anchor x="118" y="499" name="_top"/>
  <anchor x="118" y="747" name="top"/>
  <outline>
    <contour>
      <point x="93" y="562" type="line"/>
      <point x="126" y="562" type="line"/>
      <point x="126" y="586" type="line"/>
      <point x="163" y="593"/>
      <point x="179" y="614"/>
      <point x="179" y="640" type="curve" smooth="yes"/>
      <point x="179" y="693"/>
      <point x="129" y="708"/>
      <point x="87" y="708" type="curve" smooth="yes"/>
      <point x="76" y="708"/>
      <point x="66" y="707"/>
      <point x="56" y="705" type="curve"/>
      <point x="56" y="662" type="line"/>
      <point x="64" y="663"/>
      <point x="73" y="664"/>
      <point x="83" y="664" type="curve" smooth="yes"/>
      <point x="113" y="664"/>
      <point x="131" y="655"/>
      <point x="131" y="638" type="curve" smooth="yes"/>
      <point x="131" y="628"/>
      <point x="121" y="615"/>
      <point x="93" y="614" type="curve"/>
    </contour>
  </outline>
</glyph>
<glyph name="horncomb" format="2">
  <unicode hex="031B"/>
  <anchor x="171" y="499" name="_topright"/>
  <anchor x="171" y="499" name="topright"/>
  <outline>
    <contour>
      <point x="109" y="424" type="line"/>
      <point x="174" y="424"/>
      <point x="235" y="467"/>
      <point x="235" y="542" type="curve" smooth="yes"/>
      <point x="235" y="570" type="line"/>
      <point x="181" y="570" type="line"/>
      <point x="181" y="544" type="line"/>
      <point x="181" y="507"/>
      <point x="144" y="476"/>
      <point x="107" y="476" type="curve"/>
    </contour>
  </outline>
</glyph>
<glyph name="dotbelowcmb" format="2">
  <unicode hex="0323"/>
  <anchor x="90" y="0" name="_bottom"/>
  <anchor x="90" y="-129" name="bottom"/>
  <outline>
    <contour>
      <point x="50" y="-129" type="line"/>
      <point x="129" y="-129" type="line"/>
      <point x="129" y="-50" type="line"/>
      <point x="50" y="-50" type="line"/>
    </contour>
  </outline>
</glyph>
<glyph name="strokeshortcomb" format="2">
  <unicode hex="0335"/>
  <anchor x="202" y="262" name="_center"/>
  <outline>
    <contour>
      <point x="80" y="235" type="line"/>
      <point x="324" y="235" type="line"/>
      <point x="324" y="288" type="line"/>
      <point x="80" y="288" type="line"/>
    </contour>
  </outline>
</glyph>
<glyph name="pi" format="2">
  <advance width="622"/>
  <unicode hex="03C0"/>
  <outline>
    <contour>
      <point x="142" y="0" type="line"/>
      <point x="208" y="0" type="line"/>
      <point x="208" y="433" type="line"/>
      <point x="414" y="433" type="line"/>
      <point x="414" y="0" type="line"/>
      <point x="480" y="0" type="line"/>
      <point x="480" y="433" type="line"/>
      <point x="589" y="433" type="line"/>
      <point x="589" y="499" type="line"/>
      <point x="33" y="499" type="line"/>
      <point x="33" y="433" type="line"/>
      <point x="142" y="433" type="line"/>
    </contour>
  </outline>
</glyph>
<glyph name="Germandbls" format="2">
  <advance width="706"/>
  <unicode hex="1E9E"/>
  <outline>
    <contour>
      <point x="85" y="0" type="line"/>
      <point x="157" y="0" type="line"/>
      <point x="157" y="461" type="line"/>
      <point x="157" y="555"/>
      <point x="216" y="619"/>
      <point x="330" y="619" type="curve"/>
      <point x="444" y="619"/>
      <point x="507" y="565"/>
      <point x="527" y="511" type="curve"/>
      <point x="543" y="538" type="line"/>
      <point x="358" y="450" type="line"/>
      <point x="358" y="396" type="line"/>
      <point x="494" y="369"/>
      <point x="573" y="317"/>
      <point x="573" y="201" type="curve"/>
      <point x="573" y="116"/>
      <point x="529" y="56"/>
      <point x="428" y="56" type="curve"/>
      <point x="355" y="56"/>
      <point x="299" y="89"/>
      <point x="266" y="125" type="curve"/>
      <point x="266" y="47" type="line"/>
      <point x="316" y="12"/>
      <point x="371" y="-10"/>
      <point x="425" y="-10" type="curve"/>
      <point x="594" y="-10"/>
      <point x="646" y="104"/>
      <point x="646" y="209" type="curve"/>
      <point x="646" y="349"/>
      <point x="541" y="418"/>
      <point x="400" y="454" type="curve"/>
      <point x="400" y="411" type="line"/>
      <point x="592" y="499" type="line"/>
      <point x="592" y="520" type="line"/>
      <point x="542" y="614"/>
      <point x="493" y="677"/>
      <point x="326" y="677" type="curve" smooth="yes"/>
      <point x="163" y="677"/>
      <point x="85" y="577"/>
      <point x="85" y="454" type="curve"/>
    </contour>
  </outline>
</glyph>
<glyph name="adotbelow" format="2">
  <advance width="534"/>
  <unicode hex="1EA1"/>
  <anchor x="271" y="0" name="bottom"/>
  <anchor x="468" y="40" name="ogonek"/>
  <anchor x="291" y="499" name="top"/>
  <outline>
    <contour>
      <point x="241" y="-129" type="line"/>
      <point x="320" y="-129" type="line"/>
      <point x="320" y="-50" type="line"/>
      <point x="241" y="-50" type="line"/>
    </contour>
    <component base="a"/>
  </outline>
</glyph>
<glyph name="abrevedotbelow" format="2">
  <advance width="534"/>
  <unicode hex="1EB7"/>
  <anchor x="271" y="0" name="bottom"/>
  <anchor x="468" y="40" name="ogonek"/>
  <anchor x="291" y="499" name="top"/>
  <outline>
    <contour>
      <point x="241" y="-129" type="line"/>
      <point x="320" y="-129" type="line"/>
      <point x="320" y="-50" type="line"/>
      <point x="241" y="-50" type="line"/>
    </contour>
    <contour>
      <point x="272" y="539" type="curve" smooth="yes"/>
      <point x="338" y="539"/>
      <point x="377" y="578"/>
      <point x="377" y="643" type="curve"/>
      <point x="329" y="643" type="line"/>
      <point x="329" y="603"/>
      <point x="312" y="587"/>
      <point x="272" y="587" type="curve" smooth="yes"/>
      <point x="232" y="587"/>
      <point x="215" y="603"/>
      <point x="215" y="643" type="curve"/>
      <point x="167" y="643" type="line"/>
      <point x="167" y="578"/>
      <point x="206" y="539"/>
    </contour>
    <component base="a"/>
  </outline>
</glyph>
<glyph name="ihookabove" format="2">
  <advance width="270"/>
  <unicode hex="1EC9"/>
  <outline>
    <contour>
      <point x="99" y="0" type="line"/>
      <point x="171" y="0" type="line"/>
      <point x="171" y="499" type="line"/>
      <point x="99" y="499" type="line"/>
    </contour>
    <contour>
      <point x="117" y="564" type="line"/>
      <point x="150" y="564" type="line"/>
      <point x="150" y="588" type="line"/>
      <point x="187" y="594"/>
      <point x="203" y="615"/>
      <point x="203" y="641" type="curve" smooth="yes"/>
      <point x="203" y="695"/>
      <point x="153" y="709"/>
      <point x="111" y="709" type="curve" smooth="yes"/>
      <point x="100" y="709"/>
      <point x="90" y="708"/>
      <point x="80" y="707" type="curve"/>
      <point x="80" y="663" type="line"/>
      <point x="88" y="665"/>
      <point x="97" y="666"/>
      <point x="107" y="666" type="curve" smooth="yes"/>
      <point x="137" y="666"/>
      <point x="155" y="656"/>
      <point x="155" y="639" type="curve" smooth="yes"/>
      <point x="155" y="630"/>
      <point x="145" y="617"/>
      <point x="117" y="616" type="curve"/>
    </contour>
  </outline>
</glyph>
<glyph name="idotbelow" format="2">
  <advance width="270"/>
  <unicode hex="1ECB"/>
  <outline>
    <contour>
      <point x="99" y="0" type="line"/>
      <point x="171" y="0" type="line"/>
      <point x="171" y="499" type="line"/>
      <point x="99" y="499" type="line"/>
    </contour>
    <contour>
      <point x="95" y="-129" type="line"/>
      <point x="174" y="-129" type="line"/>
      <point x="174" y="-50" type="line"/>
      <point x="95" y="-50" type="line"/>
    </contour>
    <contour>
      <point x="95" y="588" type="line"/>
      <point x="175" y="588" type="line"/>
      <point x="175" y="667" type="line"/>
      <point x="95" y="667" type="line"/>
    </contour>
  </outline>
</glyph>
<glyph name="udotbelow" format="2">
  <advance width="587"/>
  <unicode hex="1EE5"/>
  <outline>
    <contour>
      <point x="291" y="-9" type="curve" smooth="yes"/>
      <point x="424" y="-9"/>
      <point x="500" y="71"/>
      <point x="500" y="209" type="curve" smooth="yes"/>
      <point x="500" y="499" type="line"/>
      <point x="428" y="499" type="line"/>
      <point x="428" y="206" type="line" smooth="yes"/>
      <point x="428" y="105"/>
      <point x="385" y="58"/>
      <point x="291" y="58" type="curve" smooth="yes"/>
      <point x="198" y="58"/>
      <point x="154" y="105"/>
      <point x="154" y="206" type="curve" smooth="yes"/>
      <point x="154" y="499" type="line"/>
      <point x="82" y="499" type="line"/>
      <point x="82" y="209" type="line" smooth="yes"/>
      <point x="82" y="71"/>
      <point x="158" y="-9"/>
    </contour>
    <contour>
      <point x="252" y="-128" type="line"/>
      <point x="331" y="-128" type="line"/>
      <point x="331" y="-49" type="line"/>
      <point x="252" y="-49" type="line"/>
    </contour>
  </outline>
</glyph>
<glyph name="uhookabove" format="2">
  <advance width="587"/>
  <unicode hex="1EE7"/>
  <outline>
    <contour>
      <point x="291" y="-9" type="curve" smooth="yes"/>
      <point x="424" y="-9"/>
      <point x="500" y="71"/>
      <point x="500" y="209" type="curve" smooth="yes"/>
      <point x="500" y="499" type="line"/>
      <point x="428" y="499" type="line"/>
      <point x="428" y="206" type="line" smooth="yes"/>
      <point x="428" y="105"/>
      <point x="385" y="58"/>
      <point x="291" y="58" type="curve" smooth="yes"/>
      <point x="198" y="58"/>
      <point x="154" y="105"/>
      <point x="154" y="206" type="curve" smooth="yes"/>
      <point x="154" y="499" type="line"/>
      <point x="82" y="499" type="line"/>
      <point x="82" y="209" type="line" smooth="yes"/>
      <point x="82" y="71"/>
      <point x="158" y="-9"/>
    </contour>
    <contour>
      <point x="277" y="564" type="line"/>
      <point x="310" y="564" type="line"/>
      <point x="310" y="588" type="line"/>
      <point x="346" y="594"/>
      <point x="362" y="616"/>
      <point x="362" y="642" type="curve" smooth="yes"/>
      <point x="362" y="695"/>
      <point x="313" y="710"/>
      <point x="271" y="710" type="curve" smooth="yes"/>
      <point x="260" y="710"/>
      <point x="249" y="709"/>
      <point x="240" y="707" type="curve"/>
      <point x="240" y="664" type="line"/>
      <point x="247" y="665"/>
      <point x="256" y="666"/>
      <point x="267" y="666" type="curve" smooth="yes"/>
      <point x="296" y="666"/>
      <point x="314" y="657"/>
      <point x="314" y="640" type="curve" smooth="yes"/>
      <point x="314" y="630"/>
      <point x="305" y="617"/>
      <point x="277" y="616" type="curve"/>
    </contour>
  </outline>
</glyph>
<glyph name="endash" format="2">
  <advance width="560"/>
  <unicode hex="2013"/>
  <outline>
    <contour>
      <point x="69" y="258" type="line"/>
      <point x="489" y="258" type="line"/>
      <point x="489" y="320" type="line"/>
      <point x="69" y="320" type="line"/>
    </contour>
  </outline>
</glyph>
<glyph name="emdash" format="2">
  <advance width="891"/>
  <unicode hex="2014"/>
  <outline>
    <contour>
      <point x="79" y="258" type="line"/>
      <point x="812" y="258" type="line"/>
      <point x="812" y="324" type="line"/>
      <point x="79" y="324" type="line"/>
    </contour>
  </outline>
</glyph>
<glyph name="quoteleft" format="2">
  <advance width="255"/>
  <unicode hex="2018"/>
  <outline>
    <contour>
      <point x="131" y="480" type="line"/>
      <point x="203" y="480" type="line"/>
      <point x="129" y="676" type="line"/>
      <point x="47" y="676" type="line"/>
    </contour>
  </outline>
</glyph>
<glyph name="quoteright" format="2">
  <advance width="255"/>
  <unicode hex="2019"/>
  <outline>
    <contour>
      <point x="47" y="480" type="line"/>
      <point x="119" y="480" type="line"/>
      <point x="203" y="676" type="line"/>
      <point x="121" y="676" type="line"/>
    </contour>
  </outline>
</glyph>
<glyph name="quotesinglbase" format="2">
  <advance width="300"/>
  <unicode hex="201A"/>
  <outline>
    <contour>
      <point x="72" y="-112" type="line"/>
      <point x="144" y="-112" type="line"/>
      <point x="227" y="84" type="line"/>
      <point x="146" y="84" type="line"/>
    </contour>
  </outline>
</glyph>
<glyph name="quotedblleft" format="2">
  <advance width="391"/>
  <unicode hex="201C"/>
  <outline>
    <contour>
      <point x="267" y="480" type="line"/>
      <point x="339" y="480" type="line"/>
      <point x="265" y="676" type="line"/>
      <point x="183" y="676" type="line"/>
    </contour>
    <contour>
      <point x="131" y="480" type="line"/>
      <point x="203" y="480" type="line"/>
      <point x="129" y="676" type="line"/>
      <point x="47" y="676" type="line"/>
    </contour>
  </outline>
</glyph>
<glyph name="quotedblright" format="2">
  <advance width="387"/>
  <unicode hex="201D"/>
  <outline>
    <contour>
      <point x="183" y="480" type="line"/>
      <point x="255" y="480" type="line"/>
      <point x="339" y="676" type="line"/>
      <point x="257" y="676" type="line"/>
    </contour>
    <contour>
      <point x="47" y="480" type="line"/>
      <point x="119" y="480" type="line"/>
      <point x="203" y="676" type="line"/>
      <point x="121" y="676" type="line"/>
    </contour>
  </outline>
</glyph>
<glyph name="quotedblbase" format="2">
  <advance width="436"/>
  <unicode hex="201E"/>
  <outline>
    <contour>
      <point x="208" y="-112" type="line"/>
      <point x="280" y="-112" type="line"/>
      <point x="364" y="84" type="line"/>
      <point x="282" y="84" type="line"/>
    </contour>
    <contour>
      <point x="72" y="-112" type="line"/>
      <point x="144" y="-112" type="line"/>
      <point x="227" y="84" type="line"/>
      <point x="146" y="84" type="line"/>
    </contour>
  </outline>
</glyph>
<glyph name="dagger" format="2">
  <advance width="462"/>
  <unicode hex="2020"/>
  <outline>
    <contour>
      <point x="208" y="97" type="line"/>
      <point x="256" y="97" type="line"/>
      <point x="256" y="484" type="line"/>
      <point x="369" y="484" type="line"/>
      <point x="369" y="532" type="line"/>
      <point x="256" y="532" type="line"/>
      <point x="256" y="667" type="line"/>
      <point x="208" y="667" type="line"/>
      <point x="208" y="532" type="line"/>
      <point x="94" y="532" type="line"/>
      <point x="94" y="484" type="line"/>
      <point x="208" y="484" type="line"/>
    </contour>
  </outline>
</glyph>
<glyph name="daggerdbl" format="2">
  <advance width="494"/>
  <unicode hex="2021"/>
  <outline>
    <contour>
      <point x="216" y="0" type="line"/>
      <point x="276" y="0" type="line"/>
      <point x="276" y="147" type="line"/>
      <point x="423" y="147" type="line"/>
      <point x="423" y="207" type="line"/>
      <point x="276" y="207" type="line"/>
      <point x="276" y="409" type="line"/>
      <point x="423" y="409" type="line"/>
      <point x="423" y="469" type="line"/>
      <point x="276" y="469" type="line"/>
      <point x="276" y="616" type="line"/>
      <point x="216" y="616" type="line"/>
      <point x="216" y="469" type="line"/>
      <point x="68" y="469" type="line"/>
      <point x="68" y="409" type="line"/>
      <point x="216" y="409" type="line"/>
      <point x="216" y="207" type="line"/>
      <point x="68" y="207" type="line"/>
      <point x="68" y="147" type="line"/>
      <point x="216" y="147" type="line"/>
    </contour>
  </outline>
</glyph>
<glyph name="bullet" format="2">
  <advance width="415"/>
  <unicode hex="2022"/>
  <outline>
    <contour>
      <point x="206" y="218" type="curve" smooth="yes"/>
      <point x="269" y="218"/>
      <point x="321" y="270"/>
      <point x="321" y="334" type="curve" smooth="yes"/>
      <point x="321" y="398"/>
      <point x="269" y="449"/>
      <point x="206" y="449" type="curve" smooth="yes"/>
      <point x="142" y="449"/>
      <point x="90" y="398"/>
      <point x="90" y="334" type="curve" smooth="yes"/>
      <point x="90" y="270"/>
      <point x="142" y="218"/>
    </contour>
  </outline>
</glyph>
<glyph name="ellipsis" format="2">
  <advance width="770"/>
  <unicode hex="2026"/>
  <outline>
    <contour>
      <point x="107" y="0" type="line"/>
      <point x="187" y="0" type="line"/>
      <point x="187" y="80" type="line"/>
      <point x="107" y="80" type="line"/>
    </contour>
    <contour>
      <point x="347" y="0" type="line"/>
      <point x="426" y="0" type="line"/>
      <point x="426" y="80" type="line"/>
      <point x="347" y="80" type="line"/>
    </contour>
    <contour>
      <point x="586" y="0" type="line"/>
      <point x="665" y="0" type="line"/>
      <point x="665" y="80" type="line"/>
      <point x="586" y="80" type="line"/>
    </contour>
  </outline>
</glyph>
<glyph name="guilsinglleft" format="2">
  <advance width="347"/>
  <unicode hex="2039"/>
  <outline>
    <contour>
      <point x="200" y="64" type="line"/>
      <point x="297" y="64" type="line"/>
      <point x="119" y="255" type="line"/>
      <point x="297" y="445" type="line"/>
      <point x="200" y="445" type="line"/>
      <point x="31" y="255" type="line"/>
    </contour>
  </outline>
</glyph>
<glyph name="guilsinglright" format="2">
  <advance width="379"/>
  <unicode hex="203A"/>
  <outline>
    <contour>
      <point x="67" y="64" type="line"/>
      <point x="163" y="64" type="line"/>
      <point x="333" y="255" type="line"/>
      <point x="163" y="445" type="line"/>
      <point x="67" y="445" type="line"/>
      <point x="244" y="255" type="line"/>
    </contour>
  </outline>
</glyph>
<glyph name="fraction" format="2">
  <advance width="444"/>
  <unicode hex="2044"/>
  <outline>
    <contour>
      <point x="-17" y="-22" type="line"/>
      <point x="51" y="-22" type="line"/>
      <point x="458" y="685" type="line"/>
      <point x="390" y="685" type="line"/>
    </contour>
  </outline>
</glyph>
<glyph name="colonsign" format="2">
  <advance width="651"/>
  <unicode hex="20A1"/>
  <anchor x="319" y="0" name="bottom"/>
  <anchor x="351" y="667" name="top"/>
  <outline>
    <contour>
      <point x="369" y="-8" type="curve" smooth="yes"/>
      <point x="439" y="-8"/>
      <point x="508" y="10"/>
      <point x="572" y="40" type="curve"/>
      <point x="572" y="109" type="line"/>
      <point x="510" y="75"/>
      <point x="445" y="60"/>
      <point x="377" y="60" type="curve" smooth="yes"/>
      <point x="208" y="60"/>
      <point x="135" y="144"/>
      <point x="135" y="334" type="curve" smooth="yes"/>
      <point x="135" y="523"/>
      <point x="208" y="608"/>
      <point x="377" y="608" type="curve" smooth="yes"/>
      <point x="415" y="608"/>
      <point x="454" y="603"/>
      <point x="491" y="592" type="curve"/>
      <point x="525" y="647" type="line"/>
      <point x="475" y="666"/>
      <point x="423" y="676"/>
      <point x="369" y="676" type="curve" smooth="yes"/>
      <point x="164" y="676"/>
      <point x="60" y="561"/>
      <point x="60" y="334" type="curve" smooth="yes"/>
      <point x="60" y="107"/>
      <point x="164" y="-8"/>
    </contour>
    <contour>
      <point x="67" y="-22" type="line"/>
      <point x="124" y="-22" type="line"/>
      <point x="525" y="647" type="line"/>
      <point x="472" y="650" type="line"/>
    </contour>
    <contour>
      <point x="210" y="-22" type="line"/>
      <point x="267" y="-22" type="line"/>
      <point x="646" y="643" type="line"/>
      <point x="589" y="643" type="line"/>
    </contour>
  </outline>
</glyph>
<glyph name="lira" format="2">
  <advance width="600"/>
  <unicode hex="20A4"/>
  <outline>
    <contour>
      <point x="137" y="490" type="curve" smooth="yes"/>
      <point x="137" y="80" type="line"/>
      <point x="108" y="78"/>
      <point x="80" y="72"/>
      <point x="51" y="58" type="curve"/>
      <point x="51" y="-15" type="line"/>
      <point x="89" y="4"/>
      <point x="128" y="9"/>
      <point x="166" y="8" type="curve" smooth="yes"/>
      <point x="248" y="6"/>
      <point x="329" y="-25"/>
      <point x="410" y="-26" type="curve" smooth="yes"/>
      <point x="440" y="-27"/>
      <point x="470" y="-22"/>
      <point x="500" y="-11" type="curve"/>
      <point x="500" y="62" type="line"/>
      <point x="468" y="50"/>
      <point x="436" y="46"/>
      <point x="403" y="47" type="curve" smooth="yes"/>
      <point x="339" y="49"/>
      <point x="274" y="69"/>
      <point x="209" y="78" type="curve"/>
      <point x="209" y="493" type="line" smooth="yes"/>
      <point x="209" y="545"/>
      <point x="234" y="607"/>
      <point x="355" y="607" type="curve" smooth="yes"/>
      <point x="417" y="607"/>
      <point x="467" y="585"/>
      <point x="500" y="564" type="curve"/>
      <point x="500" y="637" type="line"/>
      <point x="461" y="658"/>
      <point x="410" y="676"/>
      <point x="349" y="676" type="curve" smooth="yes"/>
      <point x="192" y="676"/>
      <point x="137" y="580"/>
    </contour>
    <contour>
      <point x="51" y="207" type="line"/>
      <point x="410" y="207" type="line"/>
      <point x="410" y="273" type="line"/>
      <point x="51" y="273" type="line"/>
    </contour>
    <contour>
      <point x="51" y="321" type="line"/>
      <point x="410" y="321" type="line"/>
      <point x="410" y="387" type="line"/>
      <point x="51" y="387" type="line"/>
    </contour>
  </outline>
</glyph>
<glyph name="naira" format="2">
  <advance width="722"/>
  <unicode hex="20A6"/>
  <anchor x="362" y="0" name="bottom"/>
  <anchor x="362" y="667" name="top"/>
  <outline>
    <contour>
      <point x="8" y="292" type="line"/>
      <point x="714" y="292" type="line"/>
      <point x="714" y="345" type="line"/>
      <point x="8" y="345" type="line"/>
    </contour>
    <component base="N"/>
  </outline>
</glyph>
<glyph name="peseta" format="2">
  <advance width="613"/>
  <unicode hex="20A7"/>
  <outline>
    <contour>
      <point x="20" y="420" type="line"/>
      <point x="135" y="420" type="line"/>
      <point x="135" y="473" type="line"/>
      <point x="20" y="473" type="line"/>
    </contour>
    <contour>
      <point x="488" y="420" type="line"/>
      <point x="603" y="420" type="line"/>
      <point x="603" y="473" type="line"/>
      <point x="488" y="473" type="line"/>
    </contour>
    <component base="P"/>
  </outline>
</glyph>
<glyph name="won" format="2">
  <advance width="951"/>
  <unicode hex="20A9"/>
  <anchor x="489" y="0" name="bottom"/>
  <anchor x="489" y="667" name="top"/>
  <outline>
    <contour>
      <point x="33" y="330" type="line"/>
      <point x="905" y="330" type="line"/>
      <point x="905" y="383" type="line"/>
      <point x="33" y="383" type="line"/>
    </contour>
    <component base="W"/>
  </outline>
</glyph>
<glyph name="dong" format="2">
  <advance width="413"/>
  <unicode hex="20AB"/>
  <outline>
    <contour>
      <point x="200" y="120" type="curve" smooth="yes"/>
      <point x="309" y="120"/>
      <point x="359" y="189"/>
      <point x="359" y="234" type="curve" smooth="yes"/>
      <point x="359" y="533" type="line"/>
      <point x="403" y="533" type="line"/>
      <point x="403" y="597" type="line"/>
      <point x="359" y="597" type="line"/>
      <point x="359" y="659" type="line"/>
      <point x="287" y="659" type="line"/>
      <point x="287" y="597" type="line"/>
      <point x="201" y="597" type="line"/>
      <point x="201" y="533" type="line"/>
      <point x="287" y="533" type="line"/>
      <point x="287" y="476" type="line"/>
      <point x="262" y="485"/>
      <point x="234" y="489"/>
      <point x="206" y="489" type="curve" smooth="yes"/>
      <point x="138" y="489"/>
      <point x="39" y="431"/>
      <point x="39" y="305" type="curve" smooth="yes"/>
      <point x="39" y="143"/>
      <point x="136" y="120"/>
    </contour>
    <contour>
      <point x="56" y="1" type="line"/>
      <point x="355" y="1" type="line"/>
      <point x="355" y="66" type="line"/>
      <point x="56" y="66" type="line"/>
    </contour>
    <contour>
      <point x="200" y="183" type="curve" smooth="yes"/>
      <point x="184" y="183"/>
      <point x="111" y="197"/>
      <point x="111" y="304" type="curve" smooth="yes"/>
      <point x="111" y="379"/>
      <point x="159" y="425"/>
      <point x="220" y="425" type="curve" smooth="yes"/>
      <point x="235" y="425"/>
      <point x="262" y="420"/>
      <point x="287" y="409" type="curve"/>
      <point x="287" y="241" type="line" smooth="yes"/>
      <point x="287" y="203"/>
      <point x="258" y="183"/>
    </contour>
  </outline>
</glyph>
<glyph name="Euro" format="2">
  <advance width="679"/>
  <unicode hex="20AC"/>
  <outline>
    <contour>
      <point x="423" y="-8" type="curve" smooth="yes"/>
      <point x="493" y="-8"/>
      <point x="561" y="5"/>
      <point x="626" y="30" type="curve"/>
      <point x="626" y="99" type="line"/>
      <point x="564" y="73"/>
      <point x="499" y="60"/>
      <point x="431" y="60" type="curve" smooth="yes"/>
      <point x="297" y="60"/>
      <point x="222" y="113"/>
      <point x="196" y="228" type="curve"/>
      <point x="517" y="228" type="line"/>
      <point x="517" y="288" type="line"/>
      <point x="188" y="288" type="line"/>
      <point x="187" y="302"/>
      <point x="186" y="318"/>
      <point x="186" y="334" type="curve" smooth="yes"/>
      <point x="186" y="350"/>
      <point x="187" y="365"/>
      <point x="188" y="380" type="curve"/>
      <point x="517" y="380" type="line"/>
      <point x="517" y="440" type="line"/>
      <point x="196" y="440" type="line"/>
      <point x="222" y="555"/>
      <point x="297" y="608"/>
      <point x="431" y="608" type="curve" smooth="yes"/>
      <point x="499" y="608"/>
      <point x="564" y="594"/>
      <point x="626" y="568" type="curve"/>
      <point x="626" y="637" type="line"/>
      <point x="561" y="663"/>
      <point x="493" y="676"/>
      <point x="423" y="676" type="curve" smooth="yes"/>
      <point x="253" y="676"/>
      <point x="152" y="596"/>
      <point x="123" y="440" type="curve"/>
      <point x="50" y="440" type="line"/>
      <point x="50" y="380" type="line"/>
      <point x="116" y="380" type="line"/>
      <point x="115" y="365"/>
      <point x="114" y="350"/>
      <point x="114" y="334" type="curve" smooth="yes"/>
      <point x="114" y="318"/>
      <point x="115" y="303"/>
      <point x="116" y="288" type="curve"/>
      <point x="50" y="288" type="line"/>
      <point x="50" y="228" type="line"/>
      <point x="123" y="228" type="line"/>
      <point x="152" y="71"/>
      <point x="253" y="-8"/>
    </contour>
  </outline>
</glyph>
<glyph name="kip" format="2">
  <advance width="613"/>
  <unicode hex="20AD"/>
  <anchor x="317" y="0" name="bottom"/>
  <anchor x="317" y="667" name="top"/>
  <outline>
    <contour>
      <point x="18" y="363" type="line"/>
      <point x="462" y="363" type="line"/>
      <point x="462" y="416" type="line"/>
      <point x="18" y="416" type="line"/>
    </contour>
    <component base="K"/>
  </outline>
</glyph>
<glyph name="peso" format="2">
  <advance width="613"/>
  <unicode hex="20B1"/>
  <outline>
    <contour>
      <point x="20" y="481" type="line"/>
      <point x="135" y="481" type="line"/>
      <point x="135" y="534" type="line"/>
      <point x="20" y="534" type="line"/>
    </contour>
    <contour>
      <point x="488" y="481" type="line"/>
      <point x="603" y="481" type="line"/>
      <point x="603" y="534" type="line"/>
      <point x="488" y="534" type="line"/>
    </contour>
    <contour>
      <point x="20" y="354" type="line"/>
      <point x="135" y="354" type="line"/>
      <point x="135" y="407" type="line"/>
      <point x="20" y="407" type="line"/>
    </contour>
    <contour>
      <point x="488" y="354" type="line"/>
      <point x="603" y="354" type="line"/>
      <point x="603" y="407" type="line"/>
      <point x="488" y="407" type="line"/>
    </contour>
    <component base="P"/>
  </outline>
</glyph>
<glyph name="guarani" format="2">
  <advance width="687"/>
  <unicode hex="20B2"/>
  <anchor x="331" y="0" name="bottom"/>
  <anchor x="364" y="667" name="top"/>
  <outline>
    <contour>
      <point x="318" y="640" type="line"/>
      <point x="390" y="640" type="line"/>
      <point x="390" y="749" type="line"/>
      <point x="318" y="749" type="line"/>
    </contour>
    <contour>
      <point x="318" y="-98" type="line"/>
      <point x="390" y="-98" type="line"/>
      <point x="390" y="21" type="line"/>
      <point x="318" y="21" type="line"/>
    </contour>
    <component base="G"/>
  </outline>
</glyph>
<glyph name="cedi" format="2">
  <advance width="622"/>
  <unicode hex="20B5"/>
  <anchor x="314" y="0" name="bottom"/>
  <anchor x="346" y="667" name="top"/>
  <outline>
    <contour>
      <point x="318" y="640" type="line"/>
      <point x="390" y="640" type="line"/>
      <point x="390" y="749" type="line"/>
      <point x="318" y="749" type="line"/>
    </contour>
    <contour>
      <point x="318" y="-98" type="line"/>
      <point x="390" y="-98" type="line"/>
      <point x="390" y="21" type="line"/>
      <point x="318" y="21" type="line"/>
    </contour>
    <component base="C"/>
  </outline>
</glyph>
<glyph name="rupeeIndian" format="2">
  <advance width="506"/>
  <unicode hex="20B9"/>
  <outline>
    <contour>
      <point x="294" y="599" type="line"/>
      <point x="463" y="599" type="line"/>
      <point x="463" y="667" type="line"/>
      <point x="214" y="667" type="line"/>
      <point x="65" y="667" type="line"/>
      <point x="65" y="599" type="line"/>
      <point x="226" y="599" type="line" smooth="yes"/>
      <point x="328" y="599"/>
      <point x="359" y="548"/>
      <point x="359" y="468" type="curve" smooth="yes"/>
      <point x="359" y="383"/>
      <point x="312" y="337"/>
      <point x="201" y="337" type="curve" smooth="yes"/>
      <point x="65" y="337" type="line"/>
      <point x="65" y="269" type="line"/>
      <point x="214" y="269" type="line"/>
      <point x="178" y="306" type="line"/>
      <point x="376" y="0" type="line"/>
      <point x="461" y="0" type="line"/>
      <point x="269" y="293" type="line"/>
      <point x="239" y="273" type="line"/>
      <point x="354" y="273"/>
      <point x="431" y="357"/>
      <point x="431" y="473" type="curve" smooth="yes"/>
      <point x="431" y="601"/>
      <point x="364" y="665"/>
      <point x="234" y="665" type="curve"/>
    </contour>
  </outline>
</glyph>
<glyph name="liraTurkish" format="2">
  <advance width="538"/>
  <unicode hex="20BA"/>
  <outline>
    <contour>
      <point x="273" y="60" type="curve"/>
      <point x="242" y="60"/>
      <point x="196" y="63"/>
      <point x="157" y="80" type="curve"/>
      <point x="157" y="667" type="line"/>
      <point x="85" y="667" type="line"/>
      <point x="85" y="36" type="line"/>
      <point x="132" y="7"/>
      <point x="192" y="-8"/>
      <point x="265" y="-8" type="curve" smooth="yes"/>
      <point x="335" y="-8"/>
      <point x="404" y="10"/>
      <point x="468" y="40" type="curve"/>
      <point x="468" y="109" type="line"/>
      <point x="406" y="75"/>
      <point x="341" y="60"/>
    </contour>
    <contour>
      <point x="23" y="362" type="line"/>
      <point x="23" y="293" type="line"/>
      <point x="255" y="491" type="line"/>
      <point x="255" y="560" type="line"/>
    </contour>
    <contour>
      <point x="23" y="244" type="line"/>
      <point x="23" y="175" type="line"/>
      <point x="255" y="373" type="line"/>
      <point x="255" y="442" type="line"/>
    </contour>
  </outline>
</glyph>
<glyph name="numero" format="2">
  <advance width="1062"/>
  <unicode hex="2116"/>
  <outline>
    <contour>
      <point x="87" y="0" type="line"/>
      <point x="159" y="0" type="line"/>
      <point x="159" y="550" type="line"/>
      <point x="503" y="0" type="line"/>
      <point x="582" y="0" type="line"/>
      <point x="582" y="667" type="line"/>
      <point x="510" y="667" type="line"/>
      <point x="510" y="119" type="line"/>
      <point x="167" y="667" type="line"/>
      <point x="87" y="667" type="line"/>
    </contour>
    <contour>
      <point x="672" y="60" type="line"/>
      <point x="993" y="60" type="line"/>
      <point x="993" y="127" type="line"/>
      <point x="672" y="127" type="line"/>
    </contour>
    <contour>
      <point x="832" y="175" type="curve" smooth="yes"/>
      <point x="939" y="175"/>
      <point x="998" y="239"/>
      <point x="998" y="356" type="curve" smooth="yes"/>
      <point x="998" y="473"/>
      <point x="939" y="538"/>
      <point x="832" y="538" type="curve" smooth="yes"/>
      <point x="726" y="538"/>
      <point x="667" y="473"/>
      <point x="667" y="356" type="curve" smooth="yes"/>
      <point x="667" y="239"/>
      <point x="726" y="175"/>
    </contour>
    <contour>
      <point x="832" y="240" type="curve" smooth="yes"/>
      <point x="782" y="240"/>
      <point x="736" y="254"/>
      <point x="736" y="356" type="curve" smooth="yes"/>
      <point x="736" y="459"/>
      <point x="782" y="473"/>
      <point x="832" y="473" type="curve" smooth="yes"/>
      <point x="883" y="473"/>
      <point x="929" y="459"/>
      <point x="929" y="356" type="curve" smooth="yes"/>
      <point x="929" y="254"/>
      <point x="883" y="240"/>
    </contour>
  </outline>
</glyph>
<glyph name="servicemark" format="2">
  <advance width="709"/>
  <unicode hex="2120"/>
  <outline>
    <contour>
      <point x="330" y="334" type="line"/>
      <point x="366" y="334" type="line"/>
      <point x="366" y="608" type="line"/>
      <point x="484" y="438" type="line"/>
      <point x="602" y="608" type="line"/>
      <point x="602" y="334" type="line"/>
      <point x="638" y="334" type="line"/>
      <point x="638" y="667" type="line"/>
      <point x="599" y="667" type="line"/>
      <point x="484" y="497" type="line"/>
      <point x="369" y="667" type="line"/>
      <point x="330" y="667" type="line"/>
    </contour>
    <contour>
      <point x="158" y="330" type="curve" smooth="yes"/>
      <point x="233" y="330"/>
      <point x="277" y="363"/>
      <point x="277" y="419" type="curve" smooth="yes"/>
      <point x="277" y="546"/>
      <point x="93" y="506"/>
      <point x="93" y="579" type="curve" smooth="yes"/>
      <point x="93" y="616"/>
      <point x="122" y="636"/>
      <point x="176" y="636" type="curve" smooth="yes"/>
      <point x="210" y="636"/>
      <point x="237" y="625"/>
      <point x="256" y="615" type="curve"/>
      <point x="256" y="652" type="line"/>
      <point x="234" y="663"/>
      <point x="206" y="672"/>
      <point x="172" y="672" type="curve" smooth="yes"/>
      <point x="87" y="672"/>
      <point x="57" y="624"/>
      <point x="57" y="579" type="curve" smooth="yes"/>
      <point x="57" y="467"/>
      <point x="241" y="516"/>
      <point x="241" y="419" type="curve" smooth="yes"/>
      <point x="241" y="375"/>
      <point x="195" y="366"/>
      <point x="156" y="366" type="curve" smooth="yes"/>
      <point x="111" y="366"/>
      <point x="80" y="379"/>
      <point x="60" y="393" type="curve"/>
      <point x="60" y="354" type="line"/>
      <point x="84" y="341"/>
      <point x="116" y="330"/>
    </contour>
  </outline>
</glyph>
<glyph name="trademark" format="2">
  <advance width="757"/>
  <unicode hex="2122"/>
  <outline>
    <contour>
      <point x="372" y="334" type="line"/>
      <point x="408" y="334" type="line"/>
      <point x="408" y="608" type="line"/>
      <point x="526" y="438" type="line"/>
      <point x="644" y="608" type="line"/>
      <point x="644" y="334" type="line"/>
      <point x="680" y="334" type="line"/>
      <point x="680" y="667" type="line"/>
      <point x="641" y="667" type="line"/>
      <point x="526" y="498" type="line"/>
      <point x="411" y="667" type="line"/>
      <point x="372" y="667" type="line"/>
    </contour>
    <contour>
      <point x="167" y="334" type="line"/>
      <point x="203" y="334" type="line"/>
      <point x="203" y="632" type="line"/>
      <point x="321" y="632" type="line"/>
      <point x="321" y="667" type="line"/>
      <point x="49" y="667" type="line"/>
      <point x="49" y="632" type="line"/>
      <point x="167" y="632" type="line"/>
    </contour>
  </outline>
</glyph>
<glyph name="partialdiff" format="2">
  <advance width="583"/>
  <unicode hex="2202"/>
  <outline>
    <contour>
      <point x="292" y="-8" type="curve" smooth="yes"/>
      <point x="442" y="-8"/>
      <point x="519" y="97"/>
      <point x="519" y="305" type="curve" smooth="yes"/>
      <point x="519" y="640"/>
      <point x="306" y="676"/>
      <point x="214" y="676" type="curve" smooth="yes"/>
      <point x="191" y="676"/>
      <point x="170" y="673"/>
      <point x="150" y="670" type="curve"/>
      <point x="150" y="603" type="line"/>
      <point x="167" y="606"/>
      <point x="186" y="608"/>
      <point x="207" y="608" type="curve" smooth="yes"/>
      <point x="264" y="608"/>
      <point x="419" y="593"/>
      <point x="442" y="383" type="curve"/>
      <point x="418" y="400"/>
      <point x="368" y="426"/>
      <point x="292" y="426" type="curve" smooth="yes"/>
      <point x="152" y="426"/>
      <point x="65" y="346"/>
      <point x="65" y="217" type="curve" smooth="yes"/>
      <point x="65" y="113"/>
      <point x="124" y="-8"/>
    </contour>
    <contour>
      <point x="292" y="60" type="curve" smooth="yes"/>
      <point x="148" y="60"/>
      <point x="137" y="181"/>
      <point x="137" y="218" type="curve" smooth="yes"/>
      <point x="137" y="309"/>
      <point x="192" y="359"/>
      <point x="292" y="359" type="curve" smooth="yes"/>
      <point x="381" y="359"/>
      <point x="429" y="320"/>
      <point x="447" y="303" type="curve"/>
      <point x="445" y="60"/>
      <point x="338" y="60"/>
    </contour>
  </outline>
</glyph>
<glyph name="Delta" format="2">
  <advance width="729"/>
  <unicode hex="2206"/>
  <outline>
    <contour>
      <point x="27" y="0" type="line"/>
      <point x="702" y="0" type="line"/>
      <point x="394" y="667" type="line"/>
      <point x="334" y="667" type="line"/>
    </contour>
    <contour>
      <point x="134" y="69" type="line"/>
      <point x="364" y="568" type="line"/>
      <point x="594" y="69" type="line"/>
    </contour>
  </outline>
</glyph>
<glyph name="product" format="2">
  <advance width="719"/>
  <unicode hex="220F"/>
  <outline>
    <contour>
      <point x="167" y="-132" type="line"/>
      <point x="233" y="-132" type="line"/>
      <point x="233" y="451" type="line"/>
      <point x="486" y="451" type="line"/>
      <point x="486" y="-132" type="line"/>
      <point x="552" y="-132" type="line"/>
      <point x="552" y="451" type="line"/>
      <point x="686" y="451" type="line"/>
      <point x="686" y="517" type="line"/>
      <point x="33" y="517" type="line"/>
      <point x="33" y="451" type="line"/>
      <point x="167" y="451" type="line"/>
    </contour>
  </outline>
</glyph>
<glyph name="summation" format="2">
  <advance width="562"/>
  <unicode hex="2211"/>
  <outline>
    <contour>
      <point x="77" y="0" type="line"/>
      <point x="496" y="0" type="line"/>
      <point x="496" y="65" type="line"/>
      <point x="151" y="65" type="line"/>
      <point x="323" y="333" type="line"/>
      <point x="151" y="601" type="line"/>
      <point x="496" y="601" type="line"/>
      <point x="496" y="667" type="line"/>
      <point x="77" y="667" type="line"/>
      <point x="77" y="595" type="line"/>
      <point x="244" y="333" type="line"/>
      <point x="77" y="72" type="line"/>
    </contour>
  </outline>
</glyph>
<glyph name="minus" format="2">
  <advance width="566"/>
  <unicode hex="2212"/>
  <outline>
    <contour>
      <point x="80" y="227" type="line"/>
      <point x="486" y="227" type="line"/>
      <point x="486" y="287" type="line"/>
      <point x="80" y="287" type="line"/>
    </contour>
  </outline>
</glyph>
<glyph name="radical" format="2">
  <advance width="719"/>
  <unicode hex="221A"/>
  <outline>
    <contour>
      <point x="381" y="0" type="line"/>
      <point x="441" y="0" type="line"/>
      <point x="701" y="667" type="line"/>
      <point x="630" y="667" type="line"/>
      <point x="411" y="105" type="line"/>
      <point x="302" y="384" type="line"/>
      <point x="94" y="384" type="line"/>
      <point x="94" y="330" type="line"/>
      <point x="252" y="330" type="line"/>
    </contour>
  </outline>
</glyph>
<glyph name="infinity" format="2">
  <advance width="756"/>
  <unicode hex="221E"/>
  <outline>
    <contour>
      <point x="199" y="220" type="curve" smooth="yes"/>
      <point x="280" y="220"/>
      <point x="338" y="282"/>
      <point x="376" y="334" type="curve"/>
      <point x="414" y="282"/>
      <point x="472" y="220"/>
      <point x="553" y="220" type="curve" smooth="yes"/>
      <point x="610" y="220"/>
      <point x="695" y="260"/>
      <point x="695" y="372" type="curve" smooth="yes"/>
      <point x="695" y="484"/>
      <point x="610" y="525"/>
      <point x="553" y="525" type="curve" smooth="yes"/>
      <point x="472" y="525"/>
      <point x="414" y="462"/>
      <point x="376" y="410" type="curve"/>
      <point x="339" y="462"/>
      <point x="280" y="525"/>
      <point x="199" y="525" type="curve" smooth="yes"/>
      <point x="142" y="525"/>
      <point x="57" y="484"/>
      <point x="57" y="372" type="curve" smooth="yes"/>
      <point x="57" y="260"/>
      <point x="142" y="220"/>
    </contour>
    <contour>
      <point x="203" y="265" type="curve" smooth="yes"/>
      <point x="202" y="265"/>
      <point x="108" y="266"/>
      <point x="108" y="372" type="curve" smooth="yes"/>
      <point x="108" y="478"/>
      <point x="202" y="480"/>
      <point x="203" y="480" type="curve" smooth="yes"/>
      <point x="266" y="480"/>
      <point x="317" y="420"/>
      <point x="349" y="372" type="curve"/>
      <point x="317" y="324"/>
      <point x="266" y="265"/>
    </contour>
    <contour>
      <point x="549" y="265" type="curve" smooth="yes"/>
      <point x="486" y="265"/>
      <point x="436" y="324"/>
      <point x="403" y="372" type="curve"/>
      <point x="436" y="420"/>
      <point x="486" y="480"/>
      <point x="549" y="480" type="curve" smooth="yes"/>
      <point x="550" y="480"/>
      <point x="644" y="478"/>
      <point x="644" y="372" type="curve" smooth="yes"/>
      <point x="644" y="266"/>
      <point x="550" y="265"/>
    </contour>
  </outline>
</glyph>
<glyph name="approxequal" format="2">
  <advance width="611"/>
  <unicode hex="2248"/>
  <outline>
    <contour>
      <point x="100" y="320" type="line"/>
      <point x="237" y="447"/>
      <point x="374" y="214"/>
      <point x="511" y="341" type="curve"/>
      <point x="511" y="401" type="line"/>
      <point x="374" y="274"/>
      <point x="237" y="507"/>
      <point x="100" y="380" type="curve"/>
    </contour>
    <contour>
      <point x="100" y="163" type="line"/>
      <point x="237" y="290"/>
      <point x="374" y="56"/>
      <point x="511" y="183" type="curve"/>
      <point x="511" y="244" type="line"/>
      <point x="374" y="117"/>
      <point x="237" y="350"/>
      <point x="100" y="223" type="curve"/>
    </contour>
  </outline>
</glyph>
<glyph name="notequal" format="2">
  <advance width="611"/>
  <unicode hex="2260"/>
  <outline>
    <contour>
      <point x="207" y="13" type="line"/>
      <point x="277" y="138" type="line"/>
      <point x="498" y="138" type="line"/>
      <point x="498" y="198" type="line"/>
      <point x="310" y="198" type="line"/>
      <point x="363" y="292" type="line"/>
      <point x="498" y="292" type="line"/>
      <point x="498" y="352" type="line"/>
      <point x="397" y="352" type="line"/>
      <point x="452" y="450" type="line"/>
      <point x="405" y="477" type="line"/>
      <point x="335" y="352" type="line"/>
      <point x="113" y="352" type="line"/>
      <point x="113" y="292" type="line"/>
      <point x="301" y="292" type="line"/>
      <point x="248" y="198" type="line"/>
      <point x="113" y="198" type="line"/>
      <point x="113" y="138" type="line"/>
      <point x="215" y="138" type="line"/>
      <point x="160" y="39" type="line"/>
    </contour>
  </outline>
</glyph>
<glyph name="lessequal" format="2">
  <advance width="568"/>
  <unicode hex="2264"/>
  <outline>
    <contour>
      <point x="458" y="239" type="line"/>
      <point x="458" y="300" type="line"/>
      <point x="192" y="411" type="line"/>
      <point x="458" y="521" type="line"/>
      <point x="458" y="583" type="line"/>
      <point x="108" y="437" type="line"/>
      <point x="108" y="384" type="line"/>
    </contour>
    <contour>
      <point x="108" y="145" type="line"/>
      <point x="458" y="145" type="line"/>
      <point x="458" y="202" type="line"/>
      <point x="108" y="202" type="line"/>
    </contour>
  </outline>
</glyph>
<glyph name="greaterequal" format="2">
  <advance width="568"/>
  <unicode hex="2265"/>
  <outline>
    <contour>
      <point x="108" y="239" type="line"/>
      <point x="458" y="384" type="line"/>
      <point x="458" y="437" type="line"/>
      <point x="108" y="583" type="line"/>
      <point x="108" y="521" type="line"/>
      <point x="373" y="411" type="line"/>
      <point x="108" y="300" type="line"/>
    </contour>
    <contour>
      <point x="108" y="145" type="line"/>
      <point x="458" y="145" type="line"/>
      <point x="458" y="202" type="line"/>
      <point x="108" y="202" type="line"/>
    </contour>
  </outline>
</glyph>
<glyph name="lozenge" format="2">
  <advance width="636"/>
  <unicode hex="25CA"/>
  <outline>
    <contour>
      <point x="318" y="-36" type="line"/>
      <point x="572" y="333" type="line"/>
      <point x="318" y="703" type="line"/>
      <point x="64" y="333" type="line"/>
    </contour>
    <contour>
      <point x="318" y="57" type="line"/>
      <point x="128" y="333" type="line"/>
      <point x="318" y="610" type="line"/>
      <point x="508" y="333" type="line"/>
    </contour>
  </outline>
</glyph>
